<svg width="230" height="35" viewBox="0 0 230 35" fill="none" xmlns="http://www.w3.org/2000/svg">
<path d="M1.86828 16.156C1.86828 17.3878 1.85293 18.5069 1.88692 19.625C1.88692 19.7732 2.11385 19.9611 2.28049 20.0545C7.06364 22.6922 11.8468 25.3289 16.653 27.9258C16.8296 27.9822 17.0164 28.0019 17.2012 27.9834C17.3861 27.9649 17.5649 27.9087 17.7262 27.8184C22.5975 25.1735 27.4577 22.5118 32.307 19.8333C32.4945 19.7259 32.6787 19.6185 32.8727 19.5294C33.4 19.2888 33.8089 19.4864 33.8166 20.0417C33.8396 21.8835 33.8418 23.7276 33.8056 25.5694C33.7827 25.7023 33.7307 25.8287 33.6531 25.9399C33.5755 26.0512 33.4742 26.1446 33.3562 26.2138C28.0859 29.1301 22.8054 32.0298 17.5147 34.9131C17.379 34.9734 17.2317 35.0047 17.0827 35.0047C16.9337 35.0047 16.7864 34.9734 16.6508 34.9131C11.3589 32.0337 6.08574 29.1232 0.796102 26.2396C0.690935 26.1935 0.596907 26.1261 0.520179 26.0419C0.443452 25.9577 0.385756 25.8585 0.350874 25.7509C0.315992 25.6433 0.30471 25.5297 0.317769 25.4176C0.330828 25.3054 0.367932 25.1972 0.426649 25.1001C0.657968 24.6018 1.10307 24.7521 1.52295 24.9852C6.4234 27.6884 11.3359 30.368 16.2232 33.0927C16.4811 33.2643 16.7863 33.3549 17.0981 33.3524C17.4099 33.3499 17.7135 33.2544 17.9685 33.0787C22.5299 30.5384 27.1058 28.0238 31.6964 25.5351C31.9026 25.4528 32.0752 25.306 32.1875 25.1176C32.2997 24.9292 32.3452 24.7097 32.3169 24.4933C32.2686 23.5267 32.3026 22.5601 32.3026 21.47C31.7731 21.7568 31.3554 21.9791 30.9399 22.2068C26.5284 24.6304 22.1187 27.0576 17.7109 29.4884C17.5275 29.6129 17.3097 29.6796 17.0865 29.6796C16.8634 29.6796 16.6456 29.6129 16.4622 29.4884C11.3337 26.6509 6.19501 23.8278 1.04606 21.019C0.81616 20.9242 0.623601 20.7594 0.496997 20.5488C0.370393 20.3383 0.316501 20.0934 0.343331 19.8505C0.383894 18.2717 0.35539 16.6919 0.357583 15.1121C0.357583 13.9597 0.620694 13.805 1.63039 14.3603C6.56081 17.0631 11.4883 19.7707 16.4129 22.4828C16.6054 22.6165 16.8349 22.6896 17.0708 22.6924C17.3068 22.6953 17.538 22.6278 17.7339 22.4989C22.3698 19.9285 27.0166 17.3767 31.6744 14.8436C31.8834 14.7666 32.0602 14.6234 32.1768 14.4369C32.2933 14.2503 32.343 14.031 32.318 13.8136C32.2621 12.8471 32.3026 11.8805 32.3026 10.7796C31.6448 11.1319 31.0824 11.424 30.5288 11.728C26.2584 14.0743 21.9905 16.4241 17.7251 18.7776C17.5465 18.9058 17.332 18.9775 17.1105 18.9828C16.8891 18.9882 16.6713 18.9271 16.4863 18.8077C11.3337 15.9487 6.16906 13.1252 1.01865 10.2695C0.866617 10.1916 0.733306 10.0828 0.627625 9.95035C0.521944 9.81793 0.446325 9.66494 0.40582 9.5016C0.440482 9.33665 0.511394 9.18108 0.613627 9.04568C0.71586 8.91029 0.846962 8.79834 0.997821 8.71759C6.15042 5.8608 11.3162 3.03515 16.4677 0.18158C16.6521 0.058906 16.8703 -0.00578358 17.0932 -0.00386477C17.3161 -0.00194596 17.5331 0.0664903 17.7153 0.19232C21.5055 2.29876 25.306 4.39016 29.1168 6.46652C29.5125 6.68132 29.9774 6.92941 29.6759 7.40196C29.6162 7.51309 29.5328 7.6103 29.4312 7.68692C29.3297 7.76354 29.2125 7.81777 29.0876 7.84592C28.9626 7.87406 28.833 7.87545 28.7075 7.84999C28.582 7.82453 28.4636 7.77281 28.3603 7.69838C24.8069 5.71724 21.2391 3.76009 17.6572 1.82692C17.4911 1.74606 17.3094 1.70052 17.124 1.6933C16.9387 1.68608 16.7539 1.71734 16.5817 1.78504C12.0375 4.24553 7.51532 6.74361 2.9876 9.23525C2.87797 9.29647 2.76834 9.37272 2.58965 9.48978C2.84179 9.64658 3.02817 9.77546 3.2255 9.88393C7.63554 12.309 12.0445 14.7358 16.4523 17.1645C16.635 17.29 16.8524 17.3581 17.0755 17.3594C17.2986 17.3607 17.5168 17.2954 17.701 17.172C22.5949 14.4602 27.5184 11.8021 32.3914 9.05482C33.2849 8.55112 33.9262 8.84002 33.8561 9.92904C33.7541 11.4756 33.8144 13.0339 33.8396 14.5869C33.8656 14.7917 33.8245 14.9994 33.7223 15.1799C33.62 15.3604 33.4619 15.5043 33.2707 15.5911C28.053 18.4378 22.8441 21.3 17.644 24.1776C17.47 24.2897 17.2653 24.3472 17.0571 24.3424C16.8488 24.3376 16.6471 24.2708 16.4787 24.1507C11.9334 21.6376 7.3812 19.1363 2.82206 16.6468C2.54799 16.4964 2.26514 16.36 1.86499 16.1549L1.86828 16.156Z" fill="#35373A"/>
<path d="M61.0967 1.94922V2.86533C61.0967 5.89396 61.1033 8.92258 61.0803 11.948C61.0195 12.2373 60.9082 12.5141 60.7514 12.7664C60.4847 12.7092 60.2312 12.6039 60.0037 12.456C58.3611 10.898 56.1766 10.0081 53.8907 9.96567C51.6048 9.92322 49.3874 10.7314 47.6857 12.2272C46.1597 13.5244 45.0457 15.2233 44.4757 17.1222C43.9058 19.0211 43.9039 21.0403 44.4703 22.9402C44.783 24.5899 45.5596 26.1213 46.7126 27.362C47.8656 28.6027 49.3492 29.5035 50.9965 29.963C52.5584 30.5084 54.2498 30.5905 55.8591 30.1991C57.4684 29.8076 58.9241 28.9601 60.0443 27.7624C60.2032 27.6002 60.5924 27.4402 60.7141 27.5154C60.8185 27.6005 60.9044 27.7053 60.9667 27.8236C61.029 27.9418 61.0665 28.0711 61.077 28.2038C61.1318 28.7408 61.0934 29.2885 61.0934 29.8502H65.2046V1.94922H61.0967ZM54.8478 26.7174C53.52 26.7627 52.2086 26.4186 51.0816 25.7291C49.9547 25.0396 49.0636 24.0362 48.5226 22.8474C47.9815 21.6586 47.8152 20.3386 48.0449 19.0565C48.2745 17.7745 48.8897 16.5889 49.8117 15.6516C50.7336 14.7143 51.9202 14.0681 53.2194 13.7957C54.5187 13.5233 55.8713 13.6372 57.1041 14.1228C58.3368 14.6083 59.3935 15.4435 60.1386 16.5211C60.8837 17.5988 61.2834 18.8699 61.2864 20.1715C61.3079 21.0169 61.1579 21.858 60.845 22.6461C60.5321 23.4343 60.0625 24.1537 59.4636 24.7626C58.8646 25.3716 58.1482 25.8579 57.3558 26.1935C56.5635 26.5291 55.711 26.7071 54.8478 26.7174Z" fill="#35373A"/>
<path d="M148.571 12.5334C146.895 10.9091 144.638 9.99018 142.281 9.97233C139.923 9.95447 137.652 10.8391 135.951 12.4378C135.694 12.6329 135.411 12.7919 135.109 12.9104C134.932 12.6105 134.807 12.2839 134.74 11.9438C134.713 8.86469 134.723 5.78773 134.723 2.70755V1.9375H130.641V29.8331H134.723C134.701 29.3299 134.706 28.8258 134.74 28.3231C134.773 28.0696 134.914 27.7045 135.106 27.6282C135.242 27.6177 135.379 27.638 135.505 27.6876C135.632 27.7371 135.746 27.8145 135.837 27.9139C138.586 30.8921 144.005 31.2185 147.595 28.5991C152.64 24.9207 153.151 16.752 148.571 12.5334ZM140.992 26.7164C139.663 26.7513 138.355 26.3965 137.233 25.6978C136.112 24.999 135.229 23.9881 134.699 22.7945C134.168 21.601 134.013 20.2794 134.254 18.9991C134.495 17.7189 135.121 16.5384 136.052 15.609C136.983 14.6796 138.175 14.0438 139.477 13.783C140.779 13.5222 142.131 13.6484 143.359 14.1453C144.588 14.6423 145.636 15.4873 146.371 16.5721C147.106 17.6569 147.493 18.932 147.483 20.2339C147.493 21.0775 147.333 21.9147 147.011 22.6975C146.69 23.4803 146.215 24.1932 145.611 24.7955C145.008 25.3978 144.29 25.8775 143.497 26.2071C142.704 26.5367 141.853 26.7098 140.992 26.7164Z" fill="#35373A"/>
<path d="M122.754 10.5025C122.775 11.013 122.769 11.5241 122.737 12.034C122.711 12.2875 122.582 12.6591 122.398 12.7321C122.213 12.8051 121.837 12.6183 121.67 12.4368C118.983 9.49404 113.564 9.07842 109.993 11.7322C108.417 12.8578 107.199 14.3974 106.479 16.1729C105.759 17.9485 105.568 19.8874 105.926 21.7654C106.071 23.555 106.744 25.2649 107.861 26.6878C108.979 28.1108 110.493 29.1858 112.222 29.7826C113.835 30.462 115.626 30.6242 117.34 30.2459C119.053 29.8676 120.6 28.9683 121.76 27.6766C121.902 27.5337 122.242 27.3941 122.368 27.4618C122.47 27.5301 122.555 27.6189 122.619 27.7223C122.683 27.8256 122.723 27.9411 122.737 28.061C122.789 28.6292 122.754 29.2059 122.754 29.8213H126.833V10.5025H122.754ZM116.493 26.7196C115.166 26.7568 113.858 26.4052 112.736 25.7098C111.614 25.0143 110.73 24.0067 110.196 22.8159C109.662 21.6252 109.504 20.3055 109.74 19.0257C109.976 17.746 110.597 16.5646 111.523 15.6326C112.449 14.7007 113.638 14.0607 114.937 13.7945C116.237 13.5284 117.588 13.6482 118.817 14.1387C120.047 14.6292 121.099 15.468 121.839 16.5477C122.579 17.6275 122.973 18.899 122.971 20.1995C122.992 21.0467 122.84 21.8895 122.524 22.6785C122.208 23.4675 121.735 24.1867 121.131 24.794C120.528 25.4013 119.807 25.8844 119.01 26.2151C118.214 26.5458 117.358 26.7173 116.493 26.7196Z" fill="#35373A"/>
<path d="M84.9523 10.4803C84.9748 10.9982 84.9693 11.517 84.9359 12.0343C84.9063 12.291 84.7704 12.6562 84.5796 12.7357C84.4075 12.8087 84.0194 12.6218 83.8538 12.4371C81.51 9.83698 76.9943 9.29139 73.6923 10.8454C71.4409 11.9898 69.6778 13.8806 68.7178 16.1804C67.7577 18.4803 67.6631 21.0395 68.4508 23.4014C70.5678 30.3941 78.4019 32.541 83.9613 27.6576C84.0455 27.5844 84.1452 27.5303 84.2532 27.4992C84.3612 27.468 84.4749 27.4605 84.5862 27.4771C84.6825 27.5342 84.7639 27.6124 84.824 27.7056C84.8841 27.7988 84.9213 27.9044 84.9326 28.0141C84.9775 28.607 84.949 29.2062 84.949 29.8399H89.0185V10.4803H84.9523ZM78.6267 26.7146C76.8975 26.6498 75.2617 25.9294 74.0645 24.7053C72.8674 23.4812 72.2026 21.8493 72.2106 20.1541C72.2186 18.4589 72.8986 16.8331 74.1072 15.6198C75.3158 14.4066 76.9584 13.7009 78.6881 13.6518C80.4311 13.6967 82.0867 14.4086 83.3004 15.635C84.5141 16.8613 85.1893 18.5045 85.1812 20.2126C85.1732 21.9207 84.4826 23.5577 83.2575 24.7731C82.0323 25.9884 80.37 26.6854 78.6267 26.7146Z" fill="#35373A"/>
<path d="M215.08 29.8706C213.392 29.8706 211.885 29.8964 210.38 29.847C210.053 29.7852 209.762 29.6059 209.563 29.3444C207.48 26.8592 205.439 24.3471 203.354 21.8673C203.096 21.5612 202.512 21.1252 202.335 21.2175C201.78 21.5075 201.141 21.8501 201.146 22.6556C201.158 24.8132 201.146 26.9709 201.146 29.1285V29.8083H197.031V1.94922H201.174C201.174 2.22953 201.174 2.50984 201.174 2.78907C201.165 7.41901 201.149 12.05 201.16 16.68C201.209 17.0245 201.306 17.3609 201.448 17.6798C201.805 17.5685 202.142 17.404 202.447 17.1922C204.595 15.1227 206.7 13.0112 208.855 10.9492C209.181 10.6649 209.595 10.4965 210.031 10.4713C211.394 10.4133 212.762 10.4487 214.344 10.4487C214.015 10.7827 213.833 10.9857 213.637 11.1758C211.275 13.4834 208.913 15.7907 206.55 18.0976C206.43 18.1933 206.333 18.3131 206.264 18.4489C206.195 18.5847 206.157 18.7334 206.152 18.8849C206.147 19.0364 206.175 19.1872 206.235 19.3271C206.295 19.4669 206.384 19.5927 206.498 19.6957L214.628 29.3078C214.745 29.4432 214.854 29.586 215.08 29.8706Z" fill="#35373A"/>
<path d="M191.89 25.0233L194.127 27.3378C188.645 32.0998 181.225 30.8465 177.925 26.6579C176.652 24.9781 175.904 22.9725 175.771 20.8843C175.639 18.7961 176.127 16.7151 177.178 14.8935C179.46 11.1099 183.055 9.76311 187.401 10.0284C189.673 10.186 191.846 11.0021 193.644 12.3729C193.877 12.5426 194.097 12.7273 194.395 12.9604L191.795 15.3607C187.384 12.4857 183.499 13.8013 181.653 15.8666C180.666 17.011 180.1 18.4466 180.045 19.9436C179.99 21.4405 180.449 22.9123 181.349 24.1233C181.934 24.8859 182.686 25.5103 183.55 25.9505C184.414 26.3906 185.367 26.6353 186.341 26.6665C187.781 26.7621 188.533 26.5312 191.89 25.0233Z" fill="#35373A"/>
<path d="M226.445 15.7484C225.854 15.0866 225.214 14.4684 224.53 13.899C224.031 13.5296 223.434 13.3082 222.81 13.261C222.187 13.2138 221.562 13.3428 221.011 13.6327C220.689 13.7565 220.405 13.9619 220.19 14.2279C219.976 14.4939 219.836 14.811 219.787 15.1468C219.738 15.4826 219.781 15.8252 219.911 16.1395C220.042 16.4539 220.255 16.7288 220.529 16.9362C221.057 17.339 221.65 17.654 222.283 17.8684C223.535 18.3431 224.848 18.6718 226.08 19.1884C228.078 20.0261 229.629 21.3009 229.879 23.5981C230.014 24.5287 229.904 25.4775 229.561 26.3552C229.218 27.2329 228.652 28.0105 227.918 28.6147C224.566 31.4812 217.71 31.0247 215.332 26.1188C215.287 26.0253 215.258 25.9244 215.18 25.716L218.453 24.0406C218.761 24.481 219.02 24.9073 219.33 25.2897C219.886 25.9935 220.651 26.5104 221.52 26.7687C222.389 27.0269 223.318 27.0138 224.179 26.7309C224.639 26.6147 225.049 26.3574 225.349 25.9966C225.649 25.6359 225.823 25.1906 225.847 24.7258C225.902 24.2744 225.8 23.8179 225.557 23.4307C225.314 23.0435 224.943 22.7486 224.507 22.594C223.47 22.1644 222.379 21.8637 221.328 21.4727C220.387 21.1597 219.469 20.7854 218.579 20.3526C214.742 18.3184 215.229 13.449 217.997 11.3934C218.918 10.762 219.965 10.3289 221.07 10.1225C222.174 9.91616 223.31 9.94123 224.404 10.1961C225.498 10.451 226.524 10.9298 227.415 11.6012C228.306 12.2726 229.042 13.1212 229.574 14.0913L226.444 15.7473L226.445 15.7484Z" fill="#35373A"/>
<path d="M104.801 26.5135V29.9685C102.894 30.3019 100.94 30.272 99.0446 29.8804C98.1672 29.6488 97.3756 29.1764 96.763 28.5188C96.1504 27.8612 95.7424 27.0459 95.5869 26.1687C95.3863 25.3511 95.2808 24.5138 95.2723 23.6728C95.235 20.7258 95.2591 17.7788 95.2569 14.8318C95.2569 13.7739 95.2109 13.7331 94.1003 13.731C93.3516 13.731 92.6028 13.731 91.8047 13.731V10.4446C92.7015 10.4446 93.5588 10.4188 94.4117 10.4532C95.0519 10.4789 95.2712 10.2126 95.2635 9.61331C95.2438 7.9089 95.2569 6.20342 95.2569 4.44531H99.4031C99.4031 6.10569 99.4031 7.73062 99.4031 9.35448C99.4031 10.4285 99.4196 10.4446 100.542 10.4457H104.064V13.731C102.884 13.731 101.683 13.731 100.483 13.731C99.4788 13.731 99.4042 13.7986 99.4053 14.7491C99.4097 17.5415 99.4196 20.3302 99.4349 23.1154C99.4403 23.4038 99.4704 23.6912 99.5248 23.9746C99.8833 25.9636 100.677 26.6134 102.762 26.6037C103.406 26.6037 104.049 26.5468 104.802 26.5103L104.801 26.5135Z" fill="#35373A"/>
<path d="M158.537 29.8306H154.508V10.5054H158.606C158.606 11.11 158.568 11.7319 158.622 12.3451C158.693 12.6524 158.808 12.9485 158.963 13.2247C159.253 13.0966 159.52 12.922 159.751 12.7081C160.395 11.811 161.272 11.0995 162.292 10.6482C163.312 10.1969 164.437 10.0222 165.55 10.1424V14.2622C165.011 14.2319 164.47 14.2351 163.932 14.2718C162.591 14.4157 161.345 15.016 160.411 15.968C159.476 16.9199 158.912 18.1631 158.817 19.4806C158.68 20.7081 158.621 21.9426 158.639 23.1773C158.609 25.336 158.622 27.4947 158.615 29.6523C158.615 29.6985 158.574 29.7436 158.535 29.8295L158.537 29.8306Z" fill="#35373A"/>
<path d="M172.897 10.5039V29.8238H168.742V10.5039H172.897Z" fill="#35373A"/>
<path d="M173.359 4.43936C173.356 5.11115 173.08 5.75418 172.593 6.22699C172.106 6.6998 171.447 6.96367 170.761 6.96053C170.075 6.9574 169.419 6.68753 168.936 6.21028C168.454 5.73304 168.184 5.08752 168.188 4.41573C168.189 4.0831 168.258 3.75402 168.389 3.4473C168.52 3.14058 168.712 2.86221 168.953 2.6281C169.195 2.39399 169.481 2.20871 169.795 2.08285C170.109 1.95699 170.446 1.89301 170.785 1.89456C171.125 1.89611 171.461 1.96317 171.774 2.09189C172.087 2.22062 172.371 2.4085 172.61 2.64481C172.849 2.88111 173.038 3.16122 173.167 3.46913C173.295 3.77704 173.36 4.10672 173.359 4.43936Z" fill="#35373A"/>
</svg>
