<svg width="35" height="35" viewBox="0 0 35 35" fill="none" xmlns="http://www.w3.org/2000/svg">
<circle cx="17.5" cy="17.5" r="17.5" fill="#35373A"/>
<path d="M24.6398 12.6792L17.5019 17.8575L10.4219 12.6792C10.6259 12.4923 10.8848 12.3901 11.1522 12.3906H23.9095C24.1759 12.3899 24.4339 12.4923 24.6367 12.6792H24.6398Z" fill="white"/>
<path d="M25.0446 13.8594V22.1073C25.0446 22.2679 25.0153 22.4269 24.9584 22.5753C24.9015 22.7236 24.8181 22.8583 24.713 22.9718C24.6079 23.0853 24.4832 23.1752 24.3459 23.2365C24.2086 23.2978 24.0616 23.3292 23.913 23.3289H11.1453C10.8457 23.3289 10.5584 23.2002 10.3465 22.9711C10.1346 22.742 10.0156 22.4313 10.0156 22.1073V13.8594L17.5036 19.3302L25.0446 13.8594Z" fill="white"/>
</svg>
