<svg width="35" height="35" viewBox="0 0 35 35" fill="none" xmlns="http://www.w3.org/2000/svg">
<g clip-path="url(#clip0_3456_3523)">
<path fill-rule="evenodd" clip-rule="evenodd" d="M17.5 0C7.83475 0 0 7.847 0 17.5298C0 25.2735 5.01375 31.8447 11.9682 34.1618C12.8432 34.3228 13.1617 33.782 13.1617 33.3165C13.1617 32.9017 13.1478 31.7975 13.139 30.3362C8.2705 31.395 7.24325 27.986 7.24325 27.986C6.44875 25.9595 5.30075 25.4205 5.30075 25.4205C3.71175 24.3355 5.4215 24.3565 5.4215 24.3565C7.17675 24.479 8.10075 26.1625 8.10075 26.1625C9.66175 28.84 12.1975 28.0665 13.1932 27.6185C13.3542 26.4862 13.8057 25.7145 14.3063 25.277C10.4213 24.8342 6.335 23.3293 6.335 16.6128C6.335 14.7 7.0175 13.1338 8.13575 11.9088C7.9555 11.466 7.35525 9.68275 8.30725 7.27125C8.30725 7.27125 9.77725 6.79875 13.1197 9.06675C14.5473 8.6774 16.0203 8.47909 17.5 8.477C18.9875 8.484 20.4837 8.67825 21.882 9.06675C25.2227 6.79875 26.6892 7.2695 26.6892 7.2695C27.6447 9.68275 27.0427 11.466 26.8643 11.9088C27.9842 13.1338 28.6632 14.7 28.6632 16.6128C28.6632 23.3468 24.57 24.829 20.6727 25.263C21.301 25.8038 21.8593 26.873 21.8593 28.5093C21.8593 30.8507 21.8382 32.7425 21.8382 33.3165C21.8382 33.7855 22.1532 34.3315 23.0422 34.16C26.527 32.9912 29.5563 30.7568 31.7021 27.7726C33.8478 24.7884 35.0015 21.2053 35 17.5298C35 7.847 27.1635 0 17.5 0Z" fill="#35373A"/>
</g>
<defs>
<clipPath id="clip0_3456_3523">
<rect width="35" height="35" fill="white"/>
</clipPath>
</defs>
</svg>
