<svg width="172" height="35" viewBox="0 0 172 35" fill="none" xmlns="http://www.w3.org/2000/svg">
<path d="M55.0809 19.0073C53.9395 19.022 52.8068 18.806 51.7509 18.3723C50.6949 17.9387 49.7374 17.2962 48.9358 16.4835C48.1208 15.6961 47.4728 14.7528 47.0301 13.7096C46.5875 12.6664 46.3594 11.5448 46.3594 10.4117C46.3594 9.27847 46.5875 8.15688 47.0301 7.11372C47.4728 6.07056 48.1208 5.12718 48.9358 4.33978C49.7336 3.51883 50.6893 2.86792 51.7455 2.42631C52.8016 1.9847 53.9362 1.76153 55.0809 1.77025C56.1717 1.75586 57.2545 1.95844 58.2663 2.36621C59.2781 2.77397 60.1988 3.37878 60.9748 4.14549L59.3136 5.83207C58.1782 4.7348 56.6546 4.1317 55.0758 4.15465C54.2575 4.14522 53.4461 4.30592 52.6931 4.62654C51.9402 4.94716 51.262 5.42073 50.7017 6.0172C49.5493 7.18981 48.9036 8.7681 48.9036 10.4122C48.9036 12.0562 49.5493 13.6345 50.7017 14.8071C51.8549 15.9565 53.4113 16.6103 55.0394 16.6293C56.6675 16.6483 58.2387 16.031 59.4184 14.9089C60.1491 14.1091 60.5972 13.0917 60.694 12.0128H55.1063V9.63144H63.0133C63.0903 10.1119 63.1216 10.5987 63.1069 11.0851C63.1556 12.091 63 13.0963 62.6495 14.0404C62.2989 14.9845 61.7607 15.8478 61.0673 16.5781C60.2957 17.3803 59.3639 18.0111 58.3325 18.4296C57.3012 18.8481 56.1933 19.0449 55.0809 19.0073ZM73.4633 17.4245C72.4026 18.4425 70.9893 19.0109 69.519 19.0109C68.0488 19.0109 66.6355 18.4425 65.5747 17.4245C64.5418 16.3663 63.9636 14.9462 63.9636 13.4674C63.9636 11.9887 64.5418 10.5686 65.5747 9.51039C66.6371 8.49564 68.0498 7.9294 69.519 7.9294C70.9882 7.9294 72.4009 8.49564 73.4633 9.51039C74.4977 10.5684 75.0761 11.9897 75.0744 13.4693C75.0726 14.9489 74.491 16.3689 73.4542 17.4245H73.4633ZM67.3162 15.8701C67.587 16.1595 67.9122 16.3927 68.2732 16.5563C68.6341 16.72 69.0238 16.8109 69.42 16.8238C69.8161 16.8368 70.2109 16.7715 70.5817 16.6318C70.9526 16.4921 71.2924 16.2806 71.5815 16.0095C71.6293 15.9637 71.6771 15.918 71.7208 15.8701C72.3199 15.2115 72.6519 14.3532 72.6519 13.4629C72.6519 12.5725 72.3199 11.7142 71.7208 11.0556C71.1583 10.4691 70.386 10.13 69.5736 10.1128C68.7612 10.0957 67.9752 10.4018 67.3884 10.964C67.3569 10.9935 67.3264 11.024 67.2969 11.0556C66.6954 11.7135 66.3626 12.5732 66.3643 13.4646C66.366 14.3561 66.702 15.2145 67.306 15.8701H67.3162ZM85.5867 17.4245C84.526 18.4425 83.1127 19.0109 81.6424 19.0109C80.1722 19.0109 78.7589 18.4425 77.6981 17.4245C76.6652 16.3663 76.087 14.9462 76.087 13.4674C76.087 11.9887 76.6652 10.5686 77.6981 9.51039C78.7589 8.49238 80.1722 7.92393 81.6424 7.92393C83.1127 7.92393 84.526 8.49238 85.5867 9.51039C86.6197 10.5686 87.1979 11.9887 87.1979 13.4674C87.1979 14.9462 86.6197 16.3663 85.5867 17.4245ZM79.4416 15.8701C79.7124 16.1595 80.0376 16.3927 80.3986 16.5563C80.7596 16.72 81.1493 16.8109 81.5454 16.8238C81.9415 16.8368 82.3363 16.7715 82.7072 16.6318C83.0781 16.4921 83.4178 16.2806 83.7069 16.0095C83.7547 15.9637 83.8025 15.918 83.8463 15.8701C84.4453 15.2115 84.7773 14.3532 84.7773 13.4629C84.7773 12.5725 84.4453 11.7142 83.8463 11.0556C83.2841 10.4692 82.5121 10.1302 81.7 10.113C80.8879 10.0958 80.1023 10.402 79.5159 10.964C79.4844 10.9935 79.4538 11.024 79.4243 11.0556C78.8228 11.7135 78.49 12.5732 78.4917 13.4646C78.4934 14.3561 78.8295 15.2145 79.4335 15.8701H79.4416ZM93.5578 23.9806C92.4414 24.0157 91.3467 23.6671 90.4563 22.9928C89.666 22.3983 89.0435 21.609 88.6496 20.702L90.7716 19.817C91.0021 20.3593 91.3635 20.836 91.8234 21.2045C92.3154 21.6014 92.933 21.8095 93.5649 21.7915C93.9655 21.8157 94.3665 21.7535 94.7409 21.609C95.1153 21.4646 95.4542 21.2413 95.7347 20.9543C96.2952 20.2773 96.5722 19.4098 96.5078 18.5333V17.7296H96.4233C96.0683 18.1508 95.6201 18.4836 95.1143 18.7018C94.6086 18.92 94.059 19.0176 93.509 18.9869C92.8099 18.9889 92.1181 18.8459 91.4771 18.567C90.8361 18.2881 90.2599 17.8793 89.7849 17.3665C88.7634 16.3188 88.1916 14.9134 88.1916 13.4501C88.1916 11.9869 88.7634 10.5815 89.7849 9.53378C90.2588 9.0191 90.8347 8.60863 91.4758 8.32844C92.1169 8.04824 92.8093 7.90445 93.509 7.90621C94.1015 7.90523 94.6868 8.03551 95.223 8.28767C95.687 8.48997 96.1007 8.79215 96.4345 9.17267H96.519V8.28767H98.8281V18.2047C98.8888 18.9893 98.7888 19.778 98.5342 20.5226C98.2795 21.2672 97.8755 21.952 97.347 22.5351C96.8438 23.0168 96.2491 23.3929 95.5981 23.6409C94.9471 23.889 94.253 24.0042 93.5568 23.9795L93.5578 23.9806ZM93.7267 16.8294C94.1241 16.838 94.5186 16.7592 94.8821 16.5983C95.2457 16.4374 95.5694 16.1986 95.8303 15.8986C96.4048 15.24 96.7073 14.3876 96.6766 13.5142C96.7117 12.6263 96.4093 11.7581 95.8303 11.0841C95.5697 10.7838 95.246 10.5447 94.8824 10.3838C94.5188 10.2229 94.1242 10.1442 93.7267 10.1533C93.3182 10.1451 92.9127 10.2238 92.5371 10.3843C92.1614 10.5448 91.8242 10.7833 91.5477 11.0841C90.932 11.7341 90.5975 12.6008 90.617 13.4959C90.6075 13.9351 90.6849 14.3717 90.8446 14.7809C91.0043 15.1901 91.2433 15.5637 91.5477 15.8803C91.8228 16.184 92.1594 16.4255 92.5351 16.589C92.9108 16.7525 93.317 16.8351 93.7267 16.8294ZM102.937 2.39991V18.6757H100.507V2.39991H102.937ZM109.605 19.0124C108.877 19.0314 108.153 18.8997 107.478 18.6255C106.803 18.3514 106.193 17.9408 105.684 17.4194C105.168 16.9024 104.762 16.2858 104.491 15.6072C104.221 14.9285 104.091 14.2019 104.11 13.4715C104.082 12.7392 104.203 12.009 104.464 11.3241C104.724 10.6393 105.12 10.0138 105.627 9.48496C106.106 8.98106 106.684 8.58241 107.325 8.31444C107.967 8.04647 108.657 7.91506 109.351 7.92859C109.99 7.92184 110.624 8.04541 111.214 8.29174C111.745 8.50605 112.229 8.82226 112.638 9.22251C112.99 9.56182 113.302 9.93993 113.569 10.3496C113.784 10.6952 113.969 11.0595 114.119 11.438L114.37 12.0718L106.92 15.1326C107.145 15.6503 107.522 16.0876 108.001 16.3871C108.479 16.6865 109.038 16.834 109.602 16.8101C110.15 16.8114 110.69 16.6706 111.169 16.4015C111.647 16.1323 112.047 15.7439 112.331 15.274L114.193 16.5313C113.719 17.2121 113.11 17.789 112.405 18.2271C111.568 18.7552 110.594 19.0268 109.605 19.0083V19.0124ZM106.494 13.3037L111.448 11.2458C111.296 10.8829 111.022 10.5839 110.675 10.3995C110.286 10.1797 109.846 10.067 109.399 10.0729C108.642 10.0928 107.923 10.4108 107.398 10.9579C107.084 11.2582 106.84 11.6243 106.684 12.0298C106.528 12.4353 106.462 12.8703 106.494 13.3037Z" fill="#35373A"/>
<path d="M127.111 19.0069C126.103 19.0242 125.102 18.843 124.165 18.4735C123.228 18.104 122.372 17.5535 121.647 16.8533C120.923 16.1532 120.343 15.3172 119.941 14.393C119.54 13.4688 119.324 12.4746 119.307 11.4671C119.307 11.3654 119.307 11.2637 119.307 11.1619C119.283 10.1546 119.458 9.15245 119.822 8.21276C120.186 7.27308 120.731 6.41425 121.427 5.6853C122.123 4.95636 122.955 4.37159 123.877 3.96436C124.798 3.55714 125.791 3.33545 126.799 3.31195C126.9 3.31195 127.002 3.31195 127.104 3.31195C128.15 3.27943 129.19 3.48356 130.146 3.90911C131.103 4.33465 131.95 4.97063 132.626 5.76959L131.285 7.07266C130.789 6.44869 130.153 5.95056 129.428 5.61879C128.703 5.28701 127.91 5.13096 127.114 5.16332C126.347 5.14633 125.585 5.28434 124.873 5.56908C124.161 5.85383 123.514 6.27943 122.97 6.82039C122.405 7.38868 121.964 8.06743 121.674 8.81415C121.383 9.56086 121.251 10.3595 121.283 11.1599C121.25 11.9604 121.383 12.7591 121.673 13.5059C121.963 14.2527 122.405 14.9314 122.97 15.4994C123.513 16.0407 124.16 16.4666 124.873 16.7513C125.585 17.0361 126.347 17.1739 127.114 17.1565C128.006 17.1669 128.888 16.9756 129.696 16.5971C130.503 16.2186 131.215 15.6625 131.777 14.9705L133.119 16.3122C132.417 17.1512 131.535 17.8223 130.54 18.2765C129.467 18.7747 128.296 19.024 127.113 19.0058L127.111 19.0069Z" fill="#35373A"/>
<path d="M136.722 18.6726H134.789V3.63281H136.722V18.6726Z" fill="#35373A"/>
<path d="M139.865 9.62094C140.875 8.61772 142.241 8.05469 143.665 8.05469C145.088 8.05469 146.454 8.61772 147.464 9.62094C148.424 10.6976 148.954 12.0897 148.954 13.5322C148.954 14.9747 148.424 16.3668 147.464 17.4435C146.454 18.4467 145.088 19.0097 143.665 19.0097C142.241 19.0097 140.875 18.4467 139.865 17.4435C138.905 16.3668 138.375 14.9747 138.375 13.5322C138.375 12.0897 138.905 10.6976 139.865 9.62094ZM141.299 16.233C141.892 16.8578 142.709 17.222 143.57 17.2456C144.431 17.2693 145.267 16.9505 145.893 16.3591C145.937 16.3184 145.98 16.2747 146.02 16.233C146.663 15.4806 147.017 14.5232 147.017 13.5332C147.017 12.5432 146.663 11.5858 146.02 10.8335C145.426 10.2086 144.61 9.84445 143.748 9.8208C142.887 9.79716 142.051 10.116 141.425 10.7073C141.381 10.748 141.338 10.7918 141.299 10.8335C140.653 11.5839 140.299 12.5412 140.301 13.5309C140.303 14.5205 140.66 15.4766 141.308 16.2248L141.299 16.233Z" fill="#35373A"/>
<path d="M159.638 18.6708H157.775V17.2467H157.72C157.388 17.7876 156.919 18.2309 156.36 18.5314C155.78 18.8666 155.121 19.0421 154.451 19.0401C153.907 19.0772 153.361 18.991 152.855 18.7879C152.349 18.5849 151.895 18.2701 151.527 17.8672C150.822 16.9748 150.468 15.8554 150.531 14.7199V8.39062H152.463V14.372C152.463 16.2912 153.311 17.2504 155.006 17.2497C155.383 17.2615 155.757 17.1831 156.097 17.0212C156.437 16.8593 156.733 16.6186 156.961 16.319C157.461 15.6862 157.728 14.9005 157.716 14.0943V8.39775H159.649V18.6708H159.638Z" fill="#35373A"/>
<path d="M166.179 19.0073C165.525 19.0094 164.878 18.8697 164.283 18.5979C163.688 18.326 163.16 17.9285 162.733 17.4326C161.801 16.3461 161.289 14.9619 161.289 13.5305C161.289 12.0991 161.801 10.7149 162.733 9.62839C163.16 9.13289 163.689 8.7356 164.284 8.46378C164.878 8.19197 165.525 8.05208 166.179 8.05371C166.911 8.04248 167.634 8.21527 168.282 8.55623C168.852 8.84231 169.335 9.27661 169.679 9.81353H169.763L169.679 8.3894V3.63281H171.612V18.6726H169.749V17.2485H169.665C169.321 17.7854 168.838 18.2197 168.268 18.5058C167.624 18.8445 166.906 19.0168 166.179 19.0073ZM166.496 17.2475C166.932 17.2538 167.364 17.1674 167.763 16.994C168.163 16.8205 168.521 16.564 168.814 16.2414C169.469 15.4954 169.804 14.5214 169.745 13.5305C169.803 12.5397 169.469 11.5658 168.814 10.8196C168.536 10.5137 168.201 10.2656 167.826 10.0895C167.452 9.91349 167.047 9.8129 166.634 9.79353C166.221 9.77416 165.809 9.8364 165.42 9.97667C165.031 10.117 164.674 10.3325 164.368 10.611C164.295 10.6772 164.225 10.7484 164.159 10.8196C163.835 11.1863 163.585 11.6136 163.425 12.0768C163.266 12.54 163.199 13.0302 163.229 13.5193C163.199 14.0084 163.266 14.4986 163.425 14.9618C163.585 15.4251 163.835 15.8523 164.159 16.2191C164.453 16.5486 164.813 16.8111 165.217 16.9886C165.621 17.1661 166.058 17.2544 166.499 17.2475H166.496Z" fill="#35373A"/>
<path d="M28.5097 9.63638H29.8321L33.6111 5.85735L33.7962 4.25216C31.6311 2.34222 29.0148 1.01562 26.1946 0.397629C23.3743 -0.220364 20.4431 -0.109364 17.6776 0.720149C14.9122 1.54966 12.4038 3.07032 10.3892 5.13853C8.37472 7.20675 6.92056 9.75428 6.16406 12.5406C6.58397 12.3685 7.04918 12.341 7.48647 12.4623L15.0445 11.2151C15.0445 11.2151 15.428 10.5783 15.6294 10.617C17.2489 8.83812 19.4871 7.7456 21.8857 7.56311C24.2844 7.38062 26.6621 8.12196 28.532 9.63536L28.5097 9.63638Z" fill="#35373A"/>
<path d="M38.9997 12.5388C38.1319 9.34012 36.3485 6.46463 33.8688 4.26562L28.566 9.56847C29.671 10.4721 30.5564 11.6149 31.1556 12.9105C31.7547 14.2062 32.0518 15.621 32.0246 17.0482V17.9902C32.6445 17.9902 33.2584 18.1123 33.8312 18.3495C34.404 18.5868 34.9244 18.9345 35.3628 19.3729C35.8012 19.8113 36.1489 20.3317 36.3862 20.9045C36.6234 21.4773 36.7455 22.0912 36.7455 22.7111C36.7455 23.3311 36.6234 23.945 36.3862 24.5178C36.1489 25.0906 35.8012 25.611 35.3628 26.0494C34.9244 26.4878 34.404 26.8355 33.8312 27.0728C33.2584 27.31 32.6445 27.4321 32.0246 27.4321H22.5826L21.6406 28.3873V34.0503L22.5826 34.9922H32.0246C34.6611 35.0117 37.234 34.1822 39.3627 32.6264C41.4914 31.0706 43.0629 28.871 43.8449 26.353C44.6269 23.835 44.5778 21.1322 43.7048 18.6442C42.8319 16.1562 41.1815 14.0152 38.9977 12.5378L38.9997 12.5388Z" fill="#35373A"/>
<path d="M13.1205 34.9325H22.5625V27.3744H13.1205C12.4475 27.3739 11.7825 27.2289 11.1704 26.9492L9.84803 27.3612L6.04256 31.1402L5.71094 32.4626C7.84297 34.0765 10.4466 34.9443 13.1205 34.9325Z" fill="#35373A"/>
<path d="M13.1271 10.4191C10.569 10.4343 8.07955 11.2481 6.00645 12.7468C3.93336 14.2455 2.38017 16.3544 1.56383 18.7788C0.747489 21.2031 0.708778 23.8219 1.4531 26.2694C2.19743 28.7168 3.68761 30.8706 5.7155 32.43L11.1913 26.9542C10.4951 26.6399 9.88559 26.1613 9.41507 25.5596C8.94455 24.9578 8.62707 24.2509 8.48987 23.4995C8.35267 22.7481 8.39985 21.9746 8.62737 21.2454C8.85488 20.5162 9.25594 19.8531 9.79611 19.313C10.3363 18.7729 10.9994 18.372 11.7287 18.1446C12.4579 17.9172 13.2314 17.8701 13.9828 18.0075C14.7342 18.1448 15.4411 18.4624 16.0427 18.933C16.6444 19.4036 17.1229 20.0132 17.4371 20.7094L22.9129 15.2337C21.7647 13.73 20.2838 12.5127 18.5863 11.6772C16.8889 10.8417 15.021 10.4108 13.1291 10.4181L13.1271 10.4191Z" fill="#35373A"/>
<path d="M54.1571 29.071C54.163 29.4514 54.0938 29.8292 53.9536 30.1828C53.8246 30.5036 53.6263 30.792 53.3728 31.0271C53.1048 31.2697 52.7892 31.4537 52.4461 31.5673C52.0226 31.7029 51.5795 31.7672 51.1349 31.7575H50.2031V34.7177C50.2035 34.7495 50.1935 34.7806 50.1746 34.8062C50.1512 34.8344 50.1201 34.8552 50.0851 34.8662C50.0315 34.8843 49.9763 34.8972 49.9203 34.9048C49.7453 34.926 49.5684 34.926 49.3934 34.9048C49.3364 34.8967 49.2803 34.8838 49.2255 34.8662C49.1904 34.8562 49.1594 34.8351 49.137 34.8062C49.1198 34.7799 49.1109 34.7491 49.1116 34.7177V27.1301C49.1049 27.0636 49.1134 26.9964 49.1365 26.9337C49.1596 26.8709 49.1966 26.8143 49.2449 26.768C49.3287 26.6979 49.4347 26.6598 49.5439 26.6602H51.3027C51.4811 26.6602 51.6506 26.6676 51.8113 26.6825C52.0057 26.7024 52.1986 26.734 52.3891 26.7771C52.6284 26.8326 52.8577 26.9249 53.0687 27.0508C53.5234 27.3066 53.8657 27.7236 54.0279 28.2196C54.1174 28.4944 54.161 28.782 54.1571 29.071ZM53.0076 29.1605C53.0177 28.8697 52.9533 28.5812 52.8204 28.3223C52.713 28.117 52.5529 27.9439 52.3566 27.8208C52.1819 27.7144 51.988 27.6432 51.7859 27.6113C51.5957 27.5821 51.4036 27.5671 51.2112 27.5665H50.2031V30.8634H51.1878C51.4672 30.8716 51.7458 30.8285 52.0097 30.7362C52.2159 30.6595 52.4032 30.5395 52.559 30.3843C52.7093 30.2309 52.8242 30.0466 52.8957 29.8441C52.9736 29.6234 53.0115 29.3905 53.0076 29.1564V29.1605Z" fill="#35373A"/>
<path d="M59.7389 34.7283C59.7403 34.75 59.7365 34.7717 59.7276 34.7915C59.7187 34.8114 59.7051 34.8288 59.688 34.8422C59.6463 34.8714 59.5988 34.8912 59.5486 34.9002C59.4627 34.9151 59.3755 34.9215 59.2882 34.9195C59.2 34.9211 59.1118 34.9146 59.0248 34.9002C58.9728 34.8935 58.9234 34.8735 58.8814 34.8422C58.8658 34.8278 58.8538 34.81 58.846 34.7903C58.8383 34.7706 58.835 34.7494 58.8366 34.7283V34.1566C58.5991 34.414 58.316 34.6251 58.0014 34.7791C57.6977 34.9263 57.3644 35.0022 57.0269 35.0009C56.7512 35.0044 56.4767 34.9649 56.2131 34.8839C55.9848 34.8139 55.773 34.6983 55.5906 34.5441C55.4179 34.3945 55.2812 34.2078 55.1908 33.9979C55.0919 33.7652 55.043 33.5142 55.0474 33.2614C55.0402 32.9698 55.1078 32.6813 55.2437 32.4232C55.3793 32.1816 55.5738 31.9782 55.8093 31.8322C56.0872 31.6632 56.3926 31.5441 56.7116 31.4802C57.1064 31.3983 57.5088 31.3591 57.9119 31.3632H58.6993V30.9187C58.7023 30.7219 58.6791 30.5255 58.6301 30.3348C58.5903 30.1778 58.5128 30.0329 58.4043 29.9127C58.2922 29.795 58.1523 29.7075 57.9974 29.6584C57.8 29.5966 57.5938 29.5678 57.387 29.5729C57.1522 29.5699 56.9181 29.6011 56.6923 29.6655C56.5072 29.7192 56.3266 29.7872 56.1521 29.8689C55.9975 29.9432 55.8683 30.0113 55.7645 30.0724C55.6957 30.1212 55.6162 30.1529 55.5326 30.1649C55.5012 30.1656 55.4703 30.1568 55.4441 30.1395C55.4161 30.1197 55.3931 30.0935 55.377 30.0632C55.3558 30.0226 55.342 29.9785 55.3363 29.933C55.3275 29.8755 55.3234 29.8173 55.3241 29.7591C55.322 29.6747 55.3295 29.5904 55.3465 29.5078C55.365 29.4404 55.4024 29.3797 55.4543 29.3328C55.5441 29.2562 55.6432 29.1913 55.7493 29.1396C55.9046 29.0588 56.0662 28.9908 56.2325 28.9361C56.4277 28.8714 56.6272 28.8205 56.8296 28.7835C57.0453 28.7435 57.2643 28.7234 57.4837 28.7235C57.838 28.7156 58.1915 28.7626 58.5314 28.8629C58.7934 28.9403 59.0328 29.0799 59.2292 29.2698C59.4118 29.4578 59.545 29.6881 59.6168 29.9401C59.7024 30.2438 59.7432 30.5584 59.7379 30.874L59.7389 34.7283ZM58.6972 32.118H57.8021C57.5502 32.1144 57.2987 32.1389 57.0524 32.1913C56.8649 32.2298 56.6862 32.303 56.5254 32.4069C56.3954 32.4925 56.2902 32.6107 56.2203 32.7497C56.1511 32.8934 56.1162 33.0511 56.1185 33.2105C56.1118 33.3426 56.1336 33.4745 56.1824 33.5974C56.2312 33.7202 56.3059 33.8311 56.4013 33.9226C56.6211 34.1089 56.9042 34.2033 57.1917 34.1861C57.4611 34.1877 57.7257 34.1152 57.9567 33.9765C58.2337 33.8009 58.483 33.5849 58.6962 33.3357L58.6972 32.118Z" fill="#35373A"/>
<path d="M65.0027 29.3839C65.0027 29.4774 65.0027 29.5558 64.9966 29.6188C64.9949 29.6696 64.9864 29.7199 64.9712 29.7684C64.9616 29.7991 64.9453 29.8272 64.9234 29.8508C64.9127 29.8606 64.9002 29.8682 64.8866 29.8731C64.873 29.878 64.8585 29.8801 64.844 29.8793C64.8013 29.8772 64.7593 29.8676 64.7199 29.8508C64.6711 29.8314 64.6182 29.8121 64.5541 29.7928C64.49 29.7735 64.4239 29.7562 64.3507 29.7389C64.2691 29.7213 64.1859 29.7128 64.1025 29.7134C63.9955 29.7136 63.8897 29.7351 63.7912 29.7765C63.6741 29.8292 63.566 29.8999 63.4708 29.9861C63.3407 30.1031 63.2228 30.2329 63.1188 30.3736C62.9961 30.5344 62.8604 30.731 62.7119 30.9636V34.7274C62.7129 34.7582 62.704 34.7885 62.6865 34.8139C62.6645 34.8405 62.6362 34.8612 62.6041 34.8739C62.5532 34.8939 62.4998 34.9065 62.4454 34.9115C62.3589 34.9213 62.272 34.9257 62.185 34.9247C62.1 34.9256 62.0151 34.9212 61.9307 34.9115C61.8753 34.9063 61.8209 34.8937 61.7689 34.8739C61.7361 34.8625 61.7074 34.8416 61.6865 34.8139C61.6709 34.7878 61.6631 34.7578 61.6642 34.7274V29.0075C61.6632 28.9778 61.6698 28.9484 61.6835 28.922C61.7021 28.8939 61.7286 28.8719 61.7598 28.859C61.8056 28.8377 61.8549 28.825 61.9052 28.8213C62.0606 28.8082 62.2168 28.8082 62.3722 28.8213C62.4217 28.8241 62.4701 28.8369 62.5146 28.859C62.5437 28.8743 62.5688 28.8962 62.5878 28.9231C62.6032 28.9488 62.611 28.9785 62.6102 29.0085V29.8406C62.7422 29.643 62.8899 29.4562 63.0517 29.2821C63.1693 29.1552 63.3002 29.0413 63.4423 28.9424C63.5535 28.865 63.6769 28.8069 63.8075 28.7705C63.9266 28.7388 64.0494 28.7227 64.1726 28.7227C64.2276 28.7227 64.2907 28.7227 64.3598 28.7318C64.4337 28.7387 64.5071 28.7502 64.5796 28.7664C64.6483 28.7819 64.7162 28.8009 64.783 28.8234C64.8296 28.8375 64.8736 28.8592 64.9132 28.8874C64.9341 28.9037 64.9514 28.9242 64.9641 28.9475C64.9739 28.9711 64.9814 28.9956 64.9864 29.0207C64.9941 29.0637 64.9982 29.1072 64.9987 29.1509C64.9987 29.2079 64.9987 29.2852 64.9987 29.3828L65.0027 29.3839Z" fill="#35373A"/>
<path d="M69.1686 34.3044C69.1709 34.4024 69.1623 34.5003 69.1431 34.5963C69.1328 34.6553 69.1064 34.7102 69.0668 34.755C69.0222 34.7959 68.9705 34.8283 68.9143 34.8506C68.8396 34.8827 68.7619 34.9072 68.6823 34.9239C68.5948 34.9429 68.5026 34.9588 68.4056 34.9717C68.3088 34.9844 68.2113 34.9908 68.1137 34.991C67.8545 34.9969 67.5963 34.9574 67.3508 34.874C67.1493 34.8023 66.9699 34.6796 66.8299 34.518C66.6863 34.3424 66.5854 34.1359 66.5349 33.9148C66.4691 33.6328 66.438 33.3438 66.4424 33.0542V29.7126H65.6418C65.6093 29.7119 65.5777 29.7019 65.5507 29.6839C65.5237 29.6659 65.5024 29.6406 65.4892 29.6109C65.4436 29.5073 65.4237 29.3942 65.4312 29.2813C65.4304 29.2131 65.4359 29.145 65.4475 29.0778C65.456 29.0309 65.47 28.9852 65.4892 28.9415C65.5022 28.9095 65.5254 28.8826 65.5553 28.8652C65.5838 28.8501 65.6157 28.8424 65.6479 28.8429H66.4424V27.4838C66.4423 27.4549 66.45 27.4264 66.4647 27.4014C66.4849 27.3714 66.5136 27.348 66.5471 27.3343C66.5987 27.3128 66.6533 27.2991 66.7089 27.2936C66.7933 27.2846 66.8783 27.2805 66.9632 27.2814C67.0502 27.2804 67.1371 27.2845 67.2236 27.2936C67.2783 27.2987 67.3319 27.3125 67.3823 27.3343C67.4151 27.3492 67.4434 27.3724 67.4647 27.4014C67.4813 27.4257 67.4902 27.4544 67.4901 27.4838V28.8429H68.958C68.989 28.8422 69.0195 28.8499 69.0465 28.8652C69.0755 28.884 69.0988 28.9104 69.1136 28.9415C69.1345 28.9845 69.1482 29.0305 69.1543 29.0778C69.1633 29.1453 69.1674 29.2133 69.1665 29.2813C69.174 29.3941 69.1544 29.5071 69.1096 29.6109C69.0963 29.6405 69.075 29.6658 69.048 29.6838C69.021 29.7018 68.9894 29.7118 68.957 29.7126H67.4891V32.9006C67.4707 33.208 67.531 33.515 67.6641 33.7927C67.7296 33.8968 67.8228 33.9805 67.9334 34.0345C68.0439 34.0884 68.1673 34.1103 68.2897 34.0979C68.3773 34.0991 68.4648 34.0895 68.5501 34.0694C68.6264 34.0501 68.6945 34.0308 68.7535 34.0094C68.8125 33.988 68.8634 33.9687 68.9061 33.9494C68.942 33.9318 68.9812 33.9221 69.0211 33.9209C69.0421 33.9212 69.0628 33.9268 69.0811 33.9372C69.1031 33.9508 69.1191 33.9722 69.1258 33.9972C69.1385 34.0367 69.1481 34.0772 69.1543 34.1182C69.1638 34.1798 69.1685 34.2421 69.1686 34.3044Z" fill="#35373A"/>
<path d="M75.4762 34.7215C75.4773 34.7523 75.4684 34.7826 75.4507 34.808C75.4288 34.8346 75.4004 34.8553 75.3683 34.868C75.3175 34.8881 75.2641 34.9008 75.2097 34.9056C75.1252 34.9153 75.0403 34.9197 74.9553 34.9188C74.8684 34.9198 74.7814 34.9154 74.6949 34.9056C74.6405 34.9008 74.5871 34.8881 74.5362 34.868C74.5041 34.8553 74.4758 34.8346 74.4538 34.808C74.4362 34.7826 74.4273 34.7523 74.4284 34.7215V31.3748C74.4348 31.1102 74.4092 30.8459 74.3521 30.5874C74.3084 30.4047 74.2334 30.2309 74.1304 30.0737C74.0357 29.9324 73.9055 29.8184 73.753 29.7431C73.5851 29.6642 73.4013 29.6252 73.2159 29.6292C72.9305 29.6371 72.6549 29.735 72.4285 29.909C72.1172 30.143 71.8393 30.4185 71.6025 30.7278V34.7225C71.6036 34.7533 71.5947 34.7836 71.5771 34.809C71.5552 34.8356 71.5268 34.8563 71.4947 34.869C71.4439 34.889 71.3904 34.9016 71.336 34.9066C71.2496 34.9164 71.1626 34.9208 71.0756 34.9199C70.9906 34.9207 70.9057 34.9163 70.8213 34.9066C70.7659 34.9014 70.7115 34.8888 70.6596 34.869C70.6267 34.8576 70.5981 34.8367 70.5772 34.809C70.5615 34.7829 70.5538 34.7529 70.5548 34.7225V29.0056C70.5538 28.976 70.5604 28.9465 70.5741 28.9202C70.5926 28.8917 70.6191 28.8694 70.6504 28.8561C70.6962 28.8349 70.7455 28.8221 70.7959 28.8185C70.9512 28.8053 71.1074 28.8053 71.2628 28.8185C71.3123 28.8212 71.3608 28.834 71.4052 28.8561C71.4343 28.8714 71.4594 28.8934 71.4784 28.9202C71.4939 28.946 71.5016 28.9756 71.5008 29.0056V29.7614C71.772 29.4428 72.0979 29.1752 72.4631 28.9711C72.7606 28.8095 73.0931 28.7233 73.4315 28.7198C73.7629 28.7094 74.0922 28.7756 74.3938 28.9131C74.6426 29.033 74.8591 29.2105 75.0255 29.4308C75.1913 29.6576 75.309 29.9158 75.3714 30.1897C75.4459 30.5328 75.48 30.8834 75.4731 31.2344V34.7215H75.4762Z" fill="#35373A"/>
<path d="M82.2714 31.6208C82.2779 31.685 82.2702 31.7498 82.2488 31.8107C82.2273 31.8715 82.1927 31.9269 82.1473 31.9728C82.0681 32.0399 81.9673 32.076 81.8635 32.0745H78.0997C78.0965 32.3632 78.1286 32.6512 78.1953 32.932C78.252 33.1711 78.3611 33.3945 78.5147 33.5861C78.6695 33.773 78.8694 33.9173 79.0956 34.0052C79.3747 34.11 79.6714 34.1597 79.9694 34.1517C80.2135 34.1542 80.4572 34.1317 80.6967 34.0846C80.8839 34.0469 81.0684 33.997 81.2491 33.935C81.4044 33.8794 81.5319 33.8296 81.6316 33.7855C81.7023 33.7493 81.7793 33.7268 81.8584 33.7194C81.8865 33.719 81.914 33.7268 81.9377 33.7418C81.9622 33.758 81.9811 33.7815 81.9917 33.8089C82.0069 33.8487 82.0165 33.8905 82.0201 33.933C82.0274 33.9972 82.0308 34.0617 82.0303 34.1263C82.0308 34.1742 82.0288 34.222 82.0242 34.2697C82.0207 34.3059 82.0153 34.3419 82.0079 34.3775C82.0024 34.4076 81.9917 34.4365 81.9764 34.463C81.9607 34.4898 81.9416 34.5144 81.9194 34.5362C81.8567 34.5826 81.7883 34.6208 81.716 34.6501C81.5721 34.7136 81.4235 34.7656 81.2714 34.8058C81.0634 34.8623 80.8526 34.9078 80.6397 34.9421C80.3865 34.9832 80.1303 35.0033 79.8738 35.0021C79.4538 35.0103 79.0356 34.9438 78.6388 34.8058C78.2997 34.6841 77.994 34.484 77.7467 34.2219C77.4938 33.9433 77.3071 33.6113 77.2005 33.2504C77.0702 32.8095 77.0081 32.3512 77.0164 31.8914C77.0101 31.4434 77.0743 30.9971 77.2066 30.569C77.3198 30.2027 77.5067 29.8635 77.7559 29.5721C77.9938 29.3 78.2901 29.0852 78.6226 28.9435C78.9825 28.7928 79.3697 28.718 79.7598 28.7237C80.153 28.7127 80.544 28.7862 80.9063 28.9394C81.2062 29.0717 81.4723 29.2703 81.6845 29.5202C81.8916 29.7719 82.044 30.0639 82.132 30.3778C82.2289 30.7199 82.2768 31.074 82.2744 31.4296V31.6208H82.2714ZM81.2175 31.3095C81.2562 30.8472 81.1253 30.3866 80.8493 30.0136C80.7071 29.8525 80.5298 29.7262 80.331 29.6447C80.1322 29.5632 79.9172 29.5286 79.7029 29.5436C79.4668 29.5386 79.2328 29.5884 79.0193 29.6891C78.8295 29.7817 78.6616 29.9139 78.5269 30.0767C78.3921 30.2438 78.2886 30.4341 78.2218 30.6382C78.1489 30.8545 78.1082 31.0804 78.1007 31.3085L81.2175 31.3095Z" fill="#35373A"/>
<path d="M87.2058 29.3839C87.2058 29.4774 87.2059 29.5558 87.1997 29.6188C87.1981 29.6696 87.1895 29.7199 87.1743 29.7684C87.1647 29.7991 87.1484 29.8272 87.1265 29.8508C87.1159 29.8606 87.1034 29.8682 87.0897 29.8731C87.0761 29.878 87.0616 29.8801 87.0472 29.8793C87.0044 29.8772 86.9624 29.8676 86.9231 29.8508C86.8742 29.8314 86.8213 29.8121 86.7573 29.7928C86.6932 29.7735 86.627 29.7562 86.5538 29.7389C86.4723 29.7213 86.389 29.7128 86.3056 29.7134C86.1987 29.7136 86.0929 29.7351 85.9943 29.7765C85.8772 29.8292 85.7691 29.8999 85.6739 29.9861C85.5438 30.1031 85.4259 30.2329 85.3219 30.3736C85.1992 30.5344 85.0636 30.731 84.915 30.9636V34.7274C84.9161 34.7582 84.9072 34.7885 84.8896 34.8139C84.8677 34.8405 84.8393 34.8612 84.8072 34.8739C84.7564 34.8939 84.7029 34.9065 84.6485 34.9115C84.5621 34.9213 84.4751 34.9257 84.3881 34.9247C84.3032 34.9256 84.2182 34.9212 84.1338 34.9115C84.0784 34.9063 84.024 34.8937 83.9721 34.8739C83.9393 34.8625 83.9106 34.8416 83.8897 34.8139C83.874 34.7878 83.8663 34.7578 83.8673 34.7274V29.0075C83.8663 28.9778 83.873 28.9484 83.8866 28.922C83.9052 28.8939 83.9318 28.8719 83.9629 28.859C84.0087 28.8377 84.058 28.825 84.1084 28.8213C84.2637 28.8082 84.4199 28.8082 84.5753 28.8213C84.6248 28.8241 84.6733 28.8369 84.7177 28.859C84.7468 28.8743 84.7719 28.8962 84.7909 28.9231C84.8064 28.9488 84.8142 28.9785 84.8133 29.0085V29.8406C84.9454 29.643 85.093 29.4562 85.2548 29.2821C85.3724 29.1552 85.5034 29.0413 85.6454 28.9424C85.7566 28.865 85.8801 28.8068 86.0106 28.7705C86.1298 28.7388 86.2525 28.7227 86.3758 28.7227C86.4307 28.7227 86.4938 28.7227 86.563 28.7318C86.6369 28.7387 86.7103 28.7502 86.7827 28.7664C86.8514 28.7819 86.9193 28.8009 86.9861 28.8234C87.0327 28.8375 87.0767 28.8592 87.1163 28.8874C87.1372 28.9037 87.1546 28.9242 87.1672 28.9475C87.1771 28.9711 87.1846 28.9956 87.1896 29.0207C87.1972 29.0637 87.2013 29.1072 87.2018 29.1509C87.2018 29.2079 87.2018 29.2852 87.2018 29.3828L87.2058 29.3839Z" fill="#35373A"/>
</svg>
