<svg width="24" height="21" viewBox="0 0 24 21" fill="none" xmlns="http://www.w3.org/2000/svg">
<path d="M22.895 4.20825L12.2797 1.00979C12.0981 0.95507 11.9017 0.95507 11.7201 1.00979L1.10485 4.20825C0.928709 4.26132 0.775508 4.36315 0.666951 4.49931C0.558395 4.63547 0.499986 4.79905 0.5 4.96688V12.963C0.5 13.1751 0.593199 13.3785 0.759096 13.5284C0.924992 13.6784 1.15 13.7626 1.38461 13.7626C1.61922 13.7626 1.84422 13.6784 2.01012 13.5284C2.17602 13.3785 2.26922 13.1751 2.26922 12.963V6.07635L5.98346 7.19481C4.99664 8.63591 4.68283 10.3721 5.11095 12.0222C5.53906 13.6722 6.67411 15.1013 8.26686 15.9956C6.27649 16.7012 4.55593 17.9776 3.29757 19.7228C3.23213 19.8107 3.18667 19.9095 3.16384 20.0134C3.14101 20.1174 3.14127 20.2244 3.16459 20.3282C3.18792 20.4321 3.23385 20.5307 3.29971 20.6184C3.36557 20.706 3.45006 20.781 3.54825 20.8389C3.64644 20.8968 3.75639 20.9364 3.87169 20.9556C3.987 20.9747 4.10536 20.973 4.2199 20.9504C4.33445 20.9278 4.44289 20.8849 4.53892 20.8241C4.63495 20.7634 4.71666 20.6859 4.77929 20.5963C6.44567 18.2855 9.07738 16.9611 11.9999 16.9611C14.9224 16.9611 17.5541 18.2855 19.2205 20.5963C19.3503 20.7706 19.5507 20.8918 19.7785 20.9336C20.0062 20.9754 20.2431 20.9345 20.4377 20.8197C20.6324 20.7049 20.7693 20.5255 20.8188 20.3203C20.8683 20.115 20.8264 19.9004 20.7022 19.7228C19.4439 17.9776 17.7167 16.7012 15.7329 15.9956C17.3242 15.1013 18.4581 13.6732 18.8862 12.0244C19.3142 10.3755 19.0014 8.64049 18.0163 7.1998L22.895 5.73051C23.0711 5.67747 23.2244 5.57565 23.333 5.43949C23.4416 5.30333 23.5 5.13973 23.5 4.97188C23.5 4.80402 23.4416 4.64043 23.333 4.50427C23.2244 4.36811 23.0711 4.26629 22.895 4.21324V4.20825ZM17.3075 10.5642C17.3078 11.3227 17.1091 12.0704 16.7277 12.746C16.3463 13.4217 15.7932 14.0059 15.1136 14.4509C14.4341 14.8959 13.6475 15.1889 12.8184 15.3058C11.9894 15.4228 11.1414 15.3604 10.3442 15.1238C9.54695 14.8872 8.82313 14.4831 8.23212 13.9447C7.64112 13.4062 7.19976 12.7488 6.94427 12.0263C6.68878 11.3039 6.62643 10.5369 6.76234 9.78845C6.89825 9.03998 7.22855 8.3313 7.72614 7.72055L11.7201 8.91997C11.9017 8.97469 12.0981 8.97469 12.2797 8.91997L16.2737 7.72055C16.9457 8.54415 17.3081 9.54077 17.3075 10.5642ZM11.9999 7.32274L4.18218 4.96688L11.9999 2.61102L19.8176 4.96688L11.9999 7.32274Z" fill="#F65428"/>
</svg>
