<svg width="35" height="35" viewBox="0 0 35 35" fill="none" xmlns="http://www.w3.org/2000/svg">
<circle cx="17.5" cy="17.5" r="17.5" fill="#35373A"/>
<path d="M18.4301 16.0531C18.822 15.522 19.3441 15.1007 19.9461 14.8301C20.5481 14.5594 21.2097 14.4484 21.8671 14.5078C22.7123 14.4726 23.5393 14.76 24.1806 15.3118C24.8218 15.8635 25.2294 16.6384 25.3207 17.4794C25.4323 18.1551 25.4924 18.8384 25.5005 19.5233C25.5289 21.2587 25.5005 22.9894 25.5005 24.7296C25.5005 25.3836 25.5005 25.3875 24.8221 25.3875C24.1437 25.3875 23.3628 25.3591 22.6394 25.3875C22.1732 25.408 22.0588 25.2298 22.0628 24.7951V20.1283C22.0697 19.8038 22.0602 19.4792 22.0344 19.1556C21.9121 18.0513 21.3804 17.5204 20.4283 17.5204C20.1955 17.5029 19.9617 17.5339 19.7415 17.6114C19.5214 17.6889 19.3197 17.8112 19.1492 17.9705C18.9787 18.1299 18.8431 18.3229 18.751 18.5374C18.6588 18.7518 18.6122 18.983 18.6139 19.2164C18.5445 20.2506 18.5445 21.2847 18.5279 22.3229V25.0452C18.5279 25.3189 18.4625 25.4538 18.1517 25.4538H15.5287C15.2345 25.4538 15.1406 25.3228 15.1406 25.0452V15.1783C15.1406 14.8919 15.2384 14.7697 15.5287 14.7697H18.0057C18.3213 14.7697 18.4143 14.9172 18.4143 15.2193C18.4104 15.4441 18.4301 15.6816 18.4301 16.0531Z" fill="white"/>
<path d="M9.82031 20.064V15.2576C9.82031 14.8734 9.94732 14.7385 10.3189 14.7464H12.7958C13.1311 14.7464 13.2573 14.8774 13.2573 15.2079V24.973C13.2573 25.3201 13.135 25.4637 12.7753 25.455C11.9581 25.4387 11.1324 25.4387 10.2984 25.455C9.93864 25.455 9.82031 25.328 9.82505 24.973C9.8282 23.3385 9.82031 21.6969 9.82031 20.064Z" fill="white"/>
<path d="M11.5127 9.54761C11.7674 9.54055 12.0209 9.58456 12.2584 9.67704C12.4958 9.76951 12.7123 9.90858 12.8952 10.0861C13.078 10.2635 13.2235 10.4758 13.323 10.7104C13.4225 10.945 13.474 11.1971 13.4745 11.4519C13.4822 11.7113 13.4378 11.9696 13.344 12.2116C13.2501 12.4535 13.1087 12.6742 12.9281 12.8606C12.7474 13.0469 12.5313 13.1952 12.2924 13.2966C12.0535 13.398 11.7967 13.4504 11.5371 13.4508C11.0134 13.4476 10.5118 13.2393 10.1398 12.8707C9.76774 12.5021 9.55491 12.0024 9.54688 11.4787C9.55758 10.9639 9.76921 10.4737 10.1365 10.1129C10.5039 9.75201 10.9978 9.54914 11.5127 9.54761Z" fill="white"/>
</svg>
