<svg width="797" height="35" viewBox="0 0 797 35" fill="none" xmlns="http://www.w3.org/2000/svg">
<g clip-path="url(#clip0_3456_3400)">
<path d="M12.5844 15.4831H11.1397V7.07247C11.1397 6.40924 11.1798 5.60041 11.2599 4.64597H11.2258C11.1354 5.05966 11.0118 5.4654 10.8562 5.85922L6.64835 15.4771H5.94704L1.72921 5.93336C1.56699 5.51777 1.44324 5.08818 1.35952 4.64997H1.32446C1.37055 5.1509 1.39359 5.96575 1.39359 7.09451V15.4831H0V2.96484H1.90955L5.69458 11.6941C5.91676 12.1809 6.10359 12.6831 6.25361 13.1968H6.31372C6.60092 12.3954 6.79863 11.8834 6.90683 11.661L10.77 2.96484H12.5854L12.5844 15.4831Z" fill="#35373A"/>
<path d="M16.6019 15.4845H15.1913V6.54593H16.6019V15.4845ZM16.8423 3.34198C16.8458 3.46645 16.823 3.59025 16.7756 3.70537C16.7281 3.82049 16.657 3.92435 16.5668 4.01022C16.3919 4.17955 16.1584 4.27497 15.9149 4.27665C15.6714 4.27833 15.4367 4.18614 15.2594 4.01923C15.1705 3.93118 15.1009 3.82557 15.055 3.70915C15.0091 3.59272 14.988 3.46802 14.9929 3.34298C14.9915 3.22262 15.0139 3.10318 15.059 2.99157C15.104 2.87995 15.1708 2.77839 15.2554 2.69277C15.3396 2.60324 15.4417 2.53251 15.5552 2.4852C15.6686 2.4379 15.7907 2.41508 15.9136 2.41826C16.0357 2.41679 16.1569 2.43971 16.27 2.48567C16.3832 2.53163 16.486 2.59972 16.5725 2.68593C16.659 2.77215 16.7274 2.87476 16.7738 2.98776C16.8201 3.10075 16.8434 3.22186 16.8423 3.34398" fill="#35373A"/>
<path d="M24.9557 15.0756C24.2247 15.5075 23.387 15.7252 22.5383 15.7038C21.7796 15.7154 21.032 15.5208 20.3752 15.1407C19.7345 14.7648 19.2161 14.2116 18.8825 13.5478C18.5199 12.8313 18.337 12.0374 18.3495 11.2345C18.2871 9.92966 18.736 8.65195 19.6008 7.67286C20.028 7.22358 20.5466 6.87111 21.1216 6.63918C21.6966 6.40725 22.3146 6.30127 22.934 6.32836C23.6401 6.31441 24.3393 6.47004 24.9728 6.78221V8.24893C24.3633 7.79847 23.6267 7.55292 22.8689 7.54763C22.4477 7.53522 22.0291 7.61785 21.6442 7.78938C21.2594 7.96092 20.9181 8.21695 20.6457 8.53847C20.0546 9.25779 19.75 10.1701 19.7902 11.1002C19.7404 11.9967 20.0305 12.8789 20.6027 13.5708C20.8773 13.8729 21.2151 14.1109 21.592 14.2677C21.969 14.4246 22.3758 14.4966 22.7837 14.4785C23.5719 14.4718 24.3352 14.2013 24.9517 13.7101V15.0716" fill="#35373A"/>
<path d="M31.2342 7.99486C31.0243 7.8623 30.7901 7.7728 30.5453 7.73156C30.3005 7.69033 30.0499 7.6982 29.8082 7.75469C29.5664 7.81119 29.3383 7.91519 29.1372 8.06065C28.936 8.20611 28.7657 8.39013 28.6363 8.60199C28.2184 9.30367 28.015 10.1124 28.0512 10.9283V15.4848H26.6406V6.54517H28.0512V8.38759H28.0853C28.2451 7.82645 28.5572 7.32052 28.987 6.92587C29.3703 6.57682 29.8711 6.38507 30.3896 6.38888C30.6756 6.37643 30.9614 6.4179 31.2322 6.5111V7.99486" fill="#35373A"/>
<path d="M38.6636 11.0313C38.7246 10.111 38.4647 9.1979 37.9282 8.44754C37.6714 8.14447 37.3477 7.90524 36.9825 7.74876C36.6174 7.59228 36.2209 7.52282 35.8243 7.54587C35.4196 7.52744 35.0159 7.60068 34.6435 7.76011C34.271 7.91953 33.9394 8.16103 33.6733 8.46657C33.1041 9.20797 32.8229 10.1306 32.8819 11.0634C32.8287 11.9679 33.112 12.86 33.6773 13.568C33.9458 13.868 34.2776 14.1046 34.6488 14.2605C35.02 14.4165 35.4212 14.4879 35.8233 14.4697C36.2189 14.4935 36.6147 14.4255 36.9797 14.271C37.3446 14.1165 37.6689 13.8797 37.9272 13.5791C38.4604 12.8372 38.7189 11.9329 38.6586 11.0213M40.1033 10.9692C40.1631 12.2222 39.7363 13.4499 38.9121 14.3956C38.5043 14.8293 38.0075 15.1696 37.4559 15.3934C36.9043 15.6172 36.3108 15.719 35.7161 15.692C35.1375 15.7183 34.5601 15.6199 34.0228 15.4035C33.4856 15.1871 33.0011 14.8577 32.6023 14.4377C31.7983 13.5234 31.3805 12.3327 31.4372 11.1165C31.3667 9.83702 31.7952 8.58007 32.6324 7.60998C33.0579 7.17284 33.572 6.8318 34.1401 6.60975C34.7083 6.3877 35.3174 6.28979 35.9265 6.32259C36.4983 6.29235 37.0697 6.38813 37.6003 6.60316C38.1309 6.81818 38.6078 7.14719 38.9972 7.5669C39.7806 8.52336 40.1767 9.73886 40.1073 10.9732" fill="#35373A"/>
<path d="M46.6532 13.0923C46.663 13.4535 46.5884 13.812 46.4354 14.1393C46.2823 14.4666 46.0551 14.7537 45.7716 14.9778C45.1001 15.4882 44.2697 15.7447 43.4272 15.7021C42.6637 15.7194 41.9094 15.5327 41.2422 15.1611V13.6242C41.8785 14.1733 42.6901 14.4767 43.5304 14.4798C44.6485 14.4798 45.2076 14.0637 45.2076 13.2315C45.2132 13.079 45.1871 12.9269 45.1309 12.7849C45.0746 12.643 44.9895 12.5143 44.8809 12.407C44.427 12.0533 43.9263 11.764 43.3932 11.5474C42.7677 11.3145 42.2033 10.9428 41.7421 10.4604C41.3695 9.94894 41.2032 9.31585 41.2766 8.68731C41.3499 8.05877 41.6575 7.48096 42.1379 7.06907C42.7659 6.5594 43.5578 6.29554 44.366 6.32669C45.0179 6.31733 45.663 6.46075 46.2495 6.74547V8.18615C45.6724 7.76017 44.971 7.53623 44.2538 7.54896C43.8503 7.52982 43.4529 7.65363 43.1317 7.89861C42.9953 8.00529 42.8858 8.14239 42.8119 8.29895C42.7379 8.45551 42.7017 8.6272 42.7059 8.80029C42.6949 8.96653 42.7182 9.13326 42.7744 9.2901C42.8306 9.44695 42.9184 9.59055 43.0325 9.71198C43.4392 10.0347 43.8952 10.2898 44.383 10.4674C45.0464 10.713 45.6481 11.1004 46.1463 11.6025C46.4929 12.021 46.6737 12.5522 46.6542 13.0953" fill="#35373A"/>
<path d="M54.8345 11.0313C54.8954 10.111 54.6356 9.1979 54.0991 8.44754C53.8423 8.14447 53.5185 7.90524 53.1534 7.74876C52.7883 7.59228 52.3918 7.52282 51.9952 7.54587C51.5905 7.52744 51.1868 7.60068 50.8144 7.76011C50.4419 7.91953 50.1103 8.16103 49.8442 8.46657C49.275 9.20797 48.9938 10.1306 49.0527 11.0634C48.9995 11.9679 49.2829 12.86 49.8482 13.568C50.1167 13.868 50.4485 14.1046 50.8197 14.2605C51.1908 14.4165 51.592 14.4879 51.9942 14.4697C52.3898 14.4935 52.7856 14.4255 53.1505 14.271C53.5155 14.1165 53.8398 13.8797 54.0981 13.5791C54.6312 12.8372 54.8898 11.9329 54.8295 11.0213M56.2742 10.9692C56.334 12.2222 55.9071 13.4499 55.0829 14.3956C54.6751 14.8293 54.1784 15.1696 53.6268 15.3934C53.0752 15.6172 52.4817 15.719 51.887 15.692C51.3086 15.7182 50.7313 15.6197 50.1942 15.4033C49.6572 15.1869 49.1729 14.8576 48.7742 14.4377C47.9702 13.5234 47.5525 12.3327 47.6091 11.1165C47.5386 9.83702 47.967 8.58007 48.8043 7.60998C49.2297 7.17284 49.7438 6.8318 50.312 6.60975C50.8802 6.3877 51.4893 6.28979 52.0984 6.32259C52.6701 6.29235 53.2415 6.38813 53.7722 6.60316C54.3028 6.81818 54.7797 7.14719 55.1691 7.5669C55.9525 8.52336 56.3486 9.73886 56.2791 10.9732" fill="#35373A"/>
<path d="M62.0593 3.50942C61.7729 3.34958 61.4494 3.26835 61.1215 3.27398C60.135 3.27398 59.6418 3.90549 59.6418 5.1685V6.54806H61.7066V7.76131H59.6418V15.4867H58.2312V7.76031H56.7344V6.54706H58.2312V5.09837C58.1936 4.28798 58.4781 3.49563 59.0226 2.89427C59.2794 2.61976 59.5917 2.40308 59.9388 2.25866C60.2858 2.11424 60.6596 2.0454 61.0354 2.05672C61.3836 2.04327 61.7311 2.09667 62.0593 2.21401V3.50942Z" fill="#35373A"/>
<path d="M67.1816 15.3987C66.7723 15.6072 66.3161 15.7066 65.8571 15.6872C64.321 15.6872 63.5529 14.8086 63.5529 13.0513V7.76151H62.0391V6.54725H63.5529V4.3652L64.9635 3.90234V6.54725H67.1826V7.76051H64.9635V12.8059C64.9237 13.2532 65.0291 13.7015 65.264 14.0843C65.3907 14.2202 65.5469 14.3252 65.7207 14.391C65.8944 14.4569 66.081 14.4818 66.2659 14.464C66.5932 14.4712 66.9137 14.3702 67.1776 14.1764V15.3987" fill="#35373A"/>
<path d="M20.54 24.0221C20.54 22.3637 19.5766 21.5345 17.6496 21.5345H15.9545V26.667H17.4683C18.286 26.7222 19.0959 26.4787 19.7475 25.9817C20.0172 25.7348 20.2282 25.4306 20.3652 25.0915C20.5021 24.7525 20.5625 24.3871 20.54 24.0221ZM22.0528 23.944C22.0738 24.4926 21.9743 25.0391 21.7612 25.545C21.5481 26.051 21.2267 26.5041 20.8195 26.8724C19.9206 27.6417 18.7624 28.0397 17.5805 27.9855H15.9545V32.7253H14.5078V20.208H17.8971C19.0064 20.138 20.1014 20.4885 20.9638 21.1898C21.3343 21.5424 21.6235 21.9714 21.8114 22.447C21.9993 22.9226 22.0823 23.4334 22.0528 23.944Z" fill="#35373A"/>
<path d="M28.0068 28.201L25.8739 28.5016C25.3261 28.54 24.7981 28.7221 24.343 29.0296C24.1852 29.1848 24.064 29.3732 23.9881 29.5812C23.9122 29.7891 23.8835 30.0114 23.9042 30.2318C23.8964 30.4355 23.9349 30.6384 24.0168 30.8251C24.0987 31.0118 24.2219 31.1775 24.3771 31.3098C24.718 31.5893 25.1499 31.7338 25.5904 31.7155C25.9165 31.7241 26.2405 31.6613 26.5398 31.5317C26.8392 31.4021 27.1067 31.2088 27.3236 30.9651C27.7849 30.4511 28.03 29.7789 28.0079 29.0887V28.198M29.4185 32.7194H28.0068V31.3258H27.9728C27.7212 31.8236 27.3333 32.2396 26.8544 32.5255C26.3755 32.8114 25.8253 32.9555 25.2678 32.9408C24.5232 32.9783 23.7929 32.7271 23.229 32.2395C22.9726 31.9984 22.7715 31.7048 22.6393 31.3786C22.5072 31.0524 22.4472 30.7015 22.4636 30.35C22.4636 28.6856 23.432 27.7138 25.369 27.4346L28.0068 27.0529C28.0068 25.5401 27.4017 24.7837 26.1915 24.7837C25.1323 24.7828 24.1098 25.1711 23.3181 25.8747V24.413C23.724 24.1486 24.1719 23.9551 24.6426 23.8409C25.1832 23.6712 25.7452 23.5788 26.3117 23.5664C28.3822 23.5664 29.4175 24.6808 29.4175 26.9096V32.7204" fill="#35373A"/>
<path d="M36.2213 25.2332C36.0114 25.1006 35.7773 25.0111 35.5325 24.9699C35.2877 24.9286 35.0371 24.9365 34.7953 24.993C34.5536 25.0495 34.3255 25.1535 34.1243 25.299C33.9232 25.4444 33.7529 25.6284 33.6235 25.8403C33.2055 26.542 33.0021 27.3507 33.0384 28.1666V32.7231H31.6328V23.7845H33.0434V25.6259H33.0775C33.2373 25.0648 33.5494 24.5588 33.9792 24.1642C34.3626 23.8152 34.8634 23.6235 35.3818 23.6272C35.6678 23.6147 35.9536 23.6561 36.2243 23.7494V25.2332" fill="#35373A"/>
<path d="M42.7988 32.637C42.3895 32.8454 41.9333 32.9448 41.4743 32.9255C39.9382 32.9255 39.1701 32.0469 39.1701 30.2896V24.9998H37.6562V23.7855H39.1701V21.6035L40.5807 21.1406V23.7855H42.7998V24.9988H40.5807V30.0452C40.5408 30.4925 40.6462 30.9408 40.8812 31.3235C41.0078 31.4595 41.1641 31.5646 41.3378 31.6304C41.5116 31.6963 41.6982 31.7212 41.8831 31.7032C42.2104 31.7104 42.5309 31.6094 42.7948 31.4157V32.638" fill="#35373A"/>
<path d="M52.087 32.7217H50.6764V27.6243C50.6764 25.7334 49.9941 24.7877 48.6296 24.787C48.2978 24.7822 47.9692 24.8517 47.6677 24.9904C47.3663 25.1291 47.0996 25.3334 46.8874 25.5885C46.4073 26.1563 46.1571 26.8833 46.1861 27.6263V32.7237H44.7734V23.7831H46.1841V25.2669H46.2181C46.491 24.74 46.907 24.3007 47.4183 23.9994C47.9295 23.6982 48.5153 23.5472 49.1085 23.5637C49.5273 23.5377 49.9462 23.611 50.3312 23.7779C50.7162 23.9447 51.0562 24.2002 51.3236 24.5235C51.8778 25.3191 52.1461 26.2789 52.085 27.2466V32.7197" fill="#35373A"/>
<path d="M59.8705 27.4002C59.9022 26.7099 59.6941 26.0299 59.2814 25.4756C59.0829 25.2456 58.8342 25.0642 58.5546 24.9454C58.275 24.8266 57.9718 24.7735 57.6684 24.7903C57.3545 24.7864 57.0432 24.848 56.7544 24.9711C56.4656 25.0943 56.2057 25.2764 55.9913 25.5057C55.5052 26.0281 55.1979 26.6916 55.1137 27.4002H59.8705ZM61.3152 28.6134H55.0956C55.0606 29.453 55.3416 30.2752 55.8831 30.9177C56.1544 31.1911 56.4806 31.4039 56.8401 31.542C57.1997 31.6801 57.5844 31.7405 57.969 31.7192C58.9641 31.7204 59.9284 31.3746 60.696 30.7414V32.0769C59.7971 32.6921 58.7213 32.9958 57.6333 32.9415C57.0817 32.9705 56.5305 32.8745 56.0212 32.6606C55.5118 32.4467 55.0574 32.1204 54.6919 31.7062C53.937 30.7328 53.561 29.5185 53.6339 28.2888C53.6235 27.4516 53.8044 26.623 54.1629 25.8663C54.4812 25.1756 54.9861 24.5875 55.6206 24.1682C56.2346 23.7686 56.953 23.5595 57.6854 23.5671C58.1872 23.5407 58.6883 23.6288 59.1511 23.8245C59.6138 24.0203 60.0259 24.3187 60.3564 24.6972C61.0446 25.6029 61.3849 26.7256 61.3152 27.861V28.6114" fill="#35373A"/>
<path d="M67.531 25.2332C67.3211 25.1006 67.087 25.0111 66.8422 24.9699C66.5974 24.9287 66.3468 24.9365 66.105 24.993C65.8633 25.0495 65.6352 25.1535 65.434 25.299C65.2329 25.4444 65.0626 25.6285 64.9332 25.8403C64.5153 26.542 64.3119 27.3507 64.3481 28.1666V32.7231H62.9375V23.7845H64.3481V25.6259H64.3832C64.543 25.0648 64.8551 24.5589 65.2849 24.1642C65.6682 23.8151 66.169 23.6233 66.6875 23.6272C66.9738 23.6146 67.26 23.6561 67.531 23.7494V25.2332Z" fill="#35373A"/>
<path d="M74.5234 0V35" stroke="#35373A" stroke-width="0.567462" stroke-miterlimit="10"/>
<path d="M86.2137 12.9032C86.2245 13.1381 86.1797 13.3723 86.0831 13.5868C85.9865 13.8012 85.8407 13.9899 85.6576 14.1375C85.2205 14.4567 84.6863 14.615 84.1458 14.5853C83.8799 14.5805 83.6158 14.5424 83.3594 14.4721C83.1422 14.4236 82.934 14.3415 82.7422 14.2286V13.364C82.9468 13.54 83.1826 13.676 83.4375 13.7648C83.6954 13.8656 83.9691 13.9199 84.246 13.9251C85.0475 13.9251 85.4482 13.6138 85.4482 12.9913C85.4531 12.7434 85.3611 12.5033 85.1917 12.3221C84.8763 12.0293 84.5224 11.7809 84.1398 11.5837C83.7327 11.3773 83.3672 11.0974 83.0618 10.7582C82.8248 10.4346 82.7184 10.0337 82.7635 9.63515C82.8086 9.23662 83.002 8.86965 83.3052 8.60719C83.7087 8.28504 84.2151 8.1199 84.7309 8.14233C85.1513 8.11449 85.5721 8.19053 85.9562 8.36374V9.18026C85.5907 8.9122 85.1446 8.77716 84.6918 8.79755C84.3878 8.78458 84.0885 8.87655 83.8442 9.05803C83.7395 9.13754 83.6553 9.24096 83.5986 9.35965C83.542 9.47834 83.5146 9.60885 83.5187 9.74029C83.513 9.91083 83.5472 10.0803 83.6188 10.2352C83.7028 10.3796 83.8153 10.5054 83.9494 10.6049C84.2001 10.7862 84.4629 10.9502 84.7359 11.0958C85.1705 11.3132 85.5622 11.6075 85.892 11.9644C86.1096 12.2285 86.2267 12.561 86.2226 12.9032" fill="#35373A"/>
<path d="M88.1951 8.42933C88.1965 8.49174 88.1849 8.55376 88.1609 8.61139C88.1369 8.66903 88.1011 8.721 88.0558 8.76395C87.9656 8.84625 87.8478 8.89187 87.7257 8.89187C87.6036 8.89187 87.4858 8.84625 87.3956 8.76395C87.3074 8.67573 87.2578 8.55609 87.2578 8.43133C87.2578 8.30658 87.3074 8.18693 87.3956 8.09871C87.4838 8.0105 87.6034 7.96094 87.7282 7.96094C87.853 7.96094 87.9726 8.0105 88.0608 8.09871C88.1042 8.14095 88.1385 8.19163 88.1616 8.24763C88.1847 8.30363 88.1961 8.36376 88.1951 8.42432M88.0738 14.4685H87.3615V10.0233H88.0738V14.4725" fill="#35373A"/>
<path d="M90.2279 14.473H89.5156V7.88672H90.2279V14.473Z" fill="#35373A"/>
<path d="M95.1625 10.0234L93.3902 14.4727H92.6889L91.0078 10.0234H91.7943L92.9244 13.2514C92.9929 13.4551 93.0422 13.6647 93.0716 13.8776H93.0937C93.118 13.6727 93.1647 13.4712 93.233 13.2765L94.4191 10.0264H95.1665" fill="#35373A"/>
<path d="M99.4773 12.4271H96.3355C96.3181 12.8469 96.4593 13.2579 96.7312 13.5783C96.8702 13.7137 97.0359 13.8188 97.2177 13.8869C97.3994 13.9551 97.5933 13.9847 97.7871 13.974C98.2887 13.9749 98.7752 13.803 99.1647 13.4871V14.1523C98.709 14.4588 98.1664 14.6096 97.6179 14.5821C97.3403 14.5971 97.0628 14.55 96.8058 14.4441C96.5487 14.3382 96.3186 14.1762 96.1321 13.97C95.752 13.4866 95.562 12.8807 95.5981 12.2668C95.593 11.851 95.6839 11.4396 95.8636 11.0646C96.0261 10.7189 96.2818 10.4254 96.602 10.217C96.9129 10.0174 97.2754 9.91292 97.6449 9.91648C97.8974 9.90291 98.1498 9.9467 98.3829 10.0446C98.6161 10.1424 98.8242 10.2918 98.9914 10.4815C99.3403 10.9288 99.5135 11.4883 99.4783 12.0544V12.4281M98.7479 11.827C98.764 11.4829 98.6575 11.1442 98.4474 10.8712C98.3472 10.7558 98.2218 10.6648 98.081 10.6052C97.9402 10.5456 97.7876 10.5191 97.6349 10.5276C97.4767 10.5254 97.3197 10.556 97.1738 10.6174C97.028 10.6788 96.8964 10.7696 96.7873 10.8843C96.5426 11.143 96.3874 11.4735 96.3445 11.827H98.749" fill="#35373A"/>
<path d="M102.828 10.7459C102.614 10.6119 102.356 10.5683 102.11 10.6246C101.864 10.681 101.65 10.8327 101.516 11.0465C101.305 11.3939 101.202 11.7964 101.22 12.2026V14.4708H100.508V10.0246H101.22V10.9413H101.237C101.318 10.6616 101.476 10.4103 101.693 10.2159C101.887 10.0407 102.14 9.94454 102.401 9.94641C102.546 9.94013 102.69 9.96086 102.827 10.0075V10.7459" fill="#35373A"/>
<path d="M110.775 11.2788C110.787 11.8662 110.643 12.4462 110.358 12.96C110.082 13.4422 109.669 13.8322 109.172 14.081C108.625 14.3494 108.022 14.4833 107.413 14.4718H105.766V8.24219H107.486C109.679 8.24219 110.775 9.2544 110.775 11.2788ZM110.011 11.2959C110.011 9.69956 109.163 8.90141 107.469 8.90141H106.496V13.8105H107.422C107.768 13.8323 108.115 13.7855 108.443 13.6729C108.771 13.5603 109.073 13.3841 109.333 13.1543C109.568 12.9076 109.749 12.6152 109.866 12.2953C109.983 11.9753 110.032 11.6348 110.012 11.2949" fill="#35373A"/>
<path d="M115.063 14.4735H114.35V13.7782H114.333C114.217 13.9784 114.059 14.1511 113.87 14.2849C113.681 14.4186 113.465 14.5102 113.238 14.5534C113.011 14.5966 112.777 14.5905 112.552 14.5354C112.327 14.4803 112.116 14.3776 111.935 14.2341C111.806 14.1144 111.704 13.9681 111.638 13.8053C111.571 13.6425 111.54 13.4671 111.548 13.2913C111.548 12.4631 112.038 11.9792 113.017 11.8396L114.35 11.6533C114.35 10.8999 114.045 10.5232 113.434 10.5232C112.9 10.5225 112.384 10.7154 111.982 11.0662V10.3358C112.187 10.2043 112.414 10.1088 112.651 10.0533C112.924 9.9674 113.208 9.92052 113.494 9.91406C114.54 9.91406 115.063 10.4688 115.063 11.5782V14.4715M114.35 12.2213L113.272 12.3736C112.996 12.3925 112.729 12.4841 112.499 12.6391C112.419 12.7152 112.358 12.8083 112.32 12.9113C112.282 13.0144 112.267 13.1248 112.277 13.2342C112.274 13.3363 112.293 13.4378 112.335 13.5312C112.376 13.6245 112.438 13.7073 112.516 13.7732C112.689 13.9116 112.907 13.9827 113.129 13.9736C113.293 13.9782 113.456 13.9472 113.607 13.8827C113.758 13.8181 113.893 13.7217 114.003 13.5999C114.236 13.3461 114.361 13.0109 114.35 12.6662V12.2234" fill="#35373A"/>
<path d="M118.465 14.4297C118.258 14.5335 118.027 14.5828 117.796 14.5729C117.02 14.5729 116.632 14.1354 116.632 13.2605V10.6276H115.867V10.0265H116.632V8.93746L117.344 8.70703V10.0235H118.465V10.6246H117.341V13.1363C117.321 13.3602 117.375 13.5844 117.493 13.7754C117.558 13.843 117.638 13.895 117.726 13.9275C117.814 13.9599 117.908 13.972 118.001 13.9628C118.166 13.9666 118.328 13.9163 118.462 13.8195V14.4277" fill="#35373A"/>
<path d="M122.555 14.4735H121.842V13.7782H121.825C121.709 13.9784 121.551 14.1511 121.362 14.2849C121.173 14.4186 120.958 14.5102 120.73 14.5534C120.503 14.5966 120.269 14.5905 120.044 14.5354C119.819 14.4803 119.609 14.3776 119.427 14.2341C119.298 14.1144 119.197 13.9681 119.13 13.8053C119.063 13.6425 119.032 13.4671 119.04 13.2913C119.04 12.4631 119.53 11.9792 120.509 11.8396L121.842 11.6533C121.842 10.8999 121.537 10.5232 120.926 10.5232C120.392 10.5225 119.876 10.7154 119.474 11.0662V10.3358C119.679 10.2043 119.906 10.1088 120.143 10.0533C120.416 9.96742 120.7 9.92053 120.986 9.91406C122.032 9.91406 122.555 10.4688 122.555 11.5782V14.4715M121.842 12.2213L120.764 12.3736C120.488 12.3925 120.221 12.4841 119.991 12.6391C119.912 12.7152 119.851 12.8083 119.812 12.9113C119.774 13.0144 119.759 13.1248 119.77 13.2342C119.766 13.3363 119.786 13.4378 119.827 13.5312C119.868 13.6245 119.93 13.7073 120.008 13.7732C120.182 13.9116 120.399 13.9827 120.621 13.9736C120.785 13.9782 120.948 13.9472 121.099 13.8827C121.25 13.8181 121.385 13.7217 121.495 13.5999C121.728 13.3461 121.853 13.0109 121.842 12.6662V12.2234" fill="#35373A"/>
<path d="M129.858 10.1023C129.868 10.3767 129.817 10.6498 129.709 10.9022C129.601 11.1546 129.438 11.3799 129.233 11.562C128.777 11.9448 128.193 12.1419 127.599 12.114H126.777V14.4734H126.047V8.24282H127.759C128.318 8.20717 128.87 8.38234 129.306 8.73374C129.493 8.907 129.64 9.11956 129.735 9.35617C129.831 9.59277 129.873 9.84757 129.858 10.1023ZM129.094 10.1414C129.094 9.31582 128.607 8.90305 127.634 8.90305H126.778V11.4578H127.543C127.954 11.4856 128.363 11.3655 128.694 11.1192C128.83 10.9967 128.936 10.8453 129.006 10.676C129.075 10.5067 129.105 10.324 129.095 10.1414" fill="#35373A"/>
<path d="M131.65 14.473H130.938V7.88672H131.65V14.473Z" fill="#35373A"/>
<path d="M136.234 14.4735H135.522V13.7782H135.505C135.389 13.9784 135.231 14.1511 135.042 14.2849C134.853 14.4186 134.637 14.5102 134.41 14.5534C134.182 14.5966 133.948 14.5905 133.724 14.5354C133.499 14.4803 133.288 14.3776 133.107 14.2341C132.978 14.1144 132.876 13.9681 132.809 13.8053C132.743 13.6425 132.712 13.4671 132.72 13.2913C132.72 12.4631 133.21 11.9792 134.189 11.8396L135.522 11.6533C135.522 10.8999 135.217 10.5232 134.605 10.5232C134.072 10.5225 133.556 10.7154 133.154 11.0662V10.3358C133.359 10.2043 133.585 10.1088 133.823 10.0533C134.096 9.9674 134.38 9.92052 134.666 9.91406C135.711 9.91406 136.234 10.4688 136.234 11.5782V14.4715M135.522 12.2213L134.444 12.3736C134.167 12.3925 133.901 12.4841 133.671 12.6391C133.591 12.7152 133.53 12.8082 133.492 12.9113C133.453 13.0143 133.439 13.1248 133.449 13.2342C133.446 13.3363 133.465 13.4379 133.507 13.5313C133.548 13.6247 133.611 13.7074 133.689 13.7732C133.862 13.9116 134.08 13.9827 134.302 13.9736C134.466 13.9782 134.629 13.9472 134.78 13.8827C134.931 13.8181 135.066 13.7217 135.175 13.5999C135.409 13.3461 135.534 13.0109 135.523 12.6662V12.2234" fill="#35373A"/>
<path d="M139.637 14.4297C139.43 14.5335 139.199 14.5828 138.968 14.5729C138.192 14.5729 137.803 14.1354 137.803 13.2605V10.6276H137.039V10.0265H137.803V8.93746L138.516 8.70703V10.0235H139.637V10.6246H138.516V13.1363C138.496 13.3602 138.55 13.5845 138.668 13.7754C138.733 13.843 138.813 13.895 138.901 13.9275C138.989 13.9599 139.083 13.972 139.176 13.9628C139.341 13.9666 139.503 13.9163 139.637 13.8195V14.4277" fill="#35373A"/>
<path d="M142.776 8.51143C142.631 8.43173 142.468 8.39132 142.302 8.39421C141.804 8.39421 141.555 8.70846 141.555 9.33696V10.0232H142.598V10.6244H141.555V14.4695H140.842V10.6244H140.086V10.0232H140.842V9.30189C140.834 9.10196 140.865 8.90227 140.933 8.71433C141.002 8.52639 141.107 8.35392 141.243 8.20686C141.374 8.06984 141.532 7.96191 141.707 7.89009C141.882 7.81828 142.071 7.7842 142.26 7.79008C142.436 7.78336 142.611 7.80987 142.777 7.86823V8.51143" fill="#35373A"/>
<path d="M147.397 12.2337C147.425 12.8579 147.21 13.4688 146.795 13.9368C146.588 14.1529 146.337 14.322 146.059 14.433C145.781 14.5439 145.483 14.594 145.183 14.58C144.891 14.5932 144.6 14.5442 144.328 14.4362C144.056 14.3283 143.81 14.1639 143.607 13.9539C143.203 13.4998 142.992 12.9059 143.019 12.2988C142.984 11.6617 143.2 11.036 143.621 10.5566C143.837 10.3376 144.097 10.1671 144.384 10.0562C144.67 9.94534 144.978 9.89665 145.285 9.91337C145.573 9.89781 145.861 9.94534 146.129 10.0526C146.397 10.1599 146.638 10.3244 146.836 10.5345C147.231 11.0075 147.432 11.6132 147.397 12.2287M146.666 12.2547C146.697 11.7953 146.565 11.3398 146.293 10.9683C146.162 10.8171 145.999 10.698 145.815 10.6204C145.631 10.5427 145.432 10.5085 145.233 10.5205C145.029 10.5112 144.825 10.5477 144.637 10.6275C144.449 10.7072 144.282 10.8282 144.147 10.9814C143.859 11.3477 143.716 11.807 143.746 12.2717C143.719 12.7242 143.862 13.1703 144.147 13.5231C144.284 13.6724 144.452 13.7899 144.64 13.8673C144.828 13.9447 145.03 13.98 145.233 13.9709C145.432 13.9838 145.632 13.9506 145.817 13.8738C146.001 13.797 146.166 13.6787 146.298 13.5281C146.567 13.1603 146.697 12.7094 146.667 12.2547" fill="#35373A"/>
<path d="M150.82 10.7459C150.606 10.6119 150.348 10.5683 150.102 10.6246C149.856 10.681 149.642 10.8327 149.508 11.0465C149.297 11.3939 149.194 11.7964 149.212 12.2026V14.4708H148.5V10.0246H149.212V10.9413H149.229C149.31 10.6616 149.468 10.4103 149.685 10.2159C149.879 10.0407 150.132 9.94454 150.394 9.94641C150.538 9.94013 150.682 9.96086 150.819 10.0075L150.82 10.7459Z" fill="#35373A"/>
<path d="M157.91 14.4751H157.197V11.9204C157.227 11.5491 157.147 11.1772 156.967 10.8514C156.877 10.7372 156.76 10.6475 156.626 10.5906C156.493 10.5337 156.347 10.5114 156.202 10.5258C156.049 10.5276 155.898 10.5665 155.763 10.639C155.627 10.7116 155.511 10.8157 155.425 10.9426C155.21 11.2292 155.099 11.5796 155.107 11.9374V14.4751H154.392V11.8332C154.392 10.9616 154.055 10.5258 153.38 10.5258C153.229 10.5244 153.079 10.5597 152.945 10.6286C152.81 10.6975 152.694 10.798 152.607 10.9215C152.394 11.2168 152.288 11.5752 152.306 11.9384V14.4761H151.594V10.0259H152.306V10.7272H152.323C152.453 10.4758 152.651 10.2662 152.895 10.1224C153.139 9.9787 153.418 9.90668 153.701 9.91466C153.981 9.91154 154.254 9.99672 154.483 10.1581C154.717 10.3237 154.887 10.5645 154.965 10.8404C155.094 10.5588 155.302 10.3211 155.565 10.1566C155.827 9.99215 156.132 9.90804 156.442 9.91466C157.421 9.91466 157.91 10.5201 157.91 11.731V14.4731" fill="#35373A"/>
<path d="M86.2137 25.6922C86.2245 25.9272 86.1797 26.1614 86.0831 26.3758C85.9865 26.5903 85.8407 26.7789 85.6576 26.9265C85.2205 27.2458 84.6863 27.404 84.1458 27.3744C83.8799 27.3695 83.6158 27.3315 83.3594 27.2611C83.1422 27.2127 82.934 27.1305 82.7422 27.0177V26.1531C82.9468 26.3291 83.1826 26.4651 83.4375 26.5538C83.6954 26.6547 83.9691 26.7089 84.246 26.7141C85.0475 26.7141 85.4482 26.4029 85.4482 25.7804C85.4531 25.5324 85.3611 25.2923 85.1917 25.1112C84.8763 24.8183 84.5224 24.5699 84.1398 24.3728C83.7327 24.1663 83.3672 23.8865 83.0618 23.5473C82.8248 23.2236 82.7184 22.8227 82.7635 22.4242C82.8086 22.0257 83.002 21.6587 83.3052 21.3963C83.7087 21.0741 84.2151 20.909 84.7309 20.9314C85.1513 20.9036 85.5721 20.9796 85.9562 21.1528V21.9693C85.5907 21.7013 85.1446 21.5662 84.6918 21.5866C84.3878 21.5736 84.0885 21.6656 83.8442 21.8471C83.7395 21.9266 83.6553 22.03 83.5986 22.1487C83.542 22.2674 83.5146 22.3979 83.5187 22.5294C83.513 22.6999 83.5472 22.8694 83.6188 23.0243C83.7028 23.1687 83.8153 23.2944 83.9494 23.394C84.2001 23.5753 84.4629 23.7393 84.7359 23.8849C85.1705 24.1023 85.5622 24.3966 85.892 24.7535C86.1096 25.0176 86.2267 25.3501 86.2226 25.6922" fill="#35373A"/>
<path d="M88.1951 21.2184C88.1965 21.2808 88.1849 21.3428 88.1609 21.4005C88.1369 21.4581 88.1011 21.5101 88.0558 21.553C87.9656 21.6353 87.8478 21.6809 87.7257 21.6809C87.6036 21.6809 87.4858 21.6353 87.3956 21.553C87.3074 21.4648 87.2578 21.3451 87.2578 21.2204C87.2578 21.0956 87.3074 20.976 87.3956 20.8878C87.4838 20.7996 87.6034 20.75 87.7282 20.75C87.853 20.75 87.9726 20.7996 88.0608 20.8878C88.1042 20.93 88.1385 20.9807 88.1616 21.0367C88.1847 21.0927 88.1961 21.1528 88.1951 21.2134M88.0738 27.2576H87.3615V22.8214H88.0738V27.2706" fill="#35373A"/>
<path d="M90.2279 27.2659H89.5156V20.6797H90.2279V27.2659Z" fill="#35373A"/>
<path d="M95.1625 22.8164L93.3902 27.2657H92.6889L91.0078 22.8164H91.7943L92.9244 26.0444C92.9929 26.2481 93.0422 26.4577 93.0716 26.6706H93.0937C93.118 26.4657 93.1647 26.2641 93.233 26.0694L94.4191 22.8194H95.1665" fill="#35373A"/>
<path d="M99.4773 25.2162H96.3355C96.3181 25.636 96.4593 26.047 96.7312 26.3673C96.8702 26.5028 97.0359 26.6079 97.2177 26.676C97.3994 26.7441 97.5933 26.7738 97.7871 26.7631C98.2887 26.764 98.7752 26.592 99.1647 26.2762V26.9414C98.709 27.2479 98.1664 27.3987 97.6179 27.3712C97.3403 27.3862 97.0628 27.339 96.8058 27.2331C96.5487 27.1272 96.3186 26.9653 96.1321 26.7591C95.752 26.2757 95.562 25.6698 95.5981 25.0559C95.593 24.6401 95.6839 24.2287 95.8636 23.8537C96.0262 23.508 96.2818 23.2145 96.602 23.0061C96.9129 22.8064 97.2754 22.702 97.6449 22.7055C97.8974 22.692 98.1498 22.7358 98.3829 22.8336C98.6161 22.9315 98.8242 23.0809 98.9914 23.2706C99.3403 23.7179 99.5135 24.2773 99.4783 24.8435V25.2172M98.7479 24.6161C98.764 24.272 98.6575 23.9333 98.4474 23.6603C98.3472 23.5448 98.2218 23.4538 98.081 23.3942C97.9402 23.3347 97.7876 23.3081 97.6349 23.3167C97.4767 23.3145 97.3197 23.3451 97.1738 23.4064C97.028 23.4678 96.8964 23.5587 96.7873 23.6733C96.5426 23.9321 96.3874 24.2625 96.3445 24.6161H98.749" fill="#35373A"/>
<path d="M102.828 23.535C102.614 23.401 102.356 23.3574 102.11 23.4137C101.864 23.4701 101.65 23.6218 101.516 23.8355C101.305 24.183 101.202 24.5855 101.22 24.9917V27.2599H100.508V22.8136H101.22V23.7303H101.237C101.318 23.4507 101.476 23.1994 101.693 23.005C101.887 22.8298 102.14 22.7336 102.401 22.7355C102.546 22.7292 102.69 22.7499 102.827 22.7966V23.535" fill="#35373A"/>
<path d="M110.775 24.0718C110.787 24.6591 110.643 25.2391 110.358 25.7529C110.082 26.2352 109.669 26.6252 109.172 26.874C108.625 27.1423 108.022 27.2763 107.413 27.2647H105.766V21.0352H107.486C109.679 21.0352 110.775 22.0474 110.775 24.0718ZM110.011 24.0888C110.011 22.4925 109.163 21.6944 107.469 21.6944H106.496V26.6035H107.422C107.768 26.6252 108.115 26.5785 108.443 26.4659C108.771 26.3533 109.073 26.177 109.333 25.9473C109.568 25.7006 109.749 25.4082 109.866 25.0882C109.983 24.7683 110.032 24.4277 110.012 24.0878" fill="#35373A"/>
<path d="M115.063 27.2635H114.35V26.5682H114.333C114.217 26.7683 114.059 26.9411 113.87 27.0748C113.681 27.2086 113.465 27.3002 113.238 27.3434C113.011 27.3866 112.777 27.3805 112.552 27.3254C112.327 27.2703 112.116 27.1675 111.935 27.024C111.806 26.9044 111.704 26.7581 111.638 26.5953C111.571 26.4325 111.54 26.2571 111.548 26.0813C111.548 25.2531 112.038 24.7692 113.017 24.6296L114.35 24.4423C114.35 23.6889 114.045 23.3122 113.434 23.3122C112.9 23.3114 112.384 23.5044 111.982 23.8552V23.1288C112.187 22.9973 112.414 22.9017 112.651 22.8463C112.924 22.7604 113.208 22.7135 113.494 22.707C114.54 22.707 115.063 23.2617 115.063 24.3711V27.2635ZM114.35 25.0143L113.272 25.1666C112.996 25.1855 112.729 25.277 112.499 25.4321C112.419 25.5082 112.358 25.6012 112.32 25.7043C112.282 25.8073 112.267 25.9177 112.277 26.0272C112.274 26.1292 112.293 26.2308 112.335 26.3241C112.376 26.4175 112.438 26.5003 112.516 26.5662C112.689 26.7046 112.907 26.7757 113.129 26.7666C113.293 26.7712 113.456 26.7401 113.607 26.6756C113.758 26.6111 113.893 26.5146 114.003 26.3929C114.236 26.1391 114.361 25.8039 114.35 25.4591V25.0123" fill="#35373A"/>
<path d="M118.465 27.2226C118.258 27.3265 118.027 27.3758 117.796 27.3659C117.02 27.3659 116.632 26.9284 116.632 26.0535V23.4206H115.867V22.8195H116.632V21.7304L117.344 21.5V22.8164H118.465V23.4176H117.341V25.9322C117.321 26.1562 117.375 26.3804 117.493 26.5714C117.558 26.6388 117.638 26.6906 117.726 26.7229C117.814 26.7552 117.908 26.7671 118.001 26.7578C118.166 26.7615 118.328 26.7112 118.462 26.6145V27.2226" fill="#35373A"/>
<path d="M122.555 27.2635H121.842V26.5682H121.825C121.709 26.7683 121.551 26.9411 121.362 27.0748C121.173 27.2086 120.958 27.3002 120.73 27.3434C120.503 27.3866 120.269 27.3805 120.044 27.3254C119.819 27.2703 119.609 27.1675 119.427 27.024C119.298 26.9044 119.197 26.7581 119.13 26.5953C119.063 26.4325 119.032 26.2571 119.04 26.0813C119.04 25.2531 119.53 24.7692 120.509 24.6296L121.842 24.4423C121.842 23.6889 121.537 23.3122 120.926 23.3122C120.392 23.3114 119.876 23.5044 119.474 23.8552V23.1288C119.679 22.9973 119.906 22.9018 120.143 22.8463C120.416 22.7604 120.7 22.7135 120.986 22.707C122.032 22.707 122.555 23.2617 122.555 24.3711V27.2635ZM121.842 25.0143L120.764 25.1666C120.488 25.1855 120.221 25.277 119.991 25.4321C119.912 25.5082 119.851 25.6012 119.812 25.7043C119.774 25.8073 119.759 25.9177 119.77 26.0272C119.766 26.1292 119.786 26.2308 119.827 26.3241C119.868 26.4175 119.93 26.5003 120.008 26.5662C120.182 26.7046 120.399 26.7757 120.621 26.7666C120.785 26.7712 120.948 26.7401 121.099 26.6756C121.25 26.6111 121.385 26.5146 121.495 26.3929C121.728 26.1391 121.853 25.8039 121.842 25.4591V25.0123" fill="#35373A"/>
<path d="M130.876 27.2657H130.068L129.411 25.5235H126.766L126.144 27.2657H125.336L127.717 21.0352H128.474L130.878 27.2657M129.175 24.8613L128.197 22.2103C128.156 22.0718 128.122 21.931 128.097 21.7886H128.08C128.062 21.9323 128.028 22.0737 127.98 22.2103L127.011 24.8613H129.17" fill="#35373A"/>
<path d="M135.387 27.2644H134.675V24.7266C134.675 23.7856 134.33 23.315 133.641 23.315C133.474 23.3126 133.308 23.3473 133.155 23.4166C133.003 23.4858 132.868 23.588 132.759 23.7158C132.519 23.9966 132.393 24.3581 132.408 24.7277V27.2654H131.695V22.8151H132.408V23.5535H132.425C132.565 23.2904 132.776 23.0717 133.034 22.922C133.292 22.7723 133.586 22.6974 133.884 22.7059C134.095 22.6924 134.306 22.7286 134.5 22.8116C134.694 22.8946 134.866 23.0221 135.001 23.1838C135.282 23.5777 135.419 24.0564 135.388 24.5393V27.2634" fill="#35373A"/>
<path d="M139.867 27.2635H139.155V26.5682H139.138C139.022 26.7683 138.864 26.9411 138.675 27.0748C138.486 27.2086 138.27 27.3002 138.043 27.3434C137.815 27.3866 137.581 27.3805 137.356 27.3254C137.132 27.2703 136.921 27.1675 136.739 27.024C136.61 26.9044 136.509 26.7581 136.442 26.5953C136.375 26.4325 136.345 26.2571 136.353 26.0813C136.353 25.2531 136.842 24.7692 137.821 24.6296L139.155 24.4423C139.155 23.6889 138.849 23.3122 138.238 23.3122C137.705 23.3114 137.189 23.5044 136.787 23.8552V23.1288C136.992 22.9973 137.218 22.9017 137.456 22.8463C137.729 22.7604 138.012 22.7135 138.298 22.707C139.344 22.707 139.867 23.2617 139.867 24.3711V27.2635ZM139.155 25.0143L138.077 25.1666C137.8 25.1855 137.533 25.277 137.304 25.4321C137.224 25.5081 137.163 25.6012 137.125 25.7042C137.086 25.8073 137.072 25.9177 137.082 26.0272C137.078 26.1292 137.098 26.2308 137.139 26.3241C137.181 26.4175 137.243 26.5003 137.321 26.5662C137.494 26.7043 137.711 26.7755 137.933 26.7666C138.097 26.7712 138.26 26.7401 138.411 26.6756C138.561 26.6111 138.696 26.5146 138.806 26.3929C139.04 26.1391 139.165 25.8039 139.154 25.4591V25.0123" fill="#35373A"/>
<path d="M141.915 27.2659H141.203V20.6797H141.915V27.2659Z" fill="#35373A"/>
<path d="M146.903 22.8174L144.858 27.979C144.493 28.8974 143.981 29.3566 143.32 29.3566C143.164 29.36 143.007 29.3424 142.855 29.3045V28.6653C142.989 28.7143 143.13 28.7407 143.272 28.7434C143.458 28.737 143.637 28.6716 143.783 28.5567C143.929 28.4418 144.035 28.2833 144.085 28.1042L144.441 27.2567L142.703 22.8164H143.499L144.701 26.2398L144.792 26.5784H144.818C144.829 26.5116 144.858 26.4031 144.905 26.2528L146.17 22.8164H146.908" fill="#35373A"/>
<path d="M149.723 27.2226C149.516 27.3265 149.285 27.3758 149.054 27.3659C148.277 27.3659 147.889 26.9284 147.889 26.0535V23.4206H147.125V22.8195H147.889V21.7304L148.602 21.5V22.8164H149.723V23.4176H148.602V25.9322C148.582 26.1562 148.635 26.3804 148.754 26.5714C148.819 26.6388 148.899 26.6906 148.987 26.7229C149.075 26.7552 149.169 26.7671 149.262 26.7578C149.427 26.7615 149.589 26.7112 149.723 26.6145V27.2226Z" fill="#35373A"/>
<path d="M151.5 21.2184C151.501 21.2808 151.49 21.3428 151.466 21.4005C151.442 21.4581 151.406 21.5101 151.36 21.553C151.27 21.6353 151.153 21.6809 151.03 21.6809C150.908 21.6809 150.791 21.6353 150.7 21.553C150.612 21.4648 150.562 21.3451 150.562 21.2204C150.562 21.0956 150.612 20.976 150.7 20.8878C150.788 20.7996 150.908 20.75 151.033 20.75C151.158 20.75 151.277 20.7996 151.366 20.8878C151.409 20.93 151.443 20.9807 151.466 21.0367C151.489 21.0927 151.501 21.1528 151.5 21.2134M151.379 27.2576H150.666V22.8214H151.379V27.2706" fill="#35373A"/>
<path d="M155.817 27.0594C155.446 27.2746 155.023 27.3828 154.595 27.372C154.212 27.3776 153.834 27.2815 153.5 27.0934C153.179 26.9053 152.918 26.6293 152.749 26.298C152.566 25.9422 152.473 25.5468 152.479 25.1468C152.449 24.4962 152.675 23.8597 153.11 23.3745C153.327 23.1502 153.59 22.9746 153.881 22.8593C154.172 22.7439 154.483 22.6915 154.796 22.7053C155.152 22.6983 155.505 22.7759 155.826 22.9317V23.6621C155.517 23.4384 155.147 23.3168 154.766 23.3144C154.553 23.3078 154.342 23.3489 154.147 23.4345C153.952 23.5201 153.779 23.6482 153.64 23.8093C153.344 24.1655 153.19 24.6195 153.211 25.0827C153.186 25.5295 153.332 25.9688 153.619 26.312C153.76 26.4625 153.931 26.5809 154.121 26.6589C154.311 26.7369 154.516 26.7727 154.722 26.7638C155.119 26.7603 155.504 26.6258 155.817 26.3811V27.0594Z" fill="#35373A"/>
<path d="M159.318 26.0756C159.322 26.2563 159.284 26.4354 159.206 26.5985C159.129 26.7616 159.013 26.9041 158.87 27.0143C158.53 27.2691 158.112 27.3968 157.688 27.375C157.303 27.3834 156.923 27.2904 156.586 27.1055V26.3371C156.909 26.6109 157.319 26.7618 157.742 26.7629C158.307 26.7629 158.59 26.5558 158.59 26.1417C158.593 26.0658 158.579 25.99 158.551 25.9196C158.522 25.8491 158.479 25.7855 158.424 25.7329C158.195 25.5551 157.942 25.4104 157.673 25.3032C157.358 25.1879 157.073 25.0038 156.838 24.7642C156.65 24.5099 156.566 24.1934 156.604 23.8794C156.641 23.5653 156.797 23.2773 157.039 23.074C157.358 22.8202 157.757 22.689 158.164 22.7043C158.493 22.6995 158.819 22.7708 159.116 22.9127V23.632C158.823 23.4195 158.469 23.308 158.108 23.3145C157.904 23.3047 157.703 23.366 157.539 23.4878C157.471 23.5406 157.416 23.6086 157.379 23.6864C157.342 23.7641 157.323 23.8495 157.325 23.9356C157.32 24.0189 157.332 24.1023 157.36 24.1808C157.389 24.2592 157.433 24.3309 157.491 24.3915C157.697 24.5508 157.927 24.6769 158.173 24.7652C158.507 24.8868 158.811 25.0796 159.064 25.3302C159.238 25.5376 159.33 25.8026 159.32 26.0736" fill="#35373A"/>
</g>
<mask id="mask0_3456_3400" style="mask-type:luminance" maskUnits="userSpaceOnUse" x="189" y="0" width="148" height="24">
<path d="M336.322 0H189.32V23.5853H336.322V0Z" fill="white"/>
</mask>
<g mask="url(#mask0_3456_3400)">
<path d="M205.002 7.03491V4.90868C205.249 4.89556 205.497 4.88244 205.745 4.88244C212.618 4.69869 217.123 9.89611 217.123 9.89611C217.123 9.89611 212.262 15.6185 207.045 15.6185C206.348 15.6185 205.667 15.5267 205.017 15.3429V8.8855C207.695 9.16111 208.237 10.1586 209.831 12.4292L213.407 9.88298C213.407 9.88298 210.791 6.9824 206.395 6.9824C205.93 6.96928 205.466 6.99553 205.002 7.03491ZM205.002 0V3.17621L205.745 3.13683C215.296 2.86122 221.534 9.77801 221.534 9.77801C221.534 9.77801 214.383 17.1541 206.937 17.1541C206.286 17.1541 205.652 17.1017 205.017 17.0097V18.9785C205.543 19.031 206.085 19.0704 206.612 19.0704C213.547 19.0704 218.562 16.0648 223.423 12.5211C224.228 13.0723 227.525 14.398 228.206 14.9755C223.593 18.2566 212.835 20.8947 206.735 20.8947C206.147 20.8947 205.59 20.8685 205.033 20.816V23.5853H231.38V0H205.002ZM205.002 15.3429V17.0229C198.593 16.0516 196.813 10.3949 196.813 10.3949C196.813 10.3949 199.893 7.5074 205.002 7.03491V8.87236H204.986C202.308 8.59675 200.203 10.7229 200.203 10.7229C200.203 10.7229 201.395 14.306 205.002 15.3429ZM193.624 10.1586C193.624 10.1586 197.416 5.40742 205.017 4.90868V3.17621C196.596 3.75369 189.32 9.79114 189.32 9.79114C189.32 9.79114 193.438 19.8972 205.002 20.816V18.9785C196.519 18.086 193.624 10.1586 193.624 10.1586Z" fill="#35373A"/>
<path d="M279.323 4.06141V19.5487H284.478V4.06141H279.323ZM238.766 4.03516V19.5356H243.967V7.50011L248.023 7.51324C249.354 7.51324 250.283 7.78886 250.918 8.36638C251.738 9.10138 252.063 10.2957 252.063 12.4613V19.5356H257.109V10.9782C257.109 4.86203 252.512 4.03516 248.023 4.03516H238.766ZM287.636 4.06141V19.5487H295.995C300.454 19.5487 301.909 18.9187 303.472 17.5143C304.587 16.53 305.299 14.3513 305.299 11.9757C305.299 9.79698 304.695 7.85448 303.627 6.647C301.739 4.4814 298.983 4.06141 294.865 4.06141H287.636ZM292.745 7.42136H294.958C298.178 7.42136 300.253 8.64199 300.253 11.8182C300.253 14.9944 298.178 16.2281 294.958 16.2281H292.745V7.42136ZM271.893 4.06141L267.59 16.3331L263.472 4.06141H257.899L263.781 19.5487H271.212L277.156 4.06141H271.893ZM307.714 19.5487H312.869V4.06141H307.714V19.5487ZM322.172 4.06141L314.974 19.5356H320.051L321.197 16.7925H329.712L330.795 19.5224H336.321L329.062 4.06141H322.172ZM325.516 6.88325L328.643 14.1282H322.297L325.516 6.88325Z" fill="#35373A"/>
</g>
<path d="M193.372 26.6787V34.8875H192.18V26.6787H193.372ZM203.574 26.6787V34.8875H202.419L197.052 28.4422H196.956V34.8875H195.764V26.6787H196.918L202.304 33.14H202.4V26.6787H203.574ZM213.885 29.2439H212.693C212.622 28.9581 212.499 28.7069 212.323 28.4904C212.149 28.274 211.938 28.0922 211.688 27.9453C211.441 27.7956 211.167 27.6834 210.865 27.6085C210.564 27.5337 210.25 27.4964 209.923 27.4964C209.326 27.4964 208.786 27.622 208.302 27.8732C207.821 28.1243 207.438 28.4944 207.153 28.9834C206.871 29.4725 206.73 30.0723 206.73 30.7831C206.73 31.4939 206.871 32.0938 207.153 32.5828C207.438 33.0718 207.821 33.4419 208.302 33.693C208.786 33.9442 209.326 34.0698 209.923 34.0698C210.25 34.0698 210.564 34.0325 210.865 33.9576C211.167 33.8828 211.441 33.772 211.688 33.6249C211.938 33.4753 212.149 33.2922 212.323 33.0758C212.499 32.8567 212.622 32.6055 212.693 32.3223H213.885C213.796 32.7418 213.632 33.1172 213.395 33.4486C213.158 33.78 212.863 34.0618 212.51 34.2943C212.157 34.5241 211.761 34.6991 211.322 34.8194C210.886 34.9397 210.42 34.9998 209.923 34.9998C209.083 34.9998 208.336 34.8287 207.682 34.4867C207.028 34.1446 206.513 33.6584 206.138 33.0277C205.763 32.3971 205.575 31.6488 205.575 30.7831C205.575 29.9173 205.763 29.1691 206.138 28.5385C206.513 27.9078 207.028 27.4216 207.682 27.0795C208.336 26.7375 209.083 26.5664 209.923 26.5664C210.42 26.5664 210.886 26.6265 211.322 26.7468C211.761 26.8671 212.157 27.0434 212.51 27.2759C212.863 27.5057 213.158 27.7862 213.395 28.1176C213.632 28.4463 213.796 28.8217 213.885 29.2439ZM215.813 34.8875V26.6787H221.757V27.5605H217.005V30.3342H221.449V31.216H217.005V34.0057H221.834V34.8875H215.813ZM223.906 34.8875V26.6787H227.234C228.007 26.6787 228.638 26.7949 229.129 27.0273C229.623 27.2572 229.988 27.5685 230.225 27.9613C230.463 28.3541 230.581 28.7923 230.581 29.276C230.581 29.7597 230.463 30.1992 230.225 30.5947C229.991 30.9902 229.629 31.3055 229.139 31.5407C228.648 31.7731 228.02 31.8893 227.253 31.8893H224.868V31.0076H227.215C227.744 31.0076 228.169 30.9314 228.489 30.7791C228.81 30.6268 229.042 30.421 229.187 30.1618C229.334 29.8999 229.408 29.6047 229.408 29.276C229.408 28.9473 229.334 28.6534 229.187 28.3942C229.042 28.135 228.808 27.932 228.485 27.7849C228.161 27.6353 227.731 27.5605 227.196 27.5605H225.099V34.8875H223.906ZM231.964 27.5605V26.6787H239.351V27.5605H236.254V34.8875H235.061V27.5605H231.964ZM242.384 26.6787V34.8875H241.191V26.6787H242.384ZM253.085 30.7831C253.085 31.6488 252.898 32.3971 252.523 33.0277C252.148 33.6584 251.633 34.1446 250.979 34.4867C250.325 34.8287 249.578 34.9998 248.738 34.9998C247.898 34.9998 247.151 34.8287 246.497 34.4867C245.843 34.1446 245.328 33.6584 244.953 33.0277C244.578 32.3971 244.391 31.6488 244.391 30.7831C244.391 29.9173 244.578 29.1691 244.953 28.5385C245.328 27.9078 245.843 27.4216 246.497 27.0795C247.151 26.7375 247.898 26.5664 248.738 26.5664C249.578 26.5664 250.325 26.7375 250.979 27.0795C251.633 27.4216 252.148 27.9078 252.523 28.5385C252.898 29.1691 253.085 29.9173 253.085 30.7831ZM251.931 30.7831C251.931 30.0723 251.788 29.4725 251.503 28.9834C251.221 28.4944 250.838 28.1243 250.354 27.8732C249.873 27.622 249.334 27.4964 248.738 27.4964C248.142 27.4964 247.601 27.622 247.117 27.8732C246.636 28.1243 246.253 28.4944 245.968 28.9834C245.686 29.4725 245.545 30.0723 245.545 30.7831C245.545 31.4939 245.686 32.0938 245.968 32.5828C246.253 33.0718 246.636 33.4419 247.117 33.693C247.601 33.9442 248.142 34.0698 248.738 34.0698C249.334 34.0698 249.873 33.9442 250.354 33.693C250.838 33.4419 251.221 33.0718 251.503 32.5828C251.788 32.0938 251.931 31.4939 251.931 30.7831ZM262.901 26.6787V34.8875H261.747L256.38 28.4422H256.283V34.8875H255.091V26.6787H256.245L261.631 33.14H261.727V26.6787H262.901ZM269.096 34.8875V26.6787H272.424C273.196 26.6787 273.828 26.7949 274.319 27.0273C274.812 27.2572 275.178 27.5685 275.415 27.9613C275.652 28.3541 275.771 28.7923 275.771 29.276C275.771 29.7597 275.652 30.1992 275.415 30.5947C275.181 30.9902 274.819 31.3055 274.328 31.5407C273.838 31.7731 273.209 31.8893 272.443 31.8893H270.058V31.0076H272.405C272.934 31.0076 273.358 30.9314 273.679 30.7791C274 30.6268 274.232 30.421 274.376 30.1618C274.524 29.8999 274.598 29.6047 274.598 29.276C274.598 28.9473 274.524 28.6534 274.376 28.3942C274.232 28.135 273.998 27.932 273.674 27.7849C273.35 27.6353 272.921 27.5605 272.385 27.5605H270.289V34.8875H269.096ZM277.692 34.8875V26.6787H281.02C281.79 26.6787 282.421 26.7883 282.915 27.0073C283.409 27.2237 283.774 27.5217 284.011 27.9012C284.249 28.2806 284.367 28.7122 284.367 29.1958C284.367 29.6795 284.249 30.1083 284.011 30.4825C283.774 30.8566 283.41 31.1506 282.92 31.3643C282.429 31.5754 281.802 31.6809 281.039 31.6809H278.346V30.7831H281.001C281.527 30.7831 281.95 30.719 282.27 30.5907C282.594 30.4624 282.828 30.2807 282.973 30.0455C283.12 29.8078 283.194 29.5245 283.194 29.1958C283.194 28.8671 283.12 28.5799 282.973 28.3341C282.825 28.0882 282.589 27.8985 282.266 27.7649C281.942 27.6286 281.514 27.5605 280.982 27.5605H278.885V34.8875H277.692ZM282.328 31.1999L284.752 34.8875H283.367L280.982 31.1999H282.328ZM294.665 30.7831C294.665 31.6488 294.477 32.3971 294.102 33.0277C293.727 33.6584 293.212 34.1446 292.558 34.4867C291.904 34.8287 291.157 34.9998 290.317 34.9998C289.477 34.9998 288.73 34.8287 288.076 34.4867C287.422 34.1446 286.908 33.6584 286.532 33.0277C286.157 32.3971 285.97 31.6488 285.97 30.7831C285.97 29.9173 286.157 29.1691 286.532 28.5385C286.908 27.9078 287.422 27.4216 288.076 27.0795C288.73 26.7375 289.477 26.5664 290.317 26.5664C291.157 26.5664 291.904 26.7375 292.558 27.0795C293.212 27.4216 293.727 27.9078 294.102 28.5385C294.477 29.1691 294.665 29.9173 294.665 30.7831ZM293.51 30.7831C293.51 30.0723 293.368 29.4725 293.082 28.9834C292.8 28.4944 292.417 28.1243 291.933 27.8732C291.452 27.622 290.914 27.4964 290.317 27.4964C289.721 27.4964 289.181 27.622 288.697 27.8732C288.216 28.1243 287.833 28.4944 287.547 28.9834C287.265 29.4725 287.124 30.0723 287.124 30.7831C287.124 31.4939 287.265 32.0938 287.547 32.5828C287.833 33.0718 288.216 33.4419 288.697 33.693C289.181 33.9442 289.721 34.0698 290.317 34.0698C290.914 34.0698 291.452 33.9442 291.933 33.693C292.417 33.4419 292.8 33.0718 293.082 32.5828C293.368 32.0938 293.51 31.4939 293.51 30.7831ZM303.403 29.2439C303.297 28.9741 303.157 28.7322 302.984 28.5185C302.814 28.302 302.611 28.1176 302.374 27.9653C302.14 27.813 301.873 27.6968 301.575 27.6166C301.277 27.5364 300.95 27.4964 300.594 27.4964C300.011 27.4964 299.48 27.622 299.002 27.8732C298.525 28.1243 298.145 28.4944 297.863 28.9834C297.581 29.4725 297.439 30.0723 297.439 30.7831C297.439 31.4939 297.582 32.0938 297.867 32.5828C298.153 33.0718 298.539 33.4419 299.026 33.693C299.514 33.9442 300.062 34.0698 300.671 34.0698C301.235 34.0698 301.732 33.9697 302.162 33.7693C302.595 33.5661 302.931 33.2802 303.172 32.9115C303.415 32.54 303.537 32.1032 303.537 31.6008L303.903 31.6649H300.94V30.7831H304.692V31.6649C304.692 32.3409 304.518 32.9288 304.172 33.4285C303.829 33.9282 303.355 34.3157 302.749 34.5909C302.146 34.8635 301.453 34.9998 300.671 34.9998C299.799 34.9998 299.033 34.8287 298.372 34.4867C297.715 34.1446 297.202 33.6584 296.834 33.0277C296.468 32.3971 296.285 31.6488 296.285 30.7831C296.285 30.1338 296.389 29.5499 296.598 29.0315C296.81 28.5105 297.108 28.0669 297.492 27.7008C297.877 27.3347 298.332 27.0541 298.858 26.8591C299.384 26.664 299.963 26.5664 300.594 26.5664C301.114 26.5664 301.598 26.6319 302.047 26.7628C302.499 26.8911 302.901 27.0741 303.254 27.312C303.609 27.5472 303.906 27.829 304.143 28.1577C304.381 28.4837 304.544 28.8458 304.634 29.2439H303.403ZM306.734 34.8875V26.6787H310.062C310.832 26.6787 311.463 26.7883 311.957 27.0073C312.451 27.2237 312.816 27.5217 313.053 27.9012C313.29 28.2806 313.409 28.7122 313.409 29.1958C313.409 29.6795 313.29 30.1083 313.053 30.4825C312.816 30.8566 312.452 31.1506 311.962 31.3643C311.471 31.5754 310.844 31.6809 310.081 31.6809H307.388V30.7831H310.043C310.569 30.7831 310.992 30.719 311.312 30.5907C311.636 30.4624 311.87 30.2807 312.015 30.0455C312.161 29.8078 312.235 29.5245 312.235 29.1958C312.235 28.8671 312.161 28.5799 312.015 28.3341C311.867 28.0882 311.631 27.8985 311.308 27.7649C310.984 27.6286 310.556 27.5605 310.024 27.5605H307.927V34.8875H306.734ZM311.37 31.1999L313.794 34.8875H312.409L310.024 31.1999H311.37ZM315.801 34.8875H314.55L318.167 26.6787H319.398L323.014 34.8875H321.764L318.821 27.9773H318.743L315.801 34.8875ZM316.262 31.6809H321.303V32.5628H316.262V31.6809ZM324.548 26.6787H325.972L329.318 33.4926H329.434L332.782 26.6787H334.205V34.8875H333.089V28.6507H332.993L329.915 34.8875H328.838L325.76 28.6507H325.664V34.8875H324.548V26.6787Z" fill="#35373A"/>
<g clip-path="url(#clip1_3456_3400)">
<path d="M367.868 16.156C367.868 17.3878 367.853 18.5069 367.887 19.625C367.887 19.7732 368.114 19.9611 368.28 20.0545C373.064 22.6922 377.847 25.3289 382.653 27.9258C382.83 27.9822 383.016 28.0019 383.201 27.9834C383.386 27.9649 383.565 27.9087 383.726 27.8184C388.597 25.1735 393.458 22.5118 398.307 19.8333C398.494 19.7259 398.679 19.6185 398.873 19.5294C399.4 19.2888 399.809 19.4864 399.817 20.0417C399.84 21.8835 399.842 23.7276 399.806 25.5694C399.783 25.7023 399.731 25.8287 399.653 25.9399C399.575 26.0512 399.474 26.1446 399.356 26.2138C394.086 29.1301 388.805 32.0298 383.515 34.9131C383.379 34.9734 383.232 35.0047 383.083 35.0047C382.934 35.0047 382.786 34.9734 382.651 34.9131C377.359 32.0337 372.086 29.1232 366.796 26.2396C366.691 26.1935 366.597 26.1261 366.52 26.0419C366.443 25.9577 366.386 25.8585 366.351 25.7509C366.316 25.6433 366.305 25.5297 366.318 25.4176C366.331 25.3054 366.368 25.1972 366.427 25.1001C366.658 24.6018 367.103 24.7521 367.523 24.9852C372.423 27.6884 377.336 30.368 382.223 33.0927C382.481 33.2643 382.786 33.3549 383.098 33.3524C383.41 33.3499 383.713 33.2544 383.969 33.0787C388.53 30.5384 393.106 28.0238 397.696 25.5351C397.903 25.4528 398.075 25.306 398.187 25.1176C398.3 24.9292 398.345 24.7097 398.317 24.4933C398.269 23.5267 398.303 22.5601 398.303 21.47C397.773 21.7568 397.355 21.9791 396.94 22.2068C392.528 24.6304 388.119 27.0576 383.711 29.4884C383.527 29.6129 383.31 29.6796 383.087 29.6796C382.863 29.6796 382.646 29.6129 382.462 29.4884C377.334 26.6509 372.195 23.8278 367.046 21.019C366.816 20.9242 366.624 20.7594 366.497 20.5488C366.37 20.3383 366.317 20.0934 366.343 19.8505C366.384 18.2717 366.355 16.6919 366.358 15.1121C366.358 13.9597 366.621 13.805 367.63 14.3603C372.561 17.0631 377.488 19.7707 382.413 22.4828C382.605 22.6165 382.835 22.6896 383.071 22.6924C383.307 22.6953 383.538 22.6278 383.734 22.4989C388.37 19.9285 393.017 17.3767 397.674 14.8436C397.883 14.7666 398.06 14.6234 398.177 14.4369C398.293 14.2503 398.343 14.031 398.318 13.8136C398.262 12.8471 398.303 11.8805 398.303 10.7796C397.645 11.1319 397.082 11.424 396.529 11.728C392.258 14.0743 387.99 16.4241 383.725 18.7776C383.546 18.9058 383.332 18.9775 383.111 18.9828C382.889 18.9882 382.671 18.9271 382.486 18.8077C377.334 15.9487 372.169 13.1252 367.019 10.2695C366.867 10.1916 366.733 10.0828 366.628 9.95035C366.522 9.81793 366.446 9.66494 366.406 9.5016C366.44 9.33665 366.511 9.18108 366.614 9.04568C366.716 8.91029 366.847 8.79834 366.998 8.71759C372.15 5.8608 377.316 3.03515 382.468 0.18158C382.652 0.058906 382.87 -0.00578358 383.093 -0.00386477C383.316 -0.00194596 383.533 0.0664903 383.715 0.19232C387.506 2.29876 391.306 4.39016 395.117 6.46652C395.513 6.68132 395.977 6.92941 395.676 7.40196C395.616 7.51309 395.533 7.6103 395.431 7.68692C395.33 7.76354 395.212 7.81777 395.088 7.84592C394.963 7.87406 394.833 7.87545 394.707 7.84999C394.582 7.82453 394.464 7.77281 394.36 7.69838C390.807 5.71724 387.239 3.76009 383.657 1.82692C383.491 1.74606 383.309 1.70052 383.124 1.6933C382.939 1.68608 382.754 1.71734 382.582 1.78504C378.038 4.24553 373.515 6.74361 368.988 9.23525C368.878 9.29647 368.768 9.37272 368.59 9.48978C368.842 9.64658 369.028 9.77546 369.225 9.88393C373.636 12.309 378.044 14.7358 382.452 17.1645C382.635 17.29 382.852 17.3581 383.075 17.3594C383.299 17.3607 383.517 17.2954 383.701 17.172C388.595 14.4602 393.518 11.8021 398.391 9.05482C399.285 8.55112 399.926 8.84002 399.856 9.92904C399.754 11.4756 399.814 13.0339 399.84 14.5869C399.866 14.7917 399.825 14.9994 399.722 15.1799C399.62 15.3604 399.462 15.5043 399.271 15.5911C394.053 18.4378 388.844 21.3 383.644 24.1776C383.47 24.2897 383.265 24.3472 383.057 24.3424C382.849 24.3376 382.647 24.2708 382.479 24.1507C377.933 21.6376 373.381 19.1363 368.822 16.6468C368.548 16.4964 368.265 16.36 367.865 16.1549L367.868 16.156Z" fill="#35373A"/>
<path d="M427.097 1.94922V2.86533C427.097 5.89396 427.103 8.92258 427.08 11.948C427.019 12.2373 426.908 12.5141 426.751 12.7664C426.485 12.7092 426.231 12.6039 426.004 12.456C424.361 10.898 422.177 10.0081 419.891 9.96567C417.605 9.92322 415.387 10.7314 413.686 12.2272C412.16 13.5244 411.046 15.2233 410.476 17.1222C409.906 19.0211 409.904 21.0403 410.47 22.9402C410.783 24.5899 411.56 26.1213 412.713 27.362C413.866 28.6027 415.349 29.5035 416.997 29.963C418.558 30.5084 420.25 30.5905 421.859 30.1991C423.468 29.8076 424.924 28.9601 426.044 27.7624C426.203 27.6002 426.592 27.4402 426.714 27.5154C426.818 27.6005 426.904 27.7053 426.967 27.8236C427.029 27.9418 427.067 28.0711 427.077 28.2038C427.132 28.7408 427.093 29.2885 427.093 29.8502H431.205V1.94922H427.097ZM420.848 26.7174C419.52 26.7627 418.209 26.4186 417.082 25.7291C415.955 25.0396 415.064 24.0362 414.523 22.8474C413.982 21.6586 413.815 20.3386 414.045 19.0565C414.275 17.7745 414.89 16.5889 415.812 15.6516C416.734 14.7143 417.92 14.0681 419.219 13.7957C420.519 13.5233 421.871 13.6372 423.104 14.1228C424.337 14.6083 425.393 15.4435 426.139 16.5211C426.884 17.5988 427.283 18.8699 427.286 20.1715C427.308 21.0169 427.158 21.858 426.845 22.6461C426.532 23.4343 426.063 24.1537 425.464 24.7626C424.865 25.3716 424.148 25.8579 423.356 26.1935C422.563 26.5291 421.711 26.7071 420.848 26.7174Z" fill="#35373A"/>
<path d="M514.571 12.5334C512.895 10.9091 510.638 9.99018 508.281 9.97233C505.923 9.95447 503.652 10.8391 501.951 12.4378C501.694 12.6329 501.411 12.7919 501.109 12.9104C500.932 12.6105 500.807 12.2839 500.74 11.9438C500.713 8.86469 500.723 5.78773 500.723 2.70755V1.9375H496.641V29.8331H500.723C500.701 29.3299 500.706 28.8258 500.74 28.3231C500.773 28.0696 500.914 27.7045 501.106 27.6282C501.242 27.6177 501.379 27.638 501.505 27.6876C501.632 27.7371 501.746 27.8145 501.837 27.9139C504.586 30.8921 510.005 31.2185 513.595 28.5991C518.64 24.9207 519.151 16.752 514.571 12.5334ZM506.992 26.7164C505.663 26.7513 504.355 26.3965 503.233 25.6978C502.112 24.999 501.229 23.9881 500.699 22.7945C500.168 21.601 500.013 20.2794 500.254 18.9991C500.495 17.7189 501.121 16.5384 502.052 15.609C502.983 14.6796 504.175 14.0438 505.477 13.783C506.779 13.5222 508.131 13.6484 509.359 14.1453C510.588 14.6423 511.636 15.4873 512.371 16.5721C513.106 17.6569 513.493 18.932 513.483 20.2339C513.493 21.0775 513.333 21.9147 513.011 22.6975C512.69 23.4803 512.215 24.1932 511.611 24.7955C511.008 25.3978 510.29 25.8775 509.497 26.2071C508.704 26.5367 507.853 26.7098 506.992 26.7164Z" fill="#35373A"/>
<path d="M488.754 10.5025C488.775 11.013 488.769 11.5241 488.737 12.034C488.711 12.2875 488.582 12.6591 488.398 12.7321C488.213 12.8051 487.837 12.6183 487.67 12.4368C484.983 9.49404 479.564 9.07842 475.993 11.7322C474.417 12.8578 473.199 14.3974 472.479 16.1729C471.759 17.9485 471.568 19.8874 471.926 21.7654C472.071 23.555 472.744 25.2649 473.861 26.6878C474.979 28.1108 476.493 29.1858 478.222 29.7826C479.835 30.462 481.626 30.6242 483.34 30.2459C485.053 29.8676 486.6 28.9683 487.76 27.6766C487.902 27.5337 488.242 27.3941 488.368 27.4618C488.47 27.5301 488.555 27.6189 488.619 27.7223C488.683 27.8256 488.723 27.9411 488.737 28.061C488.789 28.6292 488.754 29.2059 488.754 29.8213H492.833V10.5025H488.754ZM482.493 26.7196C481.166 26.7568 479.858 26.4052 478.736 25.7098C477.614 25.0143 476.73 24.0067 476.196 22.8159C475.662 21.6252 475.504 20.3055 475.74 19.0257C475.976 17.746 476.597 16.5646 477.523 15.6326C478.449 14.7007 479.638 14.0607 480.937 13.7945C482.237 13.5284 483.588 13.6482 484.817 14.1387C486.047 14.6292 487.099 15.468 487.839 16.5477C488.579 17.6275 488.973 18.899 488.971 20.1995C488.992 21.0467 488.84 21.8895 488.524 22.6785C488.208 23.4675 487.735 24.1867 487.131 24.794C486.528 25.4013 485.807 25.8844 485.01 26.2151C484.214 26.5458 483.358 26.7173 482.493 26.7196Z" fill="#35373A"/>
<path d="M450.952 10.4803C450.975 10.9982 450.969 11.517 450.936 12.0343C450.906 12.291 450.77 12.6562 450.58 12.7357C450.407 12.8087 450.019 12.6218 449.854 12.4371C447.51 9.83698 442.994 9.29139 439.692 10.8454C437.441 11.9898 435.678 13.8806 434.718 16.1804C433.758 18.4803 433.663 21.0395 434.451 23.4014C436.568 30.3941 444.402 32.541 449.961 27.6576C450.046 27.5844 450.145 27.5303 450.253 27.4992C450.361 27.468 450.475 27.4605 450.586 27.4771C450.682 27.5342 450.764 27.6124 450.824 27.7056C450.884 27.7988 450.921 27.9044 450.933 28.0141C450.978 28.607 450.949 29.2062 450.949 29.8399H455.019V10.4803H450.952ZM444.627 26.7146C442.898 26.6498 441.262 25.9294 440.065 24.7053C438.867 23.4812 438.203 21.8493 438.211 20.1541C438.219 18.4589 438.899 16.8331 440.107 15.6198C441.316 14.4066 442.958 13.7009 444.688 13.6518C446.431 13.6967 448.087 14.4086 449.3 15.635C450.514 16.8613 451.189 18.5045 451.181 20.2126C451.173 21.9207 450.483 23.5577 449.257 24.7731C448.032 25.9884 446.37 26.6854 444.627 26.7146Z" fill="#35373A"/>
<path d="M581.08 29.8706C579.392 29.8706 577.885 29.8964 576.38 29.847C576.053 29.7852 575.762 29.6059 575.563 29.3444C573.48 26.8592 571.439 24.3471 569.354 21.8673C569.096 21.5612 568.512 21.1252 568.335 21.2175C567.78 21.5075 567.141 21.8501 567.146 22.6556C567.158 24.8132 567.146 26.9709 567.146 29.1285V29.8083H563.031V1.94922H567.174C567.174 2.22953 567.174 2.50984 567.174 2.78907C567.165 7.41901 567.149 12.05 567.16 16.68C567.209 17.0245 567.306 17.3609 567.448 17.6798C567.805 17.5685 568.142 17.404 568.447 17.1922C570.595 15.1227 572.7 13.0112 574.855 10.9492C575.181 10.6649 575.595 10.4965 576.031 10.4713C577.394 10.4133 578.762 10.4487 580.344 10.4487C580.015 10.7827 579.833 10.9857 579.637 11.1758C577.275 13.4834 574.913 15.7907 572.55 18.0976C572.43 18.1933 572.333 18.3131 572.264 18.4489C572.195 18.5847 572.157 18.7334 572.152 18.8849C572.147 19.0364 572.175 19.1872 572.235 19.3271C572.295 19.4669 572.384 19.5927 572.498 19.6957L580.628 29.3078C580.745 29.4432 580.854 29.586 581.08 29.8706Z" fill="#35373A"/>
<path d="M557.89 25.0233L560.127 27.3378C554.645 32.0998 547.225 30.8465 543.925 26.6579C542.652 24.9781 541.904 22.9725 541.771 20.8843C541.639 18.7961 542.127 16.7151 543.178 14.8935C545.46 11.1099 549.055 9.76311 553.401 10.0284C555.673 10.186 557.846 11.0021 559.644 12.3729C559.877 12.5426 560.097 12.7273 560.395 12.9604L557.795 15.3607C553.384 12.4857 549.499 13.8013 547.653 15.8666C546.666 17.011 546.1 18.4466 546.045 19.9436C545.99 21.4405 546.449 22.9123 547.349 24.1233C547.934 24.8859 548.686 25.5103 549.55 25.9505C550.414 26.3906 551.367 26.6353 552.341 26.6665C553.781 26.7621 554.533 26.5312 557.89 25.0233Z" fill="#35373A"/>
<path d="M592.445 15.7484C591.854 15.0866 591.214 14.4684 590.53 13.899C590.031 13.5296 589.434 13.3082 588.81 13.261C588.187 13.2138 587.562 13.3428 587.011 13.6327C586.689 13.7565 586.405 13.9619 586.19 14.2279C585.976 14.4939 585.836 14.811 585.787 15.1468C585.738 15.4826 585.781 15.8252 585.911 16.1395C586.042 16.4539 586.255 16.7288 586.529 16.9362C587.057 17.339 587.65 17.654 588.283 17.8684C589.535 18.3431 590.848 18.6718 592.08 19.1884C594.078 20.0261 595.629 21.3009 595.879 23.5981C596.014 24.5287 595.904 25.4775 595.561 26.3552C595.218 27.2329 594.652 28.0105 593.918 28.6147C590.566 31.4812 583.71 31.0247 581.332 26.1188C581.287 26.0253 581.258 25.9244 581.18 25.716L584.453 24.0406C584.761 24.481 585.02 24.9073 585.33 25.2897C585.886 25.9935 586.651 26.5104 587.52 26.7687C588.389 27.0269 589.318 27.0138 590.179 26.7309C590.639 26.6147 591.049 26.3574 591.349 25.9966C591.649 25.6359 591.823 25.1906 591.847 24.7258C591.902 24.2744 591.8 23.8179 591.557 23.4307C591.314 23.0435 590.943 22.7486 590.507 22.594C589.47 22.1644 588.379 21.8637 587.328 21.4727C586.387 21.1597 585.469 20.7854 584.579 20.3526C580.742 18.3184 581.229 13.449 583.997 11.3934C584.918 10.762 585.965 10.3289 587.07 10.1225C588.174 9.91616 589.31 9.94123 590.404 10.1961C591.498 10.451 592.524 10.9298 593.415 11.6012C594.306 12.2726 595.042 13.1212 595.574 14.0913L592.444 15.7473L592.445 15.7484Z" fill="#35373A"/>
<path d="M470.801 26.5135V29.9685C468.894 30.3019 466.94 30.272 465.045 29.8804C464.167 29.6488 463.376 29.1764 462.763 28.5188C462.15 27.8612 461.742 27.0459 461.587 26.1687C461.386 25.3511 461.281 24.5138 461.272 23.6728C461.235 20.7258 461.259 17.7788 461.257 14.8318C461.257 13.7739 461.211 13.7331 460.1 13.731C459.352 13.731 458.603 13.731 457.805 13.731V10.4446C458.701 10.4446 459.559 10.4188 460.412 10.4532C461.052 10.4789 461.271 10.2126 461.264 9.61331C461.244 7.9089 461.257 6.20342 461.257 4.44531H465.403C465.403 6.10569 465.403 7.73062 465.403 9.35448C465.403 10.4285 465.42 10.4446 466.542 10.4457H470.064V13.731C468.884 13.731 467.683 13.731 466.483 13.731C465.479 13.731 465.404 13.7986 465.405 14.7491C465.41 17.5415 465.42 20.3302 465.435 23.1154C465.44 23.4038 465.47 23.6912 465.525 23.9746C465.883 25.9636 466.677 26.6134 468.762 26.6037C469.406 26.6037 470.049 26.5468 470.802 26.5103L470.801 26.5135Z" fill="#35373A"/>
<path d="M524.537 29.8306H520.508V10.5054H524.606C524.606 11.11 524.568 11.7319 524.622 12.3451C524.693 12.6524 524.808 12.9485 524.963 13.2247C525.253 13.0966 525.52 12.922 525.751 12.7081C526.395 11.811 527.272 11.0995 528.292 10.6482C529.312 10.1969 530.437 10.0222 531.55 10.1424V14.2622C531.011 14.2319 530.47 14.2351 529.932 14.2718C528.591 14.4157 527.345 15.016 526.411 15.968C525.476 16.9199 524.912 18.1631 524.817 19.4806C524.68 20.7081 524.621 21.9426 524.639 23.1773C524.609 25.336 524.622 27.4947 524.615 29.6523C524.615 29.6985 524.574 29.7436 524.535 29.8295L524.537 29.8306Z" fill="#35373A"/>
<path d="M538.897 10.5039V29.8238H534.742V10.5039H538.897Z" fill="#35373A"/>
<path d="M539.359 4.43936C539.356 5.11115 539.08 5.75418 538.593 6.22699C538.106 6.6998 537.447 6.96367 536.761 6.96053C536.075 6.9574 535.419 6.68753 534.936 6.21028C534.454 5.73304 534.184 5.08752 534.188 4.41573C534.189 4.0831 534.258 3.75402 534.389 3.4473C534.52 3.14058 534.712 2.86221 534.953 2.6281C535.195 2.39399 535.481 2.20871 535.795 2.08285C536.109 1.95699 536.446 1.89301 536.785 1.89456C537.125 1.89611 537.461 1.96317 537.774 2.09189C538.087 2.22062 538.371 2.4085 538.61 2.64481C538.849 2.88111 539.038 3.16122 539.167 3.46913C539.295 3.77704 539.36 4.10672 539.359 4.43936Z" fill="#35373A"/>
</g>
<g clip-path="url(#clip2_3456_3400)">
<path d="M680.081 19.0073C678.939 19.022 677.807 18.806 676.751 18.3723C675.695 17.9387 674.737 17.2962 673.936 16.4835C673.121 15.6961 672.473 14.7528 672.03 13.7096C671.587 12.6664 671.359 11.5448 671.359 10.4117C671.359 9.27847 671.587 8.15688 672.03 7.11372C672.473 6.07056 673.121 5.12718 673.936 4.33978C674.734 3.51883 675.689 2.86792 676.745 2.42631C677.802 1.9847 678.936 1.76153 680.081 1.77025C681.172 1.75586 682.254 1.95844 683.266 2.36621C684.278 2.77397 685.199 3.37878 685.975 4.14549L684.314 5.83207C683.178 4.7348 681.655 4.1317 680.076 4.15465C679.257 4.14522 678.446 4.30592 677.693 4.62654C676.94 4.94716 676.262 5.42073 675.702 6.0172C674.549 7.18981 673.904 8.7681 673.904 10.4122C673.904 12.0562 674.549 13.6345 675.702 14.8071C676.855 15.9565 678.411 16.6103 680.039 16.6293C681.667 16.6483 683.239 16.031 684.418 14.9089C685.149 14.1091 685.597 13.0917 685.694 12.0128H680.106V9.63144H688.013C688.09 10.1119 688.122 10.5987 688.107 11.0851C688.156 12.091 688 13.0963 687.649 14.0404C687.299 14.9845 686.761 15.8478 686.067 16.5781C685.296 17.3803 684.364 18.0111 683.333 18.4296C682.301 18.8481 681.193 19.0449 680.081 19.0073ZM698.463 17.4245C697.403 18.4425 695.989 19.0109 694.519 19.0109C693.049 19.0109 691.635 18.4425 690.575 17.4245C689.542 16.3663 688.964 14.9462 688.964 13.4674C688.964 11.9887 689.542 10.5686 690.575 9.51039C691.637 8.49564 693.05 7.9294 694.519 7.9294C695.988 7.9294 697.401 8.49564 698.463 9.51039C699.498 10.5684 700.076 11.9897 700.074 13.4693C700.073 14.9489 699.491 16.3689 698.454 17.4245H698.463ZM692.316 15.8701C692.587 16.1595 692.912 16.3927 693.273 16.5563C693.634 16.72 694.024 16.8109 694.42 16.8238C694.816 16.8368 695.211 16.7715 695.582 16.6318C695.953 16.4921 696.292 16.2806 696.581 16.0095C696.629 15.9637 696.677 15.918 696.721 15.8701C697.32 15.2115 697.652 14.3532 697.652 13.4629C697.652 12.5725 697.32 11.7142 696.721 11.0556C696.158 10.4691 695.386 10.13 694.574 10.1128C693.761 10.0957 692.975 10.4018 692.388 10.964C692.357 10.9935 692.326 11.024 692.297 11.0556C691.695 11.7135 691.363 12.5732 691.364 13.4646C691.366 14.3561 691.702 15.2145 692.306 15.8701H692.316ZM710.587 17.4245C709.526 18.4425 708.113 19.0109 706.642 19.0109C705.172 19.0109 703.759 18.4425 702.698 17.4245C701.665 16.3663 701.087 14.9462 701.087 13.4674C701.087 11.9887 701.665 10.5686 702.698 9.51039C703.759 8.49238 705.172 7.92393 706.642 7.92393C708.113 7.92393 709.526 8.49238 710.587 9.51039C711.62 10.5686 712.198 11.9887 712.198 13.4674C712.198 14.9462 711.62 16.3663 710.587 17.4245ZM704.442 15.8701C704.712 16.1595 705.038 16.3927 705.399 16.5563C705.76 16.72 706.149 16.8109 706.545 16.8238C706.942 16.8368 707.336 16.7715 707.707 16.6318C708.078 16.4921 708.418 16.2806 708.707 16.0095C708.755 15.9637 708.803 15.918 708.846 15.8701C709.445 15.2115 709.777 14.3532 709.777 13.4629C709.777 12.5725 709.445 11.7142 708.846 11.0556C708.284 10.4692 707.512 10.1302 706.7 10.113C705.888 10.0958 705.102 10.402 704.516 10.964C704.484 10.9935 704.454 11.024 704.424 11.0556C703.823 11.7135 703.49 12.5732 703.492 13.4646C703.493 14.3561 703.829 15.2145 704.433 15.8701H704.442ZM718.558 23.9806C717.441 24.0157 716.347 23.6671 715.456 22.9928C714.666 22.3983 714.044 21.609 713.65 20.702L715.772 19.817C716.002 20.3593 716.364 20.836 716.823 21.2045C717.315 21.6014 717.933 21.8095 718.565 21.7915C718.965 21.8157 719.367 21.7535 719.741 21.609C720.115 21.4646 720.454 21.2413 720.735 20.9543C721.295 20.2773 721.572 19.4098 721.508 18.5333V17.7296H721.423C721.068 18.1508 720.62 18.4836 720.114 18.7018C719.609 18.92 719.059 19.0176 718.509 18.9869C717.81 18.9889 717.118 18.8459 716.477 18.567C715.836 18.2881 715.26 17.8793 714.785 17.3665C713.763 16.3188 713.192 14.9134 713.192 13.4501C713.192 11.9869 713.763 10.5815 714.785 9.53378C715.259 9.0191 715.835 8.60863 716.476 8.32844C717.117 8.04824 717.809 7.90445 718.509 7.90621C719.101 7.90523 719.687 8.03551 720.223 8.28767C720.687 8.48997 721.101 8.79215 721.435 9.17267H721.519V8.28767H723.828V18.2047C723.889 18.9893 723.789 19.778 723.534 20.5226C723.279 21.2672 722.876 21.952 722.347 22.5351C721.844 23.0168 721.249 23.3929 720.598 23.6409C719.947 23.889 719.253 24.0042 718.557 23.9795L718.558 23.9806ZM718.727 16.8294C719.124 16.838 719.519 16.7592 719.882 16.5983C720.246 16.4374 720.569 16.1986 720.83 15.8986C721.405 15.24 721.707 14.3876 721.677 13.5142C721.712 12.6263 721.409 11.7581 720.83 11.0841C720.57 10.7838 720.246 10.5447 719.882 10.3838C719.519 10.2229 719.124 10.1442 718.727 10.1533C718.318 10.1451 717.913 10.2238 717.537 10.3843C717.161 10.5448 716.824 10.7833 716.548 11.0841C715.932 11.7341 715.598 12.6008 715.617 13.4959C715.608 13.9351 715.685 14.3717 715.845 14.7809C716.004 15.1901 716.243 15.5637 716.548 15.8803C716.823 16.184 717.159 16.4255 717.535 16.589C717.911 16.7525 718.317 16.8351 718.727 16.8294ZM727.937 2.39991V18.6757H725.507V2.39991H727.937ZM734.605 19.0124C733.877 19.0314 733.153 18.8997 732.478 18.6255C731.803 18.3514 731.193 17.9408 730.684 17.4194C730.168 16.9024 729.762 16.2858 729.491 15.6072C729.221 14.9285 729.091 14.2019 729.11 13.4715C729.082 12.7392 729.203 12.009 729.464 11.3241C729.724 10.6393 730.12 10.0138 730.627 9.48496C731.106 8.98106 731.684 8.58241 732.325 8.31444C732.967 8.04647 733.657 7.91506 734.351 7.92859C734.99 7.92184 735.624 8.04541 736.214 8.29174C736.745 8.50605 737.229 8.82226 737.638 9.22251C737.99 9.56182 738.302 9.93993 738.569 10.3496C738.784 10.6952 738.969 11.0595 739.119 11.438L739.37 12.0718L731.92 15.1326C732.145 15.6503 732.522 16.0876 733.001 16.3871C733.479 16.6865 734.038 16.834 734.602 16.8101C735.15 16.8114 735.69 16.6706 736.169 16.4015C736.647 16.1323 737.047 15.7439 737.331 15.274L739.193 16.5313C738.719 17.2121 738.11 17.789 737.405 18.2271C736.568 18.7552 735.594 19.0268 734.605 19.0083V19.0124ZM731.494 13.3037L736.448 11.2458C736.296 10.8829 736.022 10.5839 735.675 10.3995C735.286 10.1797 734.846 10.067 734.399 10.0729C733.642 10.0928 732.923 10.4108 732.398 10.9579C732.084 11.2582 731.84 11.6243 731.684 12.0298C731.528 12.4353 731.462 12.8703 731.494 13.3037Z" fill="#35373A"/>
<path d="M752.111 19.0069C751.103 19.0242 750.102 18.843 749.165 18.4735C748.228 18.104 747.372 17.5535 746.647 16.8533C745.923 16.1532 745.343 15.3172 744.941 14.393C744.54 13.4688 744.324 12.4746 744.307 11.4671C744.307 11.3654 744.307 11.2637 744.307 11.1619C744.283 10.1546 744.458 9.15245 744.822 8.21276C745.186 7.27308 745.731 6.41425 746.427 5.6853C747.123 4.95636 747.955 4.37159 748.877 3.96436C749.798 3.55714 750.791 3.33545 751.799 3.31195C751.9 3.31195 752.002 3.31195 752.104 3.31195C753.15 3.27943 754.19 3.48356 755.146 3.90911C756.103 4.33465 756.95 4.97063 757.626 5.76959L756.285 7.07266C755.789 6.44869 755.153 5.95056 754.428 5.61879C753.703 5.28701 752.91 5.13096 752.114 5.16332C751.347 5.14633 750.585 5.28434 749.873 5.56908C749.161 5.85383 748.514 6.27943 747.97 6.82039C747.405 7.38868 746.964 8.06743 746.674 8.81415C746.383 9.56086 746.251 10.3595 746.283 11.1599C746.25 11.9604 746.383 12.7591 746.673 13.5059C746.963 14.2527 747.405 14.9314 747.97 15.4994C748.513 16.0407 749.16 16.4666 749.873 16.7513C750.585 17.0361 751.347 17.1739 752.114 17.1565C753.006 17.1669 753.888 16.9756 754.696 16.5971C755.503 16.2186 756.215 15.6625 756.777 14.9705L758.119 16.3122C757.417 17.1512 756.535 17.8223 755.54 18.2765C754.467 18.7747 753.296 19.024 752.113 19.0058L752.111 19.0069Z" fill="#35373A"/>
<path d="M761.722 18.6726H759.789V3.63281H761.722V18.6726Z" fill="#35373A"/>
<path d="M764.865 9.62094C765.875 8.61772 767.241 8.05469 768.665 8.05469C770.088 8.05469 771.454 8.61772 772.464 9.62094C773.424 10.6976 773.954 12.0897 773.954 13.5322C773.954 14.9747 773.424 16.3668 772.464 17.4435C771.454 18.4467 770.088 19.0097 768.665 19.0097C767.241 19.0097 765.875 18.4467 764.865 17.4435C763.905 16.3668 763.375 14.9747 763.375 13.5322C763.375 12.0897 763.905 10.6976 764.865 9.62094ZM766.299 16.233C766.892 16.8578 767.709 17.222 768.57 17.2456C769.431 17.2693 770.267 16.9505 770.893 16.3591C770.937 16.3184 770.98 16.2747 771.02 16.233C771.663 15.4806 772.017 14.5232 772.017 13.5332C772.017 12.5432 771.663 11.5858 771.02 10.8335C770.426 10.2086 769.61 9.84445 768.748 9.8208C767.887 9.79716 767.051 10.116 766.425 10.7073C766.381 10.748 766.338 10.7918 766.299 10.8335C765.653 11.5839 765.299 12.5412 765.301 13.5309C765.303 14.5205 765.66 15.4766 766.308 16.2248L766.299 16.233Z" fill="#35373A"/>
<path d="M784.638 18.6708H782.775V17.2467H782.72C782.388 17.7876 781.919 18.2309 781.36 18.5314C780.78 18.8666 780.121 19.0421 779.451 19.0401C778.907 19.0772 778.361 18.991 777.855 18.7879C777.349 18.5849 776.895 18.2701 776.527 17.8672C775.822 16.9748 775.468 15.8554 775.531 14.7199V8.39062H777.463V14.372C777.463 16.2912 778.311 17.2504 780.006 17.2497C780.383 17.2615 780.757 17.1831 781.097 17.0212C781.437 16.8593 781.733 16.6186 781.961 16.319C782.461 15.6862 782.728 14.9005 782.716 14.0943V8.39775H784.649V18.6708H784.638Z" fill="#35373A"/>
<path d="M791.179 19.0073C790.525 19.0094 789.878 18.8697 789.283 18.5979C788.688 18.326 788.16 17.9285 787.733 17.4326C786.801 16.3461 786.289 14.9619 786.289 13.5305C786.289 12.0991 786.801 10.7149 787.733 9.62839C788.16 9.13289 788.689 8.7356 789.284 8.46378C789.878 8.19197 790.525 8.05208 791.179 8.05371C791.911 8.04248 792.634 8.21527 793.282 8.55623C793.852 8.84231 794.335 9.27661 794.679 9.81353H794.763L794.679 8.3894V3.63281H796.612V18.6726H794.749V17.2485H794.665C794.321 17.7854 793.838 18.2197 793.268 18.5058C792.624 18.8445 791.906 19.0168 791.179 19.0073ZM791.496 17.2475C791.932 17.2538 792.364 17.1674 792.763 16.994C793.163 16.8205 793.521 16.564 793.814 16.2414C794.469 15.4954 794.804 14.5214 794.745 13.5305C794.803 12.5397 794.469 11.5658 793.814 10.8196C793.536 10.5137 793.201 10.2656 792.826 10.0895C792.452 9.91349 792.047 9.8129 791.634 9.79353C791.221 9.77416 790.809 9.8364 790.42 9.97667C790.031 10.117 789.674 10.3325 789.368 10.611C789.295 10.6772 789.225 10.7484 789.159 10.8196C788.835 11.1863 788.585 11.6136 788.425 12.0768C788.266 12.54 788.199 13.0302 788.229 13.5193C788.199 14.0084 788.266 14.4986 788.425 14.9618C788.585 15.4251 788.835 15.8523 789.159 16.2191C789.453 16.5486 789.813 16.8111 790.217 16.9886C790.621 17.1661 791.058 17.2544 791.499 17.2475H791.496Z" fill="#35373A"/>
<path d="M653.51 9.63638H654.832L658.611 5.85735L658.796 4.25216C656.631 2.34222 654.015 1.01562 651.195 0.397629C648.374 -0.220364 645.443 -0.109364 642.678 0.720149C639.912 1.54966 637.404 3.07032 635.389 5.13853C633.375 7.20675 631.921 9.75428 631.164 12.5406C631.584 12.3685 632.049 12.341 632.486 12.4623L640.045 11.2151C640.045 11.2151 640.428 10.5783 640.629 10.617C642.249 8.83812 644.487 7.7456 646.886 7.56311C649.284 7.38062 651.662 8.12196 653.532 9.63536L653.51 9.63638Z" fill="#35373A"/>
<path d="M664 12.5388C663.132 9.34012 661.349 6.46463 658.869 4.26562L653.566 9.56847C654.671 10.4721 655.556 11.6149 656.156 12.9105C656.755 14.2062 657.052 15.621 657.025 17.0482V17.9902C657.645 17.9902 658.258 18.1123 658.831 18.3495C659.404 18.5868 659.924 18.9345 660.363 19.3729C660.801 19.8113 661.149 20.3317 661.386 20.9045C661.623 21.4773 661.746 22.0912 661.746 22.7111C661.746 23.3311 661.623 23.945 661.386 24.5178C661.149 25.0906 660.801 25.611 660.363 26.0494C659.924 26.4878 659.404 26.8355 658.831 27.0728C658.258 27.31 657.645 27.4321 657.025 27.4321H647.583L646.641 28.3873V34.0503L647.583 34.9922H657.025C659.661 35.0117 662.234 34.1822 664.363 32.6264C666.491 31.0706 668.063 28.871 668.845 26.353C669.627 23.835 669.578 21.1322 668.705 18.6442C667.832 16.1562 666.182 14.0152 663.998 12.5378L664 12.5388Z" fill="#35373A"/>
<path d="M638.12 34.9325H647.562V27.3744H638.12C637.448 27.3739 636.783 27.2289 636.17 26.9492L634.848 27.3612L631.043 31.1402L630.711 32.4626C632.843 34.0765 635.447 34.9443 638.12 34.9325Z" fill="#35373A"/>
<path d="M638.127 10.4191C635.569 10.4343 633.08 11.2481 631.006 12.7468C628.933 14.2455 627.38 16.3544 626.564 18.7788C625.747 21.2031 625.709 23.8219 626.453 26.2694C627.197 28.7168 628.688 30.8706 630.715 32.43L636.191 26.9542C635.495 26.6399 634.886 26.1613 634.415 25.5596C633.945 24.9578 633.627 24.2509 633.49 23.4995C633.353 22.7481 633.4 21.9746 633.627 21.2454C633.855 20.5162 634.256 19.8531 634.796 19.313C635.336 18.7729 635.999 18.372 636.729 18.1446C637.458 17.9172 638.231 17.8701 638.983 18.0075C639.734 18.1448 640.441 18.4624 641.043 18.933C641.644 19.4036 642.123 20.0132 642.437 20.7094L647.913 15.2337C646.765 13.73 645.284 12.5127 643.586 11.6772C641.889 10.8417 640.021 10.4108 638.129 10.4181L638.127 10.4191Z" fill="#35373A"/>
<path d="M679.157 29.071C679.163 29.4514 679.094 29.8292 678.954 30.1828C678.825 30.5036 678.626 30.792 678.373 31.0271C678.105 31.2697 677.789 31.4537 677.446 31.5673C677.023 31.7029 676.579 31.7672 676.135 31.7575H675.203V34.7177C675.204 34.7495 675.194 34.7806 675.175 34.8062C675.151 34.8344 675.12 34.8552 675.085 34.8662C675.032 34.8843 674.976 34.8972 674.92 34.9048C674.745 34.926 674.568 34.926 674.393 34.9048C674.336 34.8967 674.28 34.8838 674.226 34.8662C674.19 34.8562 674.159 34.8351 674.137 34.8062C674.12 34.7799 674.111 34.7491 674.112 34.7177V27.1301C674.105 27.0636 674.113 26.9964 674.136 26.9337C674.16 26.8709 674.197 26.8143 674.245 26.768C674.329 26.6979 674.435 26.6598 674.544 26.6602H676.303C676.481 26.6602 676.651 26.6676 676.811 26.6825C677.006 26.7024 677.199 26.734 677.389 26.7771C677.628 26.8326 677.858 26.9249 678.069 27.0508C678.523 27.3066 678.866 27.7236 679.028 28.2196C679.117 28.4944 679.161 28.782 679.157 29.071ZM678.008 29.1605C678.018 28.8697 677.953 28.5812 677.82 28.3223C677.713 28.117 677.553 27.9439 677.357 27.8208C677.182 27.7144 676.988 27.6432 676.786 27.6113C676.596 27.5821 676.404 27.5671 676.211 27.5665H675.203V30.8634H676.188C676.467 30.8716 676.746 30.8285 677.01 30.7362C677.216 30.6595 677.403 30.5395 677.559 30.3843C677.709 30.2309 677.824 30.0466 677.896 29.8441C677.974 29.6234 678.012 29.3905 678.008 29.1564V29.1605Z" fill="#35373A"/>
<path d="M684.739 34.7283C684.74 34.75 684.736 34.7717 684.728 34.7915C684.719 34.8114 684.705 34.8288 684.688 34.8422C684.646 34.8714 684.599 34.8912 684.549 34.9002C684.463 34.9151 684.375 34.9215 684.288 34.9195C684.2 34.9211 684.112 34.9146 684.025 34.9002C683.973 34.8935 683.923 34.8735 683.881 34.8422C683.866 34.8278 683.854 34.81 683.846 34.7903C683.838 34.7706 683.835 34.7494 683.837 34.7283V34.1566C683.599 34.414 683.316 34.6251 683.001 34.7791C682.698 34.9263 682.364 35.0022 682.027 35.0009C681.751 35.0044 681.477 34.9649 681.213 34.8839C680.985 34.8139 680.773 34.6983 680.591 34.5441C680.418 34.3945 680.281 34.2078 680.191 33.9979C680.092 33.7652 680.043 33.5142 680.047 33.2614C680.04 32.9698 680.108 32.6813 680.244 32.4232C680.379 32.1816 680.574 31.9782 680.809 31.8322C681.087 31.6632 681.393 31.5441 681.712 31.4802C682.106 31.3983 682.509 31.3591 682.912 31.3632H683.699V30.9187C683.702 30.7219 683.679 30.5255 683.63 30.3348C683.59 30.1778 683.513 30.0329 683.404 29.9127C683.292 29.795 683.152 29.7075 682.997 29.6584C682.8 29.5966 682.594 29.5678 682.387 29.5729C682.152 29.5699 681.918 29.6011 681.692 29.6655C681.507 29.7192 681.327 29.7872 681.152 29.8689C680.997 29.9432 680.868 30.0113 680.765 30.0724C680.696 30.1212 680.616 30.1529 680.533 30.1649C680.501 30.1656 680.47 30.1568 680.444 30.1395C680.416 30.1197 680.393 30.0935 680.377 30.0632C680.356 30.0226 680.342 29.9785 680.336 29.933C680.327 29.8755 680.323 29.8173 680.324 29.7591C680.322 29.6747 680.33 29.5904 680.346 29.5078C680.365 29.4404 680.402 29.3797 680.454 29.3328C680.544 29.2562 680.643 29.1913 680.749 29.1396C680.905 29.0588 681.066 28.9908 681.232 28.9361C681.428 28.8714 681.627 28.8205 681.83 28.7835C682.045 28.7435 682.264 28.7234 682.484 28.7235C682.838 28.7156 683.191 28.7626 683.531 28.8629C683.793 28.9403 684.033 29.0799 684.229 29.2698C684.412 29.4578 684.545 29.6881 684.617 29.9401C684.702 30.2438 684.743 30.5584 684.738 30.874L684.739 34.7283ZM683.697 32.118H682.802C682.55 32.1144 682.299 32.1389 682.052 32.1913C681.865 32.2298 681.686 32.303 681.525 32.4069C681.395 32.4925 681.29 32.6107 681.22 32.7497C681.151 32.8934 681.116 33.0511 681.119 33.2105C681.112 33.3426 681.134 33.4745 681.182 33.5974C681.231 33.7202 681.306 33.8311 681.401 33.9226C681.621 34.1089 681.904 34.2033 682.192 34.1861C682.461 34.1877 682.726 34.1152 682.957 33.9765C683.234 33.8009 683.483 33.5849 683.696 33.3357L683.697 32.118Z" fill="#35373A"/>
<path d="M690.003 29.3839C690.003 29.4774 690.003 29.5558 689.997 29.6188C689.995 29.6696 689.986 29.7199 689.971 29.7684C689.962 29.7991 689.945 29.8272 689.923 29.8508C689.913 29.8606 689.9 29.8682 689.887 29.8731C689.873 29.878 689.858 29.8801 689.844 29.8793C689.801 29.8772 689.759 29.8676 689.72 29.8508C689.671 29.8314 689.618 29.8121 689.554 29.7928C689.49 29.7735 689.424 29.7562 689.351 29.7389C689.269 29.7213 689.186 29.7128 689.102 29.7134C688.996 29.7136 688.89 29.7351 688.791 29.7765C688.674 29.8292 688.566 29.8999 688.471 29.9861C688.341 30.1031 688.223 30.2329 688.119 30.3736C687.996 30.5344 687.86 30.731 687.712 30.9636V34.7274C687.713 34.7582 687.704 34.7885 687.686 34.8139C687.665 34.8405 687.636 34.8612 687.604 34.8739C687.553 34.8939 687.5 34.9065 687.445 34.9115C687.359 34.9213 687.272 34.9257 687.185 34.9247C687.1 34.9256 687.015 34.9212 686.931 34.9115C686.875 34.9063 686.821 34.8937 686.769 34.8739C686.736 34.8625 686.707 34.8416 686.687 34.8139C686.671 34.7878 686.663 34.7578 686.664 34.7274V29.0075C686.663 28.9778 686.67 28.9484 686.683 28.922C686.702 28.8939 686.729 28.8719 686.76 28.859C686.806 28.8377 686.855 28.825 686.905 28.8213C687.061 28.8082 687.217 28.8082 687.372 28.8213C687.422 28.8241 687.47 28.8369 687.515 28.859C687.544 28.8743 687.569 28.8962 687.588 28.9231C687.603 28.9488 687.611 28.9785 687.61 29.0085V29.8406C687.742 29.643 687.89 29.4562 688.052 29.2821C688.169 29.1552 688.3 29.0413 688.442 28.9424C688.553 28.865 688.677 28.8069 688.807 28.7705C688.927 28.7388 689.049 28.7227 689.173 28.7227C689.228 28.7227 689.291 28.7227 689.36 28.7318C689.434 28.7387 689.507 28.7502 689.58 28.7664C689.648 28.7819 689.716 28.8009 689.783 28.8234C689.83 28.8375 689.874 28.8592 689.913 28.8874C689.934 28.9037 689.951 28.9242 689.964 28.9475C689.974 28.9711 689.981 28.9956 689.986 29.0207C689.994 29.0637 689.998 29.1072 689.999 29.1509C689.999 29.2079 689.999 29.2852 689.999 29.3828L690.003 29.3839Z" fill="#35373A"/>
<path d="M694.169 34.3044C694.171 34.4024 694.162 34.5003 694.143 34.5963C694.133 34.6553 694.106 34.7102 694.067 34.755C694.022 34.7959 693.97 34.8283 693.914 34.8506C693.84 34.8827 693.762 34.9072 693.682 34.9239C693.595 34.9429 693.503 34.9588 693.406 34.9717C693.309 34.9844 693.211 34.9908 693.114 34.991C692.854 34.9969 692.596 34.9574 692.351 34.874C692.149 34.8023 691.97 34.6796 691.83 34.518C691.686 34.3424 691.585 34.1359 691.535 33.9148C691.469 33.6328 691.438 33.3438 691.442 33.0542V29.7126H690.642C690.609 29.7119 690.578 29.7019 690.551 29.6839C690.524 29.6659 690.502 29.6406 690.489 29.6109C690.444 29.5073 690.424 29.3942 690.431 29.2813C690.43 29.2131 690.436 29.145 690.448 29.0778C690.456 29.0309 690.47 28.9852 690.489 28.9415C690.502 28.9095 690.525 28.8826 690.555 28.8652C690.584 28.8501 690.616 28.8424 690.648 28.8429H691.442V27.4838C691.442 27.4549 691.45 27.4264 691.465 27.4014C691.485 27.3714 691.514 27.348 691.547 27.3343C691.599 27.3128 691.653 27.2991 691.709 27.2936C691.793 27.2846 691.878 27.2805 691.963 27.2814C692.05 27.2804 692.137 27.2845 692.224 27.2936C692.278 27.2987 692.332 27.3125 692.382 27.3343C692.415 27.3492 692.443 27.3724 692.465 27.4014C692.481 27.4257 692.49 27.4544 692.49 27.4838V28.8429H693.958C693.989 28.8422 694.02 28.8499 694.046 28.8652C694.076 28.884 694.099 28.9104 694.114 28.9415C694.134 28.9845 694.148 29.0305 694.154 29.0778C694.163 29.1453 694.167 29.2133 694.167 29.2813C694.174 29.3941 694.154 29.5071 694.11 29.6109C694.096 29.6405 694.075 29.6658 694.048 29.6838C694.021 29.7018 693.989 29.7118 693.957 29.7126H692.489V32.9006C692.471 33.208 692.531 33.515 692.664 33.7927C692.73 33.8968 692.823 33.9805 692.933 34.0345C693.044 34.0884 693.167 34.1103 693.29 34.0979C693.377 34.0991 693.465 34.0895 693.55 34.0694C693.626 34.0501 693.695 34.0308 693.754 34.0094C693.813 33.988 693.863 33.9687 693.906 33.9494C693.942 33.9318 693.981 33.9221 694.021 33.9209C694.042 33.9212 694.063 33.9268 694.081 33.9372C694.103 33.9508 694.119 33.9722 694.126 33.9972C694.139 34.0367 694.148 34.0772 694.154 34.1182C694.164 34.1798 694.169 34.2421 694.169 34.3044Z" fill="#35373A"/>
<path d="M700.476 34.7215C700.477 34.7523 700.468 34.7826 700.451 34.808C700.429 34.8346 700.4 34.8553 700.368 34.868C700.318 34.8881 700.264 34.9008 700.21 34.9056C700.125 34.9153 700.04 34.9197 699.955 34.9188C699.868 34.9198 699.781 34.9154 699.695 34.9056C699.64 34.9008 699.587 34.8881 699.536 34.868C699.504 34.8553 699.476 34.8346 699.454 34.808C699.436 34.7826 699.427 34.7523 699.428 34.7215V31.3748C699.435 31.1102 699.409 30.8459 699.352 30.5874C699.308 30.4047 699.233 30.2309 699.13 30.0737C699.036 29.9324 698.906 29.8184 698.753 29.7431C698.585 29.6642 698.401 29.6252 698.216 29.6292C697.93 29.6371 697.655 29.735 697.429 29.909C697.117 30.143 696.839 30.4185 696.603 30.7278V34.7225C696.604 34.7533 696.595 34.7836 696.577 34.809C696.555 34.8356 696.527 34.8563 696.495 34.869C696.444 34.889 696.39 34.9016 696.336 34.9066C696.25 34.9164 696.163 34.9208 696.076 34.9199C695.991 34.9207 695.906 34.9163 695.821 34.9066C695.766 34.9014 695.712 34.8888 695.66 34.869C695.627 34.8576 695.598 34.8367 695.577 34.809C695.562 34.7829 695.554 34.7529 695.555 34.7225V29.0056C695.554 28.976 695.56 28.9465 695.574 28.9202C695.593 28.8917 695.619 28.8694 695.65 28.8561C695.696 28.8349 695.746 28.8221 695.796 28.8185C695.951 28.8053 696.107 28.8053 696.263 28.8185C696.312 28.8212 696.361 28.834 696.405 28.8561C696.434 28.8714 696.459 28.8934 696.478 28.9202C696.494 28.946 696.502 28.9756 696.501 29.0056V29.7614C696.772 29.4428 697.098 29.1752 697.463 28.9711C697.761 28.8095 698.093 28.7233 698.432 28.7198C698.763 28.7094 699.092 28.7756 699.394 28.9131C699.643 29.033 699.859 29.2105 700.026 29.4308C700.191 29.6576 700.309 29.9158 700.371 30.1897C700.446 30.5328 700.48 30.8834 700.473 31.2344V34.7215H700.476Z" fill="#35373A"/>
<path d="M707.271 31.6208C707.278 31.685 707.27 31.7498 707.249 31.8107C707.227 31.8715 707.193 31.9269 707.147 31.9728C707.068 32.0399 706.967 32.076 706.863 32.0745H703.1C703.097 32.3632 703.129 32.6512 703.195 32.932C703.252 33.1711 703.361 33.3945 703.515 33.5861C703.669 33.773 703.869 33.9173 704.096 34.0052C704.375 34.11 704.671 34.1597 704.969 34.1517C705.213 34.1542 705.457 34.1317 705.697 34.0846C705.884 34.0469 706.068 33.997 706.249 33.935C706.404 33.8794 706.532 33.8296 706.632 33.7855C706.702 33.7493 706.779 33.7268 706.858 33.7194C706.886 33.719 706.914 33.7268 706.938 33.7418C706.962 33.758 706.981 33.7815 706.992 33.8089C707.007 33.8487 707.016 33.8905 707.02 33.933C707.027 33.9972 707.031 34.0617 707.03 34.1263C707.031 34.1742 707.029 34.222 707.024 34.2697C707.021 34.3059 707.015 34.3419 707.008 34.3775C707.002 34.4076 706.992 34.4365 706.976 34.463C706.961 34.4898 706.942 34.5144 706.919 34.5362C706.857 34.5826 706.788 34.6208 706.716 34.6501C706.572 34.7136 706.423 34.7656 706.271 34.8058C706.063 34.8623 705.853 34.9078 705.64 34.9421C705.387 34.9832 705.13 35.0033 704.874 35.0021C704.454 35.0103 704.036 34.9438 703.639 34.8058C703.3 34.6841 702.994 34.484 702.747 34.2219C702.494 33.9433 702.307 33.6113 702.2 33.2504C702.07 32.8095 702.008 32.3512 702.016 31.8914C702.01 31.4434 702.074 30.9971 702.207 30.569C702.32 30.2027 702.507 29.8635 702.756 29.5721C702.994 29.3 703.29 29.0852 703.623 28.9435C703.983 28.7928 704.37 28.718 704.76 28.7237C705.153 28.7127 705.544 28.7862 705.906 28.9394C706.206 29.0717 706.472 29.2703 706.684 29.5202C706.892 29.7719 707.044 30.0639 707.132 30.3778C707.229 30.7199 707.277 31.074 707.274 31.4296V31.6208H707.271ZM706.218 31.3095C706.256 30.8472 706.125 30.3866 705.849 30.0136C705.707 29.8525 705.53 29.7262 705.331 29.6447C705.132 29.5632 704.917 29.5286 704.703 29.5436C704.467 29.5386 704.233 29.5884 704.019 29.6891C703.829 29.7817 703.662 29.9139 703.527 30.0767C703.392 30.2438 703.289 30.4341 703.222 30.6382C703.149 30.8545 703.108 31.0804 703.101 31.3085L706.218 31.3095Z" fill="#35373A"/>
<path d="M712.206 29.3839C712.206 29.4774 712.206 29.5558 712.2 29.6188C712.198 29.6696 712.19 29.7199 712.174 29.7684C712.165 29.7991 712.148 29.8272 712.127 29.8508C712.116 29.8606 712.103 29.8682 712.09 29.8731C712.076 29.878 712.062 29.8801 712.047 29.8793C712.004 29.8772 711.962 29.8676 711.923 29.8508C711.874 29.8314 711.821 29.8121 711.757 29.7928C711.693 29.7735 711.627 29.7562 711.554 29.7389C711.472 29.7213 711.389 29.7128 711.306 29.7134C711.199 29.7136 711.093 29.7351 710.994 29.7765C710.877 29.8292 710.769 29.8999 710.674 29.9861C710.544 30.1031 710.426 30.2329 710.322 30.3736C710.199 30.5344 710.064 30.731 709.915 30.9636V34.7274C709.916 34.7582 709.907 34.7885 709.89 34.8139C709.868 34.8405 709.839 34.8612 709.807 34.8739C709.756 34.8939 709.703 34.9065 709.649 34.9115C709.562 34.9213 709.475 34.9257 709.388 34.9247C709.303 34.9256 709.218 34.9212 709.134 34.9115C709.078 34.9063 709.024 34.8937 708.972 34.8739C708.939 34.8625 708.911 34.8416 708.89 34.8139C708.874 34.7878 708.866 34.7578 708.867 34.7274V29.0075C708.866 28.9778 708.873 28.9484 708.887 28.922C708.905 28.8939 708.932 28.8719 708.963 28.859C709.009 28.8377 709.058 28.825 709.108 28.8213C709.264 28.8082 709.42 28.8082 709.575 28.8213C709.625 28.8241 709.673 28.8369 709.718 28.859C709.747 28.8743 709.772 28.8962 709.791 28.9231C709.806 28.9488 709.814 28.9785 709.813 29.0085V29.8406C709.945 29.643 710.093 29.4562 710.255 29.2821C710.372 29.1552 710.503 29.0413 710.645 28.9424C710.757 28.865 710.88 28.8068 711.011 28.7705C711.13 28.7388 711.253 28.7227 711.376 28.7227C711.431 28.7227 711.494 28.7227 711.563 28.7318C711.637 28.7387 711.71 28.7502 711.783 28.7664C711.851 28.7819 711.919 28.8009 711.986 28.8234C712.033 28.8375 712.077 28.8592 712.116 28.8874C712.137 28.9037 712.155 28.9242 712.167 28.9475C712.177 28.9711 712.185 28.9956 712.19 29.0207C712.197 29.0637 712.201 29.1072 712.202 29.1509C712.202 29.2079 712.202 29.2852 712.202 29.3828L712.206 29.3839Z" fill="#35373A"/>
</g>
<defs>
<clipPath id="clip0_3456_3400">
<rect width="159.32" height="35" fill="white"/>
</clipPath>
<clipPath id="clip1_3456_3400">
<rect width="229.6" height="35" fill="white" transform="translate(366.32)"/>
</clipPath>
<clipPath id="clip2_3456_3400">
<rect width="170.685" height="35" fill="white" transform="translate(625.922)"/>
</clipPath>
</defs>
</svg>
