<svg width="160" height="35" viewBox="0 0 160 35" fill="none" xmlns="http://www.w3.org/2000/svg">
<g clip-path="url(#clip0_3456_3401)">
<path d="M12.5844 15.4831H11.1397V7.07247C11.1397 6.40924 11.1798 5.60041 11.2599 4.64597H11.2258C11.1354 5.05966 11.0118 5.4654 10.8562 5.85922L6.64835 15.4771H5.94704L1.72921 5.93336C1.56699 5.51777 1.44324 5.08818 1.35952 4.64997H1.32446C1.37055 5.1509 1.39359 5.96575 1.39359 7.09451V15.4831H0V2.96484H1.90955L5.69458 11.6941C5.91676 12.1809 6.10359 12.6831 6.25361 13.1968H6.31372C6.60092 12.3954 6.79863 11.8834 6.90683 11.661L10.77 2.96484H12.5854L12.5844 15.4831Z" fill="#35373A"/>
<path d="M16.6019 15.4845H15.1913V6.54593H16.6019V15.4845ZM16.8423 3.34198C16.8458 3.46645 16.823 3.59025 16.7756 3.70537C16.7281 3.82049 16.657 3.92435 16.5668 4.01022C16.3919 4.17955 16.1584 4.27497 15.9149 4.27665C15.6714 4.27833 15.4367 4.18614 15.2594 4.01923C15.1705 3.93118 15.1009 3.82557 15.055 3.70915C15.0091 3.59272 14.988 3.46802 14.9929 3.34298C14.9915 3.22262 15.0139 3.10318 15.059 2.99157C15.104 2.87995 15.1708 2.77839 15.2554 2.69277C15.3396 2.60324 15.4417 2.53251 15.5552 2.4852C15.6686 2.4379 15.7907 2.41508 15.9136 2.41826C16.0357 2.41679 16.1569 2.43971 16.27 2.48567C16.3832 2.53163 16.486 2.59972 16.5725 2.68593C16.659 2.77215 16.7274 2.87476 16.7738 2.98776C16.8201 3.10075 16.8434 3.22186 16.8423 3.34398" fill="#35373A"/>
<path d="M24.9557 15.0756C24.2247 15.5075 23.387 15.7252 22.5383 15.7038C21.7796 15.7154 21.032 15.5208 20.3752 15.1407C19.7345 14.7648 19.2161 14.2116 18.8825 13.5478C18.5199 12.8313 18.337 12.0374 18.3495 11.2345C18.2871 9.92966 18.736 8.65195 19.6008 7.67286C20.028 7.22358 20.5466 6.87111 21.1216 6.63918C21.6966 6.40725 22.3146 6.30127 22.934 6.32836C23.6401 6.31441 24.3393 6.47004 24.9728 6.78221V8.24893C24.3633 7.79847 23.6267 7.55292 22.8689 7.54763C22.4477 7.53522 22.0291 7.61785 21.6442 7.78938C21.2594 7.96092 20.9181 8.21695 20.6457 8.53847C20.0546 9.25779 19.75 10.1701 19.7902 11.1002C19.7404 11.9967 20.0305 12.8789 20.6027 13.5708C20.8773 13.8729 21.2151 14.1109 21.592 14.2677C21.969 14.4246 22.3758 14.4966 22.7837 14.4785C23.5719 14.4718 24.3352 14.2013 24.9517 13.7101V15.0716" fill="#35373A"/>
<path d="M31.2342 7.99486C31.0243 7.8623 30.7901 7.7728 30.5453 7.73156C30.3005 7.69033 30.0499 7.6982 29.8082 7.75469C29.5664 7.81119 29.3383 7.91519 29.1372 8.06065C28.936 8.20611 28.7657 8.39013 28.6363 8.60199C28.2184 9.30367 28.015 10.1124 28.0512 10.9283V15.4848H26.6406V6.54517H28.0512V8.38759H28.0853C28.2451 7.82645 28.5572 7.32052 28.987 6.92587C29.3703 6.57682 29.8711 6.38507 30.3896 6.38888C30.6756 6.37643 30.9614 6.4179 31.2322 6.5111V7.99486" fill="#35373A"/>
<path d="M38.6636 11.0313C38.7246 10.111 38.4647 9.1979 37.9282 8.44754C37.6714 8.14447 37.3477 7.90524 36.9825 7.74876C36.6174 7.59228 36.2209 7.52282 35.8243 7.54587C35.4196 7.52744 35.0159 7.60068 34.6435 7.76011C34.271 7.91953 33.9394 8.16103 33.6733 8.46657C33.1041 9.20797 32.8229 10.1306 32.8819 11.0634C32.8287 11.9679 33.112 12.86 33.6773 13.568C33.9458 13.868 34.2776 14.1046 34.6488 14.2605C35.02 14.4165 35.4212 14.4879 35.8233 14.4697C36.2189 14.4935 36.6147 14.4255 36.9797 14.271C37.3446 14.1165 37.6689 13.8797 37.9272 13.5791C38.4604 12.8372 38.7189 11.9329 38.6586 11.0213M40.1033 10.9692C40.1631 12.2222 39.7363 13.4499 38.9121 14.3956C38.5043 14.8293 38.0075 15.1696 37.4559 15.3934C36.9043 15.6172 36.3108 15.719 35.7161 15.692C35.1375 15.7183 34.5601 15.6199 34.0228 15.4035C33.4856 15.1871 33.0011 14.8577 32.6023 14.4377C31.7983 13.5234 31.3805 12.3327 31.4372 11.1165C31.3667 9.83702 31.7952 8.58007 32.6324 7.60998C33.0579 7.17284 33.572 6.8318 34.1401 6.60975C34.7083 6.3877 35.3174 6.28979 35.9265 6.32259C36.4983 6.29235 37.0697 6.38813 37.6003 6.60316C38.1309 6.81818 38.6078 7.14719 38.9972 7.5669C39.7806 8.52336 40.1767 9.73886 40.1073 10.9732" fill="#35373A"/>
<path d="M46.6532 13.0923C46.663 13.4535 46.5884 13.812 46.4354 14.1393C46.2823 14.4666 46.0551 14.7537 45.7716 14.9778C45.1001 15.4882 44.2697 15.7447 43.4272 15.7021C42.6637 15.7194 41.9094 15.5327 41.2422 15.1611V13.6242C41.8785 14.1733 42.6901 14.4767 43.5304 14.4798C44.6485 14.4798 45.2076 14.0637 45.2076 13.2315C45.2132 13.079 45.1871 12.9269 45.1309 12.7849C45.0746 12.643 44.9895 12.5143 44.8809 12.407C44.427 12.0533 43.9263 11.764 43.3932 11.5474C42.7677 11.3145 42.2033 10.9428 41.7421 10.4604C41.3695 9.94894 41.2032 9.31585 41.2766 8.68731C41.3499 8.05877 41.6575 7.48096 42.1379 7.06907C42.7659 6.5594 43.5578 6.29554 44.366 6.32669C45.0179 6.31733 45.663 6.46075 46.2495 6.74547V8.18615C45.6724 7.76017 44.971 7.53623 44.2538 7.54896C43.8503 7.52982 43.4529 7.65363 43.1317 7.89861C42.9953 8.00529 42.8858 8.14239 42.8119 8.29895C42.7379 8.45551 42.7017 8.6272 42.7059 8.80029C42.6949 8.96653 42.7182 9.13326 42.7744 9.2901C42.8306 9.44695 42.9184 9.59055 43.0325 9.71198C43.4392 10.0347 43.8952 10.2898 44.383 10.4674C45.0464 10.713 45.6481 11.1004 46.1463 11.6025C46.4929 12.021 46.6737 12.5522 46.6542 13.0953" fill="#35373A"/>
<path d="M54.8345 11.0313C54.8954 10.111 54.6356 9.1979 54.0991 8.44754C53.8423 8.14447 53.5185 7.90524 53.1534 7.74876C52.7883 7.59228 52.3918 7.52282 51.9952 7.54587C51.5905 7.52744 51.1868 7.60068 50.8144 7.76011C50.4419 7.91953 50.1103 8.16103 49.8442 8.46657C49.275 9.20797 48.9938 10.1306 49.0527 11.0634C48.9995 11.9679 49.2829 12.86 49.8482 13.568C50.1167 13.868 50.4485 14.1046 50.8197 14.2605C51.1908 14.4165 51.592 14.4879 51.9942 14.4697C52.3898 14.4935 52.7856 14.4255 53.1505 14.271C53.5155 14.1165 53.8398 13.8797 54.0981 13.5791C54.6312 12.8372 54.8898 11.9329 54.8295 11.0213M56.2742 10.9692C56.334 12.2222 55.9071 13.4499 55.0829 14.3956C54.6751 14.8293 54.1784 15.1696 53.6268 15.3934C53.0752 15.6172 52.4817 15.719 51.887 15.692C51.3086 15.7182 50.7313 15.6197 50.1942 15.4033C49.6572 15.1869 49.1729 14.8576 48.7742 14.4377C47.9702 13.5234 47.5525 12.3327 47.6091 11.1165C47.5386 9.83702 47.967 8.58007 48.8043 7.60998C49.2297 7.17284 49.7438 6.8318 50.312 6.60975C50.8802 6.3877 51.4893 6.28979 52.0984 6.32259C52.6701 6.29235 53.2415 6.38813 53.7722 6.60316C54.3028 6.81818 54.7797 7.14719 55.1691 7.5669C55.9525 8.52336 56.3486 9.73886 56.2791 10.9732" fill="#35373A"/>
<path d="M62.0593 3.50942C61.7729 3.34958 61.4494 3.26835 61.1215 3.27398C60.135 3.27398 59.6418 3.90549 59.6418 5.1685V6.54806H61.7066V7.76131H59.6418V15.4867H58.2312V7.76031H56.7344V6.54706H58.2312V5.09837C58.1936 4.28798 58.4781 3.49563 59.0226 2.89427C59.2794 2.61976 59.5917 2.40308 59.9388 2.25866C60.2858 2.11424 60.6596 2.0454 61.0354 2.05672C61.3836 2.04327 61.7311 2.09667 62.0593 2.21401V3.50942Z" fill="#35373A"/>
<path d="M67.1816 15.3987C66.7723 15.6072 66.3161 15.7066 65.8571 15.6872C64.321 15.6872 63.5529 14.8086 63.5529 13.0513V7.76151H62.0391V6.54725H63.5529V4.3652L64.9635 3.90234V6.54725H67.1826V7.76051H64.9635V12.8059C64.9237 13.2532 65.0291 13.7015 65.264 14.0843C65.3907 14.2202 65.5469 14.3252 65.7207 14.391C65.8944 14.4569 66.081 14.4818 66.2659 14.464C66.5932 14.4712 66.9137 14.3702 67.1776 14.1764V15.3987" fill="#35373A"/>
<path d="M20.54 24.0221C20.54 22.3637 19.5766 21.5345 17.6496 21.5345H15.9545V26.667H17.4683C18.286 26.7222 19.0959 26.4787 19.7475 25.9817C20.0172 25.7348 20.2282 25.4306 20.3652 25.0915C20.5021 24.7525 20.5625 24.3871 20.54 24.0221ZM22.0528 23.944C22.0738 24.4926 21.9743 25.0391 21.7612 25.545C21.5481 26.051 21.2267 26.5041 20.8195 26.8724C19.9206 27.6417 18.7624 28.0397 17.5805 27.9855H15.9545V32.7253H14.5078V20.208H17.8971C19.0064 20.138 20.1014 20.4885 20.9638 21.1898C21.3343 21.5424 21.6235 21.9714 21.8114 22.447C21.9993 22.9226 22.0823 23.4334 22.0528 23.944Z" fill="#35373A"/>
<path d="M28.0068 28.201L25.8739 28.5016C25.3261 28.54 24.7981 28.7221 24.343 29.0296C24.1852 29.1848 24.064 29.3732 23.9881 29.5812C23.9122 29.7891 23.8835 30.0114 23.9042 30.2318C23.8964 30.4355 23.9349 30.6384 24.0168 30.8251C24.0987 31.0118 24.2219 31.1775 24.3771 31.3098C24.718 31.5893 25.1499 31.7338 25.5904 31.7155C25.9165 31.7241 26.2405 31.6613 26.5398 31.5317C26.8392 31.4021 27.1067 31.2088 27.3236 30.9651C27.7849 30.4511 28.03 29.7789 28.0079 29.0887V28.198M29.4185 32.7194H28.0068V31.3258H27.9728C27.7212 31.8236 27.3333 32.2396 26.8544 32.5255C26.3755 32.8114 25.8253 32.9555 25.2678 32.9408C24.5232 32.9783 23.7929 32.7271 23.229 32.2395C22.9726 31.9984 22.7715 31.7048 22.6393 31.3786C22.5072 31.0524 22.4472 30.7015 22.4636 30.35C22.4636 28.6856 23.432 27.7138 25.369 27.4346L28.0068 27.0529C28.0068 25.5401 27.4017 24.7837 26.1915 24.7837C25.1323 24.7828 24.1098 25.1711 23.3181 25.8747V24.413C23.724 24.1486 24.1719 23.9551 24.6426 23.8409C25.1832 23.6712 25.7452 23.5788 26.3117 23.5664C28.3822 23.5664 29.4175 24.6808 29.4175 26.9096V32.7204" fill="#35373A"/>
<path d="M36.2213 25.2332C36.0114 25.1006 35.7773 25.0111 35.5325 24.9699C35.2877 24.9286 35.0371 24.9365 34.7953 24.993C34.5536 25.0495 34.3255 25.1535 34.1243 25.299C33.9232 25.4444 33.7529 25.6284 33.6235 25.8403C33.2055 26.542 33.0021 27.3507 33.0384 28.1666V32.7231H31.6328V23.7845H33.0434V25.6259H33.0775C33.2373 25.0648 33.5494 24.5588 33.9792 24.1642C34.3626 23.8152 34.8634 23.6235 35.3818 23.6272C35.6678 23.6147 35.9536 23.6561 36.2243 23.7494V25.2332" fill="#35373A"/>
<path d="M42.7988 32.637C42.3895 32.8454 41.9333 32.9448 41.4743 32.9255C39.9382 32.9255 39.1701 32.0469 39.1701 30.2896V24.9998H37.6562V23.7855H39.1701V21.6035L40.5807 21.1406V23.7855H42.7998V24.9988H40.5807V30.0452C40.5408 30.4925 40.6462 30.9408 40.8812 31.3235C41.0078 31.4595 41.1641 31.5646 41.3378 31.6304C41.5116 31.6963 41.6982 31.7212 41.8831 31.7032C42.2104 31.7104 42.5309 31.6094 42.7948 31.4157V32.638" fill="#35373A"/>
<path d="M52.087 32.7217H50.6764V27.6243C50.6764 25.7334 49.9941 24.7877 48.6296 24.787C48.2978 24.7822 47.9692 24.8517 47.6677 24.9904C47.3663 25.1291 47.0996 25.3334 46.8874 25.5885C46.4073 26.1563 46.1571 26.8833 46.1861 27.6263V32.7237H44.7734V23.7831H46.1841V25.2669H46.2181C46.491 24.74 46.907 24.3007 47.4183 23.9994C47.9295 23.6982 48.5153 23.5472 49.1085 23.5637C49.5273 23.5377 49.9462 23.611 50.3312 23.7779C50.7162 23.9447 51.0562 24.2002 51.3236 24.5235C51.8778 25.3191 52.1461 26.2789 52.085 27.2466V32.7197" fill="#35373A"/>
<path d="M59.8705 27.4002C59.9022 26.7099 59.6941 26.0299 59.2814 25.4756C59.0829 25.2456 58.8342 25.0642 58.5546 24.9454C58.275 24.8266 57.9718 24.7735 57.6684 24.7903C57.3545 24.7864 57.0432 24.848 56.7544 24.9711C56.4656 25.0943 56.2057 25.2764 55.9913 25.5057C55.5052 26.0281 55.1979 26.6916 55.1137 27.4002H59.8705ZM61.3152 28.6134H55.0956C55.0606 29.453 55.3416 30.2752 55.8831 30.9177C56.1544 31.1911 56.4806 31.4039 56.8401 31.542C57.1997 31.6801 57.5844 31.7405 57.969 31.7192C58.9641 31.7204 59.9284 31.3746 60.696 30.7414V32.0769C59.7971 32.6921 58.7213 32.9958 57.6333 32.9415C57.0817 32.9705 56.5305 32.8745 56.0212 32.6606C55.5118 32.4467 55.0574 32.1204 54.6919 31.7062C53.937 30.7328 53.561 29.5185 53.6339 28.2888C53.6235 27.4516 53.8044 26.623 54.1629 25.8663C54.4812 25.1756 54.9861 24.5875 55.6206 24.1682C56.2346 23.7686 56.953 23.5595 57.6854 23.5671C58.1872 23.5407 58.6883 23.6288 59.1511 23.8245C59.6138 24.0203 60.0259 24.3187 60.3564 24.6972C61.0446 25.6029 61.3849 26.7256 61.3152 27.861V28.6114" fill="#35373A"/>
<path d="M67.531 25.2332C67.3211 25.1006 67.087 25.0111 66.8422 24.9699C66.5974 24.9287 66.3468 24.9365 66.105 24.993C65.8633 25.0495 65.6352 25.1535 65.434 25.299C65.2329 25.4444 65.0626 25.6285 64.9332 25.8403C64.5153 26.542 64.3119 27.3507 64.3481 28.1666V32.7231H62.9375V23.7845H64.3481V25.6259H64.3832C64.543 25.0648 64.8551 24.5589 65.2849 24.1642C65.6682 23.8151 66.169 23.6233 66.6875 23.6272C66.9738 23.6146 67.26 23.6561 67.531 23.7494V25.2332Z" fill="#35373A"/>
<path d="M74.5234 0V35" stroke="#35373A" stroke-width="0.567462" stroke-miterlimit="10"/>
<path d="M86.2137 12.9032C86.2245 13.1381 86.1797 13.3723 86.0831 13.5868C85.9865 13.8012 85.8407 13.9899 85.6576 14.1375C85.2205 14.4567 84.6863 14.615 84.1458 14.5853C83.8799 14.5805 83.6158 14.5424 83.3594 14.4721C83.1422 14.4236 82.934 14.3415 82.7422 14.2286V13.364C82.9468 13.54 83.1826 13.676 83.4375 13.7648C83.6954 13.8656 83.9691 13.9199 84.246 13.9251C85.0475 13.9251 85.4482 13.6138 85.4482 12.9913C85.4531 12.7434 85.3611 12.5033 85.1917 12.3221C84.8763 12.0293 84.5224 11.7809 84.1398 11.5837C83.7327 11.3773 83.3672 11.0974 83.0618 10.7582C82.8248 10.4346 82.7184 10.0337 82.7635 9.63515C82.8086 9.23662 83.002 8.86965 83.3052 8.60719C83.7087 8.28504 84.2151 8.1199 84.7309 8.14233C85.1513 8.11449 85.5721 8.19053 85.9562 8.36374V9.18026C85.5907 8.9122 85.1446 8.77716 84.6918 8.79755C84.3878 8.78458 84.0885 8.87655 83.8442 9.05803C83.7395 9.13754 83.6553 9.24096 83.5986 9.35965C83.542 9.47834 83.5146 9.60885 83.5187 9.74029C83.513 9.91083 83.5472 10.0803 83.6188 10.2352C83.7028 10.3796 83.8153 10.5054 83.9494 10.6049C84.2001 10.7862 84.4629 10.9502 84.7359 11.0958C85.1705 11.3132 85.5622 11.6075 85.892 11.9644C86.1096 12.2285 86.2267 12.561 86.2226 12.9032" fill="#35373A"/>
<path d="M88.1951 8.42933C88.1965 8.49174 88.1849 8.55376 88.1609 8.61139C88.1369 8.66903 88.1011 8.721 88.0558 8.76395C87.9656 8.84625 87.8478 8.89187 87.7257 8.89187C87.6036 8.89187 87.4858 8.84625 87.3956 8.76395C87.3074 8.67573 87.2578 8.55609 87.2578 8.43133C87.2578 8.30658 87.3074 8.18693 87.3956 8.09871C87.4838 8.0105 87.6034 7.96094 87.7282 7.96094C87.853 7.96094 87.9726 8.0105 88.0608 8.09871C88.1042 8.14095 88.1385 8.19163 88.1616 8.24763C88.1847 8.30363 88.1961 8.36376 88.1951 8.42432M88.0738 14.4685H87.3615V10.0233H88.0738V14.4725" fill="#35373A"/>
<path d="M90.2279 14.473H89.5156V7.88672H90.2279V14.473Z" fill="#35373A"/>
<path d="M95.1625 10.0234L93.3902 14.4727H92.6889L91.0078 10.0234H91.7943L92.9244 13.2514C92.9929 13.4551 93.0422 13.6647 93.0716 13.8776H93.0937C93.118 13.6727 93.1647 13.4712 93.233 13.2765L94.4191 10.0264H95.1665" fill="#35373A"/>
<path d="M99.4773 12.4271H96.3355C96.3181 12.8469 96.4593 13.2579 96.7312 13.5783C96.8702 13.7137 97.0359 13.8188 97.2177 13.8869C97.3994 13.9551 97.5933 13.9847 97.7871 13.974C98.2887 13.9749 98.7752 13.803 99.1647 13.4871V14.1523C98.709 14.4588 98.1664 14.6096 97.6179 14.5821C97.3403 14.5971 97.0628 14.55 96.8058 14.4441C96.5487 14.3382 96.3186 14.1762 96.1321 13.97C95.752 13.4866 95.562 12.8807 95.5981 12.2668C95.593 11.851 95.6839 11.4396 95.8636 11.0646C96.0261 10.7189 96.2818 10.4254 96.602 10.217C96.9129 10.0174 97.2754 9.91292 97.6449 9.91648C97.8974 9.90291 98.1498 9.9467 98.3829 10.0446C98.6161 10.1424 98.8242 10.2918 98.9914 10.4815C99.3403 10.9288 99.5135 11.4883 99.4783 12.0544V12.4281M98.7479 11.827C98.764 11.4829 98.6575 11.1442 98.4474 10.8712C98.3472 10.7558 98.2218 10.6648 98.081 10.6052C97.9402 10.5456 97.7876 10.5191 97.6349 10.5276C97.4767 10.5254 97.3197 10.556 97.1738 10.6174C97.028 10.6788 96.8964 10.7696 96.7873 10.8843C96.5426 11.143 96.3874 11.4735 96.3445 11.827H98.749" fill="#35373A"/>
<path d="M102.828 10.7459C102.614 10.6119 102.356 10.5683 102.11 10.6246C101.864 10.681 101.65 10.8327 101.516 11.0465C101.305 11.3939 101.202 11.7964 101.22 12.2026V14.4708H100.508V10.0246H101.22V10.9413H101.237C101.318 10.6616 101.476 10.4103 101.693 10.2159C101.887 10.0407 102.14 9.94454 102.401 9.94641C102.546 9.94013 102.69 9.96086 102.827 10.0075V10.7459" fill="#35373A"/>
<path d="M110.775 11.2788C110.787 11.8662 110.643 12.4462 110.358 12.96C110.082 13.4422 109.669 13.8322 109.172 14.081C108.625 14.3494 108.022 14.4833 107.413 14.4718H105.766V8.24219H107.486C109.679 8.24219 110.775 9.2544 110.775 11.2788ZM110.011 11.2959C110.011 9.69956 109.163 8.90141 107.469 8.90141H106.496V13.8105H107.422C107.768 13.8323 108.115 13.7855 108.443 13.6729C108.771 13.5603 109.073 13.3841 109.333 13.1543C109.568 12.9076 109.749 12.6152 109.866 12.2953C109.983 11.9753 110.032 11.6348 110.012 11.2949" fill="#35373A"/>
<path d="M115.063 14.4735H114.35V13.7782H114.333C114.217 13.9784 114.059 14.1511 113.87 14.2849C113.681 14.4186 113.465 14.5102 113.238 14.5534C113.011 14.5966 112.777 14.5905 112.552 14.5354C112.327 14.4803 112.116 14.3776 111.935 14.2341C111.806 14.1144 111.704 13.9681 111.638 13.8053C111.571 13.6425 111.54 13.4671 111.548 13.2913C111.548 12.4631 112.038 11.9792 113.017 11.8396L114.35 11.6533C114.35 10.8999 114.045 10.5232 113.434 10.5232C112.9 10.5225 112.384 10.7154 111.982 11.0662V10.3358C112.187 10.2043 112.414 10.1088 112.651 10.0533C112.924 9.9674 113.208 9.92052 113.494 9.91406C114.54 9.91406 115.063 10.4688 115.063 11.5782V14.4715M114.35 12.2213L113.272 12.3736C112.996 12.3925 112.729 12.4841 112.499 12.6391C112.419 12.7152 112.358 12.8083 112.32 12.9113C112.282 13.0144 112.267 13.1248 112.277 13.2342C112.274 13.3363 112.293 13.4378 112.335 13.5312C112.376 13.6245 112.438 13.7073 112.516 13.7732C112.689 13.9116 112.907 13.9827 113.129 13.9736C113.293 13.9782 113.456 13.9472 113.607 13.8827C113.758 13.8181 113.893 13.7217 114.003 13.5999C114.236 13.3461 114.361 13.0109 114.35 12.6662V12.2234" fill="#35373A"/>
<path d="M118.465 14.4297C118.258 14.5335 118.027 14.5828 117.796 14.5729C117.02 14.5729 116.632 14.1354 116.632 13.2605V10.6276H115.867V10.0265H116.632V8.93746L117.344 8.70703V10.0235H118.465V10.6246H117.341V13.1363C117.321 13.3602 117.375 13.5844 117.493 13.7754C117.558 13.843 117.638 13.895 117.726 13.9275C117.814 13.9599 117.908 13.972 118.001 13.9628C118.166 13.9666 118.328 13.9163 118.462 13.8195V14.4277" fill="#35373A"/>
<path d="M122.555 14.4735H121.842V13.7782H121.825C121.709 13.9784 121.551 14.1511 121.362 14.2849C121.173 14.4186 120.958 14.5102 120.73 14.5534C120.503 14.5966 120.269 14.5905 120.044 14.5354C119.819 14.4803 119.609 14.3776 119.427 14.2341C119.298 14.1144 119.197 13.9681 119.13 13.8053C119.063 13.6425 119.032 13.4671 119.04 13.2913C119.04 12.4631 119.53 11.9792 120.509 11.8396L121.842 11.6533C121.842 10.8999 121.537 10.5232 120.926 10.5232C120.392 10.5225 119.876 10.7154 119.474 11.0662V10.3358C119.679 10.2043 119.906 10.1088 120.143 10.0533C120.416 9.96742 120.7 9.92053 120.986 9.91406C122.032 9.91406 122.555 10.4688 122.555 11.5782V14.4715M121.842 12.2213L120.764 12.3736C120.488 12.3925 120.221 12.4841 119.991 12.6391C119.912 12.7152 119.851 12.8083 119.812 12.9113C119.774 13.0144 119.759 13.1248 119.77 13.2342C119.766 13.3363 119.786 13.4378 119.827 13.5312C119.868 13.6245 119.93 13.7073 120.008 13.7732C120.182 13.9116 120.399 13.9827 120.621 13.9736C120.785 13.9782 120.948 13.9472 121.099 13.8827C121.25 13.8181 121.385 13.7217 121.495 13.5999C121.728 13.3461 121.853 13.0109 121.842 12.6662V12.2234" fill="#35373A"/>
<path d="M129.858 10.1023C129.868 10.3767 129.817 10.6498 129.709 10.9022C129.601 11.1546 129.438 11.3799 129.233 11.562C128.777 11.9448 128.193 12.1419 127.599 12.114H126.777V14.4734H126.047V8.24282H127.759C128.318 8.20717 128.87 8.38234 129.306 8.73374C129.493 8.907 129.64 9.11956 129.735 9.35617C129.831 9.59277 129.873 9.84757 129.858 10.1023ZM129.094 10.1414C129.094 9.31582 128.607 8.90305 127.634 8.90305H126.778V11.4578H127.543C127.954 11.4856 128.363 11.3655 128.694 11.1192C128.83 10.9967 128.936 10.8453 129.006 10.676C129.075 10.5067 129.105 10.324 129.095 10.1414" fill="#35373A"/>
<path d="M131.65 14.473H130.938V7.88672H131.65V14.473Z" fill="#35373A"/>
<path d="M136.234 14.4735H135.522V13.7782H135.505C135.389 13.9784 135.231 14.1511 135.042 14.2849C134.853 14.4186 134.637 14.5102 134.41 14.5534C134.182 14.5966 133.948 14.5905 133.724 14.5354C133.499 14.4803 133.288 14.3776 133.107 14.2341C132.978 14.1144 132.876 13.9681 132.809 13.8053C132.743 13.6425 132.712 13.4671 132.72 13.2913C132.72 12.4631 133.21 11.9792 134.189 11.8396L135.522 11.6533C135.522 10.8999 135.217 10.5232 134.605 10.5232C134.072 10.5225 133.556 10.7154 133.154 11.0662V10.3358C133.359 10.2043 133.585 10.1088 133.823 10.0533C134.096 9.9674 134.38 9.92052 134.666 9.91406C135.711 9.91406 136.234 10.4688 136.234 11.5782V14.4715M135.522 12.2213L134.444 12.3736C134.167 12.3925 133.901 12.4841 133.671 12.6391C133.591 12.7152 133.53 12.8082 133.492 12.9113C133.453 13.0143 133.439 13.1248 133.449 13.2342C133.446 13.3363 133.465 13.4379 133.507 13.5313C133.548 13.6247 133.611 13.7074 133.689 13.7732C133.862 13.9116 134.08 13.9827 134.302 13.9736C134.466 13.9782 134.629 13.9472 134.78 13.8827C134.931 13.8181 135.066 13.7217 135.175 13.5999C135.409 13.3461 135.534 13.0109 135.523 12.6662V12.2234" fill="#35373A"/>
<path d="M139.637 14.4297C139.43 14.5335 139.199 14.5828 138.968 14.5729C138.192 14.5729 137.803 14.1354 137.803 13.2605V10.6276H137.039V10.0265H137.803V8.93746L138.516 8.70703V10.0235H139.637V10.6246H138.516V13.1363C138.496 13.3602 138.55 13.5845 138.668 13.7754C138.733 13.843 138.813 13.895 138.901 13.9275C138.989 13.9599 139.083 13.972 139.176 13.9628C139.341 13.9666 139.503 13.9163 139.637 13.8195V14.4277" fill="#35373A"/>
<path d="M142.776 8.51143C142.631 8.43173 142.468 8.39132 142.302 8.39421C141.804 8.39421 141.555 8.70846 141.555 9.33696V10.0232H142.598V10.6244H141.555V14.4695H140.842V10.6244H140.086V10.0232H140.842V9.30189C140.834 9.10196 140.865 8.90227 140.933 8.71433C141.002 8.52639 141.107 8.35392 141.243 8.20686C141.374 8.06984 141.532 7.96191 141.707 7.89009C141.882 7.81828 142.071 7.7842 142.26 7.79008C142.436 7.78336 142.611 7.80987 142.777 7.86823V8.51143" fill="#35373A"/>
<path d="M147.397 12.2337C147.425 12.8579 147.21 13.4688 146.795 13.9368C146.588 14.1529 146.337 14.322 146.059 14.433C145.781 14.5439 145.483 14.594 145.183 14.58C144.891 14.5932 144.6 14.5442 144.328 14.4362C144.056 14.3283 143.81 14.1639 143.607 13.9539C143.203 13.4998 142.992 12.9059 143.019 12.2988C142.984 11.6617 143.2 11.036 143.621 10.5566C143.837 10.3376 144.097 10.1671 144.384 10.0562C144.67 9.94534 144.978 9.89665 145.285 9.91337C145.573 9.89781 145.861 9.94534 146.129 10.0526C146.397 10.1599 146.638 10.3244 146.836 10.5345C147.231 11.0075 147.432 11.6132 147.397 12.2287M146.666 12.2547C146.697 11.7953 146.565 11.3398 146.293 10.9683C146.162 10.8171 145.999 10.698 145.815 10.6204C145.631 10.5427 145.432 10.5085 145.233 10.5205C145.029 10.5112 144.825 10.5477 144.637 10.6275C144.449 10.7072 144.282 10.8282 144.147 10.9814C143.859 11.3477 143.716 11.807 143.746 12.2717C143.719 12.7242 143.862 13.1703 144.147 13.5231C144.284 13.6724 144.452 13.7899 144.64 13.8673C144.828 13.9447 145.03 13.98 145.233 13.9709C145.432 13.9838 145.632 13.9506 145.817 13.8738C146.001 13.797 146.166 13.6787 146.298 13.5281C146.567 13.1603 146.697 12.7094 146.667 12.2547" fill="#35373A"/>
<path d="M150.82 10.7459C150.606 10.6119 150.348 10.5683 150.102 10.6246C149.856 10.681 149.642 10.8327 149.508 11.0465C149.297 11.3939 149.194 11.7964 149.212 12.2026V14.4708H148.5V10.0246H149.212V10.9413H149.229C149.31 10.6616 149.468 10.4103 149.685 10.2159C149.879 10.0407 150.132 9.94454 150.394 9.94641C150.538 9.94013 150.682 9.96086 150.819 10.0075L150.82 10.7459Z" fill="#35373A"/>
<path d="M157.91 14.4751H157.197V11.9204C157.227 11.5491 157.147 11.1772 156.967 10.8514C156.877 10.7372 156.76 10.6475 156.626 10.5906C156.493 10.5337 156.347 10.5114 156.202 10.5258C156.049 10.5276 155.898 10.5665 155.763 10.639C155.627 10.7116 155.511 10.8157 155.425 10.9426C155.21 11.2292 155.099 11.5796 155.107 11.9374V14.4751H154.392V11.8332C154.392 10.9616 154.055 10.5258 153.38 10.5258C153.229 10.5244 153.079 10.5597 152.945 10.6286C152.81 10.6975 152.694 10.798 152.607 10.9215C152.394 11.2168 152.288 11.5752 152.306 11.9384V14.4761H151.594V10.0259H152.306V10.7272H152.323C152.453 10.4758 152.651 10.2662 152.895 10.1224C153.139 9.9787 153.418 9.90668 153.701 9.91466C153.981 9.91154 154.254 9.99672 154.483 10.1581C154.717 10.3237 154.887 10.5645 154.965 10.8404C155.094 10.5588 155.302 10.3211 155.565 10.1566C155.827 9.99215 156.132 9.90804 156.442 9.91466C157.421 9.91466 157.91 10.5201 157.91 11.731V14.4731" fill="#35373A"/>
<path d="M86.2137 25.6922C86.2245 25.9272 86.1797 26.1614 86.0831 26.3758C85.9865 26.5903 85.8407 26.7789 85.6576 26.9265C85.2205 27.2458 84.6863 27.404 84.1458 27.3744C83.8799 27.3695 83.6158 27.3315 83.3594 27.2611C83.1422 27.2127 82.934 27.1305 82.7422 27.0177V26.1531C82.9468 26.3291 83.1826 26.4651 83.4375 26.5538C83.6954 26.6547 83.9691 26.7089 84.246 26.7141C85.0475 26.7141 85.4482 26.4029 85.4482 25.7804C85.4531 25.5324 85.3611 25.2923 85.1917 25.1112C84.8763 24.8183 84.5224 24.5699 84.1398 24.3728C83.7327 24.1663 83.3672 23.8865 83.0618 23.5473C82.8248 23.2236 82.7184 22.8227 82.7635 22.4242C82.8086 22.0257 83.002 21.6587 83.3052 21.3963C83.7087 21.0741 84.2151 20.909 84.7309 20.9314C85.1513 20.9036 85.5721 20.9796 85.9562 21.1528V21.9693C85.5907 21.7013 85.1446 21.5662 84.6918 21.5866C84.3878 21.5736 84.0885 21.6656 83.8442 21.8471C83.7395 21.9266 83.6553 22.03 83.5986 22.1487C83.542 22.2674 83.5146 22.3979 83.5187 22.5294C83.513 22.6999 83.5472 22.8694 83.6188 23.0243C83.7028 23.1687 83.8153 23.2944 83.9494 23.394C84.2001 23.5753 84.4629 23.7393 84.7359 23.8849C85.1705 24.1023 85.5622 24.3966 85.892 24.7535C86.1096 25.0176 86.2267 25.3501 86.2226 25.6922" fill="#35373A"/>
<path d="M88.1951 21.2184C88.1965 21.2808 88.1849 21.3428 88.1609 21.4005C88.1369 21.4581 88.1011 21.5101 88.0558 21.553C87.9656 21.6353 87.8478 21.6809 87.7257 21.6809C87.6036 21.6809 87.4858 21.6353 87.3956 21.553C87.3074 21.4648 87.2578 21.3451 87.2578 21.2204C87.2578 21.0956 87.3074 20.976 87.3956 20.8878C87.4838 20.7996 87.6034 20.75 87.7282 20.75C87.853 20.75 87.9726 20.7996 88.0608 20.8878C88.1042 20.93 88.1385 20.9807 88.1616 21.0367C88.1847 21.0927 88.1961 21.1528 88.1951 21.2134M88.0738 27.2576H87.3615V22.8214H88.0738V27.2706" fill="#35373A"/>
<path d="M90.2279 27.2659H89.5156V20.6797H90.2279V27.2659Z" fill="#35373A"/>
<path d="M95.1625 22.8164L93.3902 27.2657H92.6889L91.0078 22.8164H91.7943L92.9244 26.0444C92.9929 26.2481 93.0422 26.4577 93.0716 26.6706H93.0937C93.118 26.4657 93.1647 26.2641 93.233 26.0694L94.4191 22.8194H95.1665" fill="#35373A"/>
<path d="M99.4773 25.2162H96.3355C96.3181 25.636 96.4593 26.047 96.7312 26.3673C96.8702 26.5028 97.0359 26.6079 97.2177 26.676C97.3994 26.7441 97.5933 26.7738 97.7871 26.7631C98.2887 26.764 98.7752 26.592 99.1647 26.2762V26.9414C98.709 27.2479 98.1664 27.3987 97.6179 27.3712C97.3403 27.3862 97.0628 27.339 96.8058 27.2331C96.5487 27.1272 96.3186 26.9653 96.1321 26.7591C95.752 26.2757 95.562 25.6698 95.5981 25.0559C95.593 24.6401 95.6839 24.2287 95.8636 23.8537C96.0262 23.508 96.2818 23.2145 96.602 23.0061C96.9129 22.8064 97.2754 22.702 97.6449 22.7055C97.8974 22.692 98.1498 22.7358 98.3829 22.8336C98.6161 22.9315 98.8242 23.0809 98.9914 23.2706C99.3403 23.7179 99.5135 24.2773 99.4783 24.8435V25.2172M98.7479 24.6161C98.764 24.272 98.6575 23.9333 98.4474 23.6603C98.3472 23.5448 98.2218 23.4538 98.081 23.3942C97.9402 23.3347 97.7876 23.3081 97.6349 23.3167C97.4767 23.3145 97.3197 23.3451 97.1738 23.4064C97.028 23.4678 96.8964 23.5587 96.7873 23.6733C96.5426 23.9321 96.3874 24.2625 96.3445 24.6161H98.749" fill="#35373A"/>
<path d="M102.828 23.535C102.614 23.401 102.356 23.3574 102.11 23.4137C101.864 23.4701 101.65 23.6218 101.516 23.8355C101.305 24.183 101.202 24.5855 101.22 24.9917V27.2599H100.508V22.8136H101.22V23.7303H101.237C101.318 23.4507 101.476 23.1994 101.693 23.005C101.887 22.8298 102.14 22.7336 102.401 22.7355C102.546 22.7292 102.69 22.7499 102.827 22.7966V23.535" fill="#35373A"/>
<path d="M110.775 24.0718C110.787 24.6591 110.643 25.2391 110.358 25.7529C110.082 26.2352 109.669 26.6252 109.172 26.874C108.625 27.1423 108.022 27.2763 107.413 27.2647H105.766V21.0352H107.486C109.679 21.0352 110.775 22.0474 110.775 24.0718ZM110.011 24.0888C110.011 22.4925 109.163 21.6944 107.469 21.6944H106.496V26.6035H107.422C107.768 26.6252 108.115 26.5785 108.443 26.4659C108.771 26.3533 109.073 26.177 109.333 25.9473C109.568 25.7006 109.749 25.4082 109.866 25.0882C109.983 24.7683 110.032 24.4277 110.012 24.0878" fill="#35373A"/>
<path d="M115.063 27.2635H114.35V26.5682H114.333C114.217 26.7683 114.059 26.9411 113.87 27.0748C113.681 27.2086 113.465 27.3002 113.238 27.3434C113.011 27.3866 112.777 27.3805 112.552 27.3254C112.327 27.2703 112.116 27.1675 111.935 27.024C111.806 26.9044 111.704 26.7581 111.638 26.5953C111.571 26.4325 111.54 26.2571 111.548 26.0813C111.548 25.2531 112.038 24.7692 113.017 24.6296L114.35 24.4423C114.35 23.6889 114.045 23.3122 113.434 23.3122C112.9 23.3114 112.384 23.5044 111.982 23.8552V23.1288C112.187 22.9973 112.414 22.9017 112.651 22.8463C112.924 22.7604 113.208 22.7135 113.494 22.707C114.54 22.707 115.063 23.2617 115.063 24.3711V27.2635ZM114.35 25.0143L113.272 25.1666C112.996 25.1855 112.729 25.277 112.499 25.4321C112.419 25.5082 112.358 25.6012 112.32 25.7043C112.282 25.8073 112.267 25.9177 112.277 26.0272C112.274 26.1292 112.293 26.2308 112.335 26.3241C112.376 26.4175 112.438 26.5003 112.516 26.5662C112.689 26.7046 112.907 26.7757 113.129 26.7666C113.293 26.7712 113.456 26.7401 113.607 26.6756C113.758 26.6111 113.893 26.5146 114.003 26.3929C114.236 26.1391 114.361 25.8039 114.35 25.4591V25.0123" fill="#35373A"/>
<path d="M118.465 27.2226C118.258 27.3265 118.027 27.3758 117.796 27.3659C117.02 27.3659 116.632 26.9284 116.632 26.0535V23.4206H115.867V22.8195H116.632V21.7304L117.344 21.5V22.8164H118.465V23.4176H117.341V25.9322C117.321 26.1562 117.375 26.3804 117.493 26.5714C117.558 26.6388 117.638 26.6906 117.726 26.7229C117.814 26.7552 117.908 26.7671 118.001 26.7578C118.166 26.7615 118.328 26.7112 118.462 26.6145V27.2226" fill="#35373A"/>
<path d="M122.555 27.2635H121.842V26.5682H121.825C121.709 26.7683 121.551 26.9411 121.362 27.0748C121.173 27.2086 120.958 27.3002 120.73 27.3434C120.503 27.3866 120.269 27.3805 120.044 27.3254C119.819 27.2703 119.609 27.1675 119.427 27.024C119.298 26.9044 119.197 26.7581 119.13 26.5953C119.063 26.4325 119.032 26.2571 119.04 26.0813C119.04 25.2531 119.53 24.7692 120.509 24.6296L121.842 24.4423C121.842 23.6889 121.537 23.3122 120.926 23.3122C120.392 23.3114 119.876 23.5044 119.474 23.8552V23.1288C119.679 22.9973 119.906 22.9018 120.143 22.8463C120.416 22.7604 120.7 22.7135 120.986 22.707C122.032 22.707 122.555 23.2617 122.555 24.3711V27.2635ZM121.842 25.0143L120.764 25.1666C120.488 25.1855 120.221 25.277 119.991 25.4321C119.912 25.5082 119.851 25.6012 119.812 25.7043C119.774 25.8073 119.759 25.9177 119.77 26.0272C119.766 26.1292 119.786 26.2308 119.827 26.3241C119.868 26.4175 119.93 26.5003 120.008 26.5662C120.182 26.7046 120.399 26.7757 120.621 26.7666C120.785 26.7712 120.948 26.7401 121.099 26.6756C121.25 26.6111 121.385 26.5146 121.495 26.3929C121.728 26.1391 121.853 25.8039 121.842 25.4591V25.0123" fill="#35373A"/>
<path d="M130.876 27.2657H130.068L129.411 25.5235H126.766L126.144 27.2657H125.336L127.717 21.0352H128.474L130.878 27.2657M129.175 24.8613L128.197 22.2103C128.156 22.0718 128.122 21.931 128.097 21.7886H128.08C128.062 21.9323 128.028 22.0737 127.98 22.2103L127.011 24.8613H129.17" fill="#35373A"/>
<path d="M135.387 27.2644H134.675V24.7266C134.675 23.7856 134.33 23.315 133.641 23.315C133.474 23.3126 133.308 23.3473 133.155 23.4166C133.003 23.4858 132.868 23.588 132.759 23.7158C132.519 23.9966 132.393 24.3581 132.408 24.7277V27.2654H131.695V22.8151H132.408V23.5535H132.425C132.565 23.2904 132.776 23.0717 133.034 22.922C133.292 22.7723 133.586 22.6974 133.884 22.7059C134.095 22.6924 134.306 22.7286 134.5 22.8116C134.694 22.8946 134.866 23.0221 135.001 23.1838C135.282 23.5777 135.419 24.0564 135.388 24.5393V27.2634" fill="#35373A"/>
<path d="M139.867 27.2635H139.155V26.5682H139.138C139.022 26.7683 138.864 26.9411 138.675 27.0748C138.486 27.2086 138.27 27.3002 138.043 27.3434C137.815 27.3866 137.581 27.3805 137.356 27.3254C137.132 27.2703 136.921 27.1675 136.739 27.024C136.61 26.9044 136.509 26.7581 136.442 26.5953C136.375 26.4325 136.345 26.2571 136.353 26.0813C136.353 25.2531 136.842 24.7692 137.821 24.6296L139.155 24.4423C139.155 23.6889 138.849 23.3122 138.238 23.3122C137.705 23.3114 137.189 23.5044 136.787 23.8552V23.1288C136.992 22.9973 137.218 22.9017 137.456 22.8463C137.729 22.7604 138.012 22.7135 138.298 22.707C139.344 22.707 139.867 23.2617 139.867 24.3711V27.2635ZM139.155 25.0143L138.077 25.1666C137.8 25.1855 137.533 25.277 137.304 25.4321C137.224 25.5081 137.163 25.6012 137.125 25.7042C137.086 25.8073 137.072 25.9177 137.082 26.0272C137.078 26.1292 137.098 26.2308 137.139 26.3241C137.181 26.4175 137.243 26.5003 137.321 26.5662C137.494 26.7043 137.711 26.7755 137.933 26.7666C138.097 26.7712 138.26 26.7401 138.411 26.6756C138.561 26.6111 138.696 26.5146 138.806 26.3929C139.04 26.1391 139.165 25.8039 139.154 25.4591V25.0123" fill="#35373A"/>
<path d="M141.915 27.2659H141.203V20.6797H141.915V27.2659Z" fill="#35373A"/>
<path d="M146.903 22.8174L144.858 27.979C144.493 28.8974 143.981 29.3566 143.32 29.3566C143.164 29.36 143.007 29.3424 142.855 29.3045V28.6653C142.989 28.7143 143.13 28.7407 143.272 28.7434C143.458 28.737 143.637 28.6716 143.783 28.5567C143.929 28.4418 144.035 28.2833 144.085 28.1042L144.441 27.2567L142.703 22.8164H143.499L144.701 26.2398L144.792 26.5784H144.818C144.829 26.5116 144.858 26.4031 144.905 26.2528L146.17 22.8164H146.908" fill="#35373A"/>
<path d="M149.723 27.2226C149.516 27.3265 149.285 27.3758 149.054 27.3659C148.277 27.3659 147.889 26.9284 147.889 26.0535V23.4206H147.125V22.8195H147.889V21.7304L148.602 21.5V22.8164H149.723V23.4176H148.602V25.9322C148.582 26.1562 148.635 26.3804 148.754 26.5714C148.819 26.6388 148.899 26.6906 148.987 26.7229C149.075 26.7552 149.169 26.7671 149.262 26.7578C149.427 26.7615 149.589 26.7112 149.723 26.6145V27.2226Z" fill="#35373A"/>
<path d="M151.5 21.2184C151.501 21.2808 151.49 21.3428 151.466 21.4005C151.442 21.4581 151.406 21.5101 151.36 21.553C151.27 21.6353 151.153 21.6809 151.03 21.6809C150.908 21.6809 150.791 21.6353 150.7 21.553C150.612 21.4648 150.562 21.3451 150.562 21.2204C150.562 21.0956 150.612 20.976 150.7 20.8878C150.788 20.7996 150.908 20.75 151.033 20.75C151.158 20.75 151.277 20.7996 151.366 20.8878C151.409 20.93 151.443 20.9807 151.466 21.0367C151.489 21.0927 151.501 21.1528 151.5 21.2134M151.379 27.2576H150.666V22.8214H151.379V27.2706" fill="#35373A"/>
<path d="M155.817 27.0594C155.446 27.2746 155.023 27.3828 154.595 27.372C154.212 27.3776 153.834 27.2815 153.5 27.0934C153.179 26.9053 152.918 26.6293 152.749 26.298C152.566 25.9422 152.473 25.5468 152.479 25.1468C152.449 24.4962 152.675 23.8597 153.11 23.3745C153.327 23.1502 153.59 22.9746 153.881 22.8593C154.172 22.7439 154.483 22.6915 154.796 22.7053C155.152 22.6983 155.505 22.7759 155.826 22.9317V23.6621C155.517 23.4384 155.147 23.3168 154.766 23.3144C154.553 23.3078 154.342 23.3489 154.147 23.4345C153.952 23.5201 153.779 23.6482 153.64 23.8093C153.344 24.1655 153.19 24.6195 153.211 25.0827C153.186 25.5295 153.332 25.9688 153.619 26.312C153.76 26.4625 153.931 26.5809 154.121 26.6589C154.311 26.7369 154.516 26.7727 154.722 26.7638C155.119 26.7603 155.504 26.6258 155.817 26.3811V27.0594Z" fill="#35373A"/>
<path d="M159.318 26.0756C159.322 26.2563 159.284 26.4354 159.206 26.5985C159.129 26.7616 159.013 26.9041 158.87 27.0143C158.53 27.2691 158.112 27.3968 157.688 27.375C157.303 27.3834 156.923 27.2904 156.586 27.1055V26.3371C156.909 26.6109 157.319 26.7618 157.742 26.7629C158.307 26.7629 158.59 26.5558 158.59 26.1417C158.593 26.0658 158.579 25.99 158.551 25.9196C158.522 25.8491 158.479 25.7855 158.424 25.7329C158.195 25.5551 157.942 25.4104 157.673 25.3032C157.358 25.1879 157.073 25.0038 156.838 24.7642C156.65 24.5099 156.566 24.1934 156.604 23.8794C156.641 23.5653 156.797 23.2773 157.039 23.074C157.358 22.8202 157.757 22.689 158.164 22.7043C158.493 22.6995 158.819 22.7708 159.116 22.9127V23.632C158.823 23.4195 158.469 23.308 158.108 23.3145C157.904 23.3047 157.703 23.366 157.539 23.4878C157.471 23.5406 157.416 23.6086 157.379 23.6864C157.342 23.7641 157.323 23.8495 157.325 23.9356C157.32 24.0189 157.332 24.1023 157.36 24.1808C157.389 24.2592 157.433 24.3309 157.491 24.3915C157.697 24.5508 157.927 24.6769 158.173 24.7652C158.507 24.8868 158.811 25.0796 159.064 25.3302C159.238 25.5376 159.33 25.8026 159.32 26.0736" fill="#35373A"/>
</g>
<defs>
<clipPath id="clip0_3456_3401">
<rect width="159.32" height="35" fill="white"/>
</clipPath>
</defs>
</svg>
