<svg width="148" height="35" viewBox="0 0 148 35" fill="none" xmlns="http://www.w3.org/2000/svg">
<mask id="mask0_3456_3457" style="mask-type:luminance" maskUnits="userSpaceOnUse" x="0" y="0" width="148" height="24">
<path d="M147.322 0H0.320312V23.5853H147.322V0Z" fill="white"/>
</mask>
<g mask="url(#mask0_3456_3457)">
<path d="M16.0017 7.03491V4.90868C16.2493 4.89556 16.497 4.88244 16.7447 4.88244C23.6178 4.69869 28.1226 9.89611 28.1226 9.89611C28.1226 9.89611 23.2617 15.6185 18.045 15.6185C17.3484 15.6185 16.6672 15.5267 16.0171 15.3429V8.8855C18.6951 9.16111 19.237 10.1586 20.8314 12.4292L24.4073 9.88298C24.4073 9.88298 21.7912 6.9824 17.3948 6.9824C16.9305 6.96928 16.4661 6.99553 16.0017 7.03491ZM16.0017 0V3.17621L16.7447 3.13683C26.2958 2.86122 32.5344 9.77801 32.5344 9.77801C32.5344 9.77801 25.3826 17.1541 17.9366 17.1541C17.2865 17.1541 16.6518 17.1017 16.0171 17.0097V18.9785C16.5434 19.031 17.0852 19.0704 17.6115 19.0704C24.5467 19.0704 29.5623 16.0648 34.423 12.5211C35.2279 13.0723 38.5252 14.398 39.2062 14.9755C34.5932 18.2566 23.8346 20.8947 17.7354 20.8947C17.1471 20.8947 16.5899 20.8685 16.0326 20.816V23.5853H42.3797V0H16.0017ZM16.0017 15.3429V17.0229C9.59289 16.0516 7.81267 10.3949 7.81267 10.3949C7.81267 10.3949 10.8932 7.5074 16.0017 7.03491V8.87236H15.9862C13.3081 8.59675 11.2028 10.7229 11.2028 10.7229C11.2028 10.7229 12.3947 14.306 16.0017 15.3429ZM4.62377 10.1586C4.62377 10.1586 8.4164 5.40742 16.0171 4.90868V3.17621C7.59595 3.75369 0.320312 9.79114 0.320312 9.79114C0.320312 9.79114 4.43802 19.8972 16.0017 20.816V18.9785C7.51856 18.086 4.62377 10.1586 4.62377 10.1586Z" fill="#35373A"/>
<path d="M90.3235 4.06141V19.5487H95.4783V4.06141H90.3235ZM49.7656 4.03516V19.5356H54.9669V7.50011L59.0227 7.51324C60.354 7.51324 61.2828 7.78886 61.9175 8.36638C62.738 9.10138 63.063 10.2957 63.063 12.4613V19.5356H68.1095V10.9782C68.1095 4.86203 63.512 4.03516 59.0227 4.03516H49.7656ZM98.6362 4.06141V19.5487H106.995C111.454 19.5487 112.909 18.9187 114.472 17.5143C115.587 16.53 116.299 14.3513 116.299 11.9757C116.299 9.79698 115.695 7.85448 114.627 6.647C112.739 4.4814 109.983 4.06141 105.865 4.06141H98.6362ZM103.745 7.42136H105.958C109.178 7.42136 111.253 8.64199 111.253 11.8182C111.253 14.9944 109.178 16.2281 105.958 16.2281H103.745V7.42136ZM82.893 4.06141L78.5895 16.3331L74.4718 4.06141H68.899L74.7814 19.5487H82.2118L88.1562 4.06141H82.893ZM118.714 19.5487H123.869V4.06141H118.714V19.5487ZM133.172 4.06141L125.974 19.5356H131.051L132.197 16.7925H140.712L141.795 19.5224H147.321L140.062 4.06141H133.172ZM136.516 6.88325L139.643 14.1282H133.297L136.516 6.88325Z" fill="#35373A"/>
</g>
<path d="M4.37234 26.6787V34.8875H3.17969V26.6787H4.37234ZM14.5735 26.6787V34.8875H13.4194L8.05248 28.4422H7.95629V34.8875H6.76364V26.6787H7.91782L13.304 33.14H13.4002V26.6787H14.5735ZM24.8854 29.2439H23.6928C23.6223 28.9581 23.4988 28.7069 23.3225 28.4904C23.1494 28.274 22.9378 28.0922 22.6877 27.9453C22.4408 27.7956 22.1667 27.6834 21.8654 27.6085C21.564 27.5337 21.2498 27.4964 20.9228 27.4964C20.3265 27.4964 19.7862 27.622 19.3022 27.8732C18.8212 28.1243 18.438 28.4944 18.1528 28.9834C17.8706 29.4725 17.7295 30.0723 17.7295 30.7831C17.7295 31.4939 17.8706 32.0938 18.1528 32.5828C18.438 33.0718 18.8212 33.4419 19.3022 33.693C19.7862 33.9442 20.3265 34.0698 20.9228 34.0698C21.2498 34.0698 21.564 34.0325 21.8654 33.9576C22.1667 33.8828 22.4408 33.772 22.6877 33.6249C22.9378 33.4753 23.1494 33.2922 23.3225 33.0758C23.4988 32.8567 23.6223 32.6055 23.6928 32.3223H24.8854C24.7957 32.7418 24.6322 33.1172 24.3949 33.4486C24.1577 33.78 23.8627 34.0618 23.51 34.2943C23.1574 34.5241 22.7614 34.6991 22.3222 34.8194C21.8862 34.9397 21.4197 34.9998 20.9228 34.9998C20.0828 34.9998 19.3358 34.8287 18.6817 34.4867C18.0277 34.1446 17.5131 33.6584 17.138 33.0277C16.763 32.3971 16.5753 31.6488 16.5753 30.7831C16.5753 29.9173 16.763 29.1691 17.138 28.5385C17.5131 27.9078 18.0277 27.4216 18.6817 27.0795C19.3358 26.7375 20.0828 26.5664 20.9228 26.5664C21.4197 26.5664 21.8862 26.6265 22.3222 26.7468C22.7614 26.8671 23.1574 27.0434 23.51 27.2759C23.8627 27.5057 24.1577 27.7862 24.3949 28.1176C24.6322 28.4463 24.7957 28.8217 24.8854 29.2439ZM26.8126 34.8875V26.6787H32.7567V27.5605H28.0053V30.3342H32.4489V31.216H28.0053V34.0057H32.8337V34.8875H26.8126ZM34.9064 34.8875V26.6787H38.2342C39.0069 26.6787 39.6385 26.7949 40.1289 27.0273C40.6227 27.2572 40.9883 27.5685 41.2255 27.9613C41.4627 28.3541 41.5813 28.7923 41.5813 29.276C41.5813 29.7597 41.4627 30.1992 41.2255 30.5947C40.9915 30.9902 40.6291 31.3055 40.1387 31.5407C39.6481 31.7731 39.0197 31.8893 38.2534 31.8893H35.8681V31.0076H38.215C38.7439 31.0076 39.1688 30.9314 39.4894 30.7791C39.8099 30.6268 40.0424 30.421 40.1867 30.1618C40.3342 29.8999 40.4079 29.6047 40.4079 29.276C40.4079 28.9473 40.3342 28.6534 40.1867 28.3942C40.0424 28.135 39.8083 27.932 39.4846 27.7849C39.1608 27.6353 38.7311 27.5605 38.1957 27.5605H36.099V34.8875H34.9064ZM42.964 27.5605V26.6787H50.3507V27.5605H47.2537V34.8875H46.061V27.5605H42.964ZM53.3839 26.6787V34.8875H52.1913V26.6787H53.3839ZM64.0853 30.7831C64.0853 31.6488 63.8978 32.3971 63.5227 33.0277C63.1476 33.6584 62.633 34.1446 61.979 34.4867C61.3249 34.8287 60.578 34.9998 59.738 34.9998C58.898 34.9998 58.151 34.8287 57.497 34.4867C56.8429 34.1446 56.3283 33.6584 55.9533 33.0277C55.5782 32.3971 55.3905 31.6488 55.3905 30.7831C55.3905 29.9173 55.5782 29.1691 55.9533 28.5385C56.3283 27.9078 56.8429 27.4216 57.497 27.0795C58.151 26.7375 58.898 26.5664 59.738 26.5664C60.578 26.5664 61.3249 26.7375 61.979 27.0795C62.633 27.4216 63.1476 27.9078 63.5227 28.5385C63.8978 29.1691 64.0853 29.9173 64.0853 30.7831ZM62.9312 30.7831C62.9312 30.0723 62.7885 29.4725 62.5032 28.9834C62.2211 28.4944 61.8379 28.1243 61.3539 27.8732C60.873 27.622 60.3344 27.4964 59.738 27.4964C59.1416 27.4964 58.6014 27.622 58.1174 27.8732C57.6364 28.1243 57.2533 28.4944 56.968 28.9834C56.6858 29.4725 56.5447 30.0723 56.5447 30.7831C56.5447 31.4939 56.6858 32.0938 56.968 32.5828C57.2533 33.0718 57.6364 33.4419 58.1174 33.693C58.6014 33.9442 59.1416 34.0698 59.738 34.0698C60.3344 34.0698 60.873 33.9442 61.3539 33.693C61.8379 33.4419 62.2211 33.0718 62.5032 32.5828C62.7885 32.0938 62.9312 31.4939 62.9312 30.7831ZM73.9007 26.6787V34.8875H72.7465L67.3796 28.4422H67.2834V34.8875H66.0907V26.6787H67.2449L72.6311 33.14H72.7273V26.6787H73.9007ZM80.096 34.8875V26.6787H83.4238C84.1965 26.6787 84.8282 26.7949 85.3186 27.0273C85.8123 27.2572 86.1778 27.5685 86.4151 27.9613C86.6523 28.3541 86.771 28.7923 86.771 29.276C86.771 29.7597 86.6523 30.1992 86.4151 30.5947C86.181 30.9902 85.8188 31.3055 85.3282 31.5407C84.8378 31.7731 84.2094 31.8893 83.4431 31.8893H81.0578V31.0076H83.4046C83.9336 31.0076 84.3585 30.9314 84.6791 30.7791C84.9996 30.6268 85.2321 30.421 85.3764 30.1618C85.5239 29.8999 85.5976 29.6047 85.5976 29.276C85.5976 28.9473 85.5239 28.6534 85.3764 28.3942C85.2321 28.135 84.998 27.932 84.6743 27.7849C84.3504 27.6353 83.9208 27.5605 83.3854 27.5605H81.2887V34.8875H80.096ZM88.6922 34.8875V26.6787H92.0201C92.7896 26.6787 93.4211 26.7883 93.9148 27.0073C94.4086 27.2237 94.774 27.5217 95.0113 27.9012C95.2486 28.2806 95.3672 28.7122 95.3672 29.1958C95.3672 29.6795 95.2486 30.1083 95.0113 30.4825C94.774 30.8566 94.4102 31.1506 93.9196 31.3643C93.4291 31.5754 92.8024 31.6809 92.0393 31.6809H89.3463V30.7831H92.0008C92.5266 30.7831 92.9499 30.719 93.2705 30.5907C93.5942 30.4624 93.8283 30.2807 93.9726 30.0455C94.12 29.8078 94.1938 29.5245 94.1938 29.1958C94.1938 28.8671 94.12 28.5799 93.9726 28.3341C93.8251 28.0882 93.5894 27.8985 93.2657 27.7649C92.9419 27.6286 92.5138 27.5605 91.9816 27.5605H89.8849V34.8875H88.6922ZM93.3282 31.1999L95.7519 34.8875H94.3669L91.9816 31.1999H93.3282ZM105.665 30.7831C105.665 31.6488 105.477 32.3971 105.102 33.0277C104.727 33.6584 104.212 34.1446 103.558 34.4867C102.904 34.8287 102.157 34.9998 101.317 34.9998C100.477 34.9998 99.7303 34.8287 99.0762 34.4867C98.4222 34.1446 97.9076 33.6584 97.5325 33.0277C97.1573 32.3971 96.9698 31.6488 96.9698 30.7831C96.9698 29.9173 97.1573 29.1691 97.5325 28.5385C97.9076 27.9078 98.4222 27.4216 99.0762 27.0795C99.7303 26.7375 100.477 26.5664 101.317 26.5664C102.157 26.5664 102.904 26.7375 103.558 27.0795C104.212 27.4216 104.727 27.9078 105.102 28.5385C105.477 29.1691 105.665 29.9173 105.665 30.7831ZM104.51 30.7831C104.51 30.0723 104.368 29.4725 104.082 28.9834C103.8 28.4944 103.417 28.1243 102.933 27.8732C102.452 27.622 101.914 27.4964 101.317 27.4964C100.721 27.4964 100.181 27.622 99.6965 27.8732C99.2157 28.1243 98.8325 28.4944 98.5472 28.9834C98.2651 29.4725 98.124 30.0723 98.124 30.7831C98.124 31.4939 98.2651 32.0938 98.5472 32.5828C98.8325 33.0718 99.2157 33.4419 99.6965 33.693C100.181 33.9442 100.721 34.0698 101.317 34.0698C101.914 34.0698 102.452 33.9442 102.933 33.693C103.417 33.4419 103.8 33.0718 104.082 32.5828C104.368 32.0938 104.51 31.4939 104.51 30.7831ZM114.403 29.2439C114.297 28.9741 114.157 28.7322 113.984 28.5185C113.814 28.302 113.611 28.1176 113.374 27.9653C113.14 27.813 112.873 27.6968 112.575 27.6166C112.277 27.5364 111.95 27.4964 111.594 27.4964C111.011 27.4964 110.48 27.622 110.002 27.8732C109.525 28.1243 109.145 28.4944 108.863 28.9834C108.581 29.4725 108.439 30.0723 108.439 30.7831C108.439 31.4939 108.582 32.0938 108.867 32.5828C109.153 33.0718 109.539 33.4419 110.026 33.693C110.514 33.9442 111.062 34.0698 111.671 34.0698C112.235 34.0698 112.732 33.9697 113.162 33.7693C113.595 33.5661 113.931 33.2802 114.172 32.9115C114.415 32.54 114.537 32.1032 114.537 31.6008L114.903 31.6649H111.94V30.7831H115.692V31.6649C115.692 32.3409 115.518 32.9288 115.172 33.4285C114.829 33.9282 114.355 34.3157 113.749 34.5909C113.146 34.8635 112.453 34.9998 111.671 34.9998C110.799 34.9998 110.033 34.8287 109.372 34.4867C108.715 34.1446 108.202 33.6584 107.834 33.0277C107.468 32.3971 107.285 31.6488 107.285 30.7831C107.285 30.1338 107.389 29.5499 107.598 29.0315C107.81 28.5105 108.108 28.0669 108.492 27.7008C108.877 27.3347 109.332 27.0541 109.858 26.8591C110.384 26.664 110.963 26.5664 111.594 26.5664C112.114 26.5664 112.598 26.6319 113.047 26.7628C113.499 26.8911 113.901 27.0741 114.254 27.312C114.609 27.5472 114.906 27.829 115.143 28.1577C115.381 28.4837 115.544 28.8458 115.634 29.2439H114.403ZM117.734 34.8875V26.6787H121.062C121.832 26.6787 122.463 26.7883 122.957 27.0073C123.451 27.2237 123.816 27.5217 124.053 27.9012C124.29 28.2806 124.409 28.7122 124.409 29.1958C124.409 29.6795 124.29 30.1083 124.053 30.4825C123.816 30.8566 123.452 31.1506 122.962 31.3643C122.471 31.5754 121.844 31.6809 121.081 31.6809H118.388V30.7831H121.043C121.569 30.7831 121.992 30.719 122.312 30.5907C122.636 30.4624 122.87 30.2807 123.015 30.0455C123.161 29.8078 123.235 29.5245 123.235 29.1958C123.235 28.8671 123.161 28.5799 123.015 28.3341C122.867 28.0882 122.631 27.8985 122.308 27.7649C121.984 27.6286 121.556 27.5605 121.024 27.5605H118.927V34.8875H117.734ZM122.37 31.1999L124.794 34.8875H123.409L121.024 31.1999H122.37ZM126.801 34.8875H125.55L129.167 26.6787H130.398L134.014 34.8875H132.764L129.821 27.9773H129.743L126.801 34.8875ZM127.262 31.6809H132.303V32.5628H127.262V31.6809ZM135.548 26.6787H136.972L140.318 33.4926H140.434L143.782 26.6787H145.205V34.8875H144.089V28.6507H143.993L140.915 34.8875H139.838L136.76 28.6507H136.664V34.8875H135.548V26.6787Z" fill="#35373A"/>
</svg>
