<svg width="35" height="35" viewBox="0 0 35 35" fill="none" xmlns="http://www.w3.org/2000/svg">
<path fill-rule="evenodd" clip-rule="evenodd" d="M35 17.5C35 27.165 27.165 35 17.5 35C7.83502 35 0 27.165 0 17.5C0 7.83502 7.83502 0 17.5 0C27.165 0 35 7.83502 35 17.5ZM26.6082 14.9415C28.0205 14.9415 29.1667 16.0877 29.1667 17.5C29.1667 18.5438 28.5322 19.4444 27.693 19.8538C27.7339 20.0994 27.7544 20.345 27.7544 20.6111C27.7544 24.5409 23.1901 27.7134 17.5409 27.7134C11.8918 27.7134 7.32749 24.5409 7.32749 20.6111C7.32749 20.345 7.34796 20.0789 7.3889 19.8333C6.48831 19.4239 5.87428 18.5438 5.87428 17.5C5.87428 16.0877 7.02048 14.9415 8.43276 14.9415C9.1082 14.9415 9.7427 15.228 10.193 15.6579C11.9532 14.3684 14.3889 13.5701 17.1111 13.4883L18.4006 7.38885C18.4415 7.26605 18.5029 7.16371 18.6053 7.1023C18.7076 7.0409 18.8304 7.02043 18.9532 7.0409L23.1901 7.94148C23.4766 7.32745 24.0907 6.91809 24.807 6.91809C25.81 6.91809 26.6287 7.73681 26.6287 8.73973C26.6287 9.74266 25.81 10.5614 24.807 10.5614C23.8246 10.5614 23.0263 9.78359 22.9854 8.8216L19.1988 8.02336L18.0322 13.4883C20.693 13.5906 23.1082 14.4093 24.848 15.6579C25.2983 15.2076 25.9123 14.9415 26.6082 14.9415ZM13.4883 17.5C12.4854 17.5 11.6667 18.3187 11.6667 19.3216C11.6667 20.3245 12.4854 21.1432 13.4883 21.1432C14.4912 21.1432 15.3099 20.3245 15.3099 19.3216C15.3099 18.3187 14.4912 17.5 13.4883 17.5ZM17.5205 25.462C18.2164 25.462 20.5907 25.3801 21.8392 24.1315C22.0234 23.9473 22.0234 23.6608 21.8801 23.4561C21.6959 23.2719 21.3889 23.2719 21.2047 23.4561C20.4064 24.2339 18.7485 24.5204 17.5409 24.5204C16.3333 24.5204 14.655 24.2339 13.8772 23.4561C13.693 23.2719 13.386 23.2719 13.2018 23.4561C13.0176 23.6403 13.0176 23.9473 13.2018 24.1315C14.4298 25.3596 16.8246 25.462 17.5205 25.462ZM19.6901 19.3216C19.6901 20.3245 20.5088 21.1432 21.5117 21.1432C22.5146 21.1432 23.3333 20.3245 23.3333 19.3216C23.3333 18.3187 22.5146 17.5 21.5117 17.5C20.5088 17.5 19.6901 18.3187 19.6901 19.3216Z" fill="#35373A"/>
</svg>
