<svg width="35" height="35" viewBox="0 0 35 35" fill="none" xmlns="http://www.w3.org/2000/svg">
<circle cx="17.5" cy="17.5" r="17.5" fill="#35373A"/>
<g clip-path="url(#clip0_3456_3520)">
<path d="M25.5908 13.9995C25.5908 13.9995 25.423 12.793 24.9064 12.2632C24.2523 11.5659 23.5209 11.5625 23.1855 11.5215C20.7835 11.3437 17.1773 11.3438 17.1773 11.3438H17.1705C17.1705 11.3438 13.5643 11.3437 11.1623 11.5215C10.8269 11.5625 10.0955 11.5659 9.44138 12.2632C8.92476 12.793 8.76038 13.9995 8.76038 13.9995C8.76038 13.9995 8.58594 15.418 8.58594 16.833V18.1592C8.58594 19.5742 8.75703 20.9927 8.75703 20.9927C8.75703 20.9927 8.92476 22.1992 9.43802 22.729C10.0922 23.4263 10.951 23.4023 11.3334 23.4775C12.7088 23.6108 17.1739 23.6519 17.1739 23.6519C17.1739 23.6519 20.7835 23.645 23.1855 23.4707C23.5209 23.4297 24.2523 23.4263 24.9064 22.729C25.423 22.1992 25.5908 20.9927 25.5908 20.9927C25.5908 20.9927 25.7619 19.5776 25.7619 18.1592V16.833C25.7619 15.418 25.5908 13.9995 25.5908 13.9995ZM15.3993 19.769V14.8506L20.0388 17.3184L15.3993 19.769Z" fill="white"/>
</g>
<defs>
<clipPath id="clip0_3456_3520">
<rect width="17.1759" height="17.5" fill="white" transform="translate(8.58594 8.75)"/>
</clipPath>
</defs>
</svg>
